<?xml version="1.0" encoding="UTF-8" standalone="no"?>
<!DOCTYPE svg PUBLIC "-//W3C//DTD SVG 1.1//EN"
 "http://www.w3.org/Graphics/SVG/1.1/DTD/svg11.dtd">
<!-- Generated by graphviz version 2.40.1 (20161225.0304)
 -->
<!-- Title: %3 Pages: 1 -->
<svg width="134pt" height="404pt"
 viewBox="0.00 0.00 134.00 404.00" xmlns="http://www.w3.org/2000/svg" xmlns:xlink="http://www.w3.org/1999/xlink">
<g id="graph0" class="graph" transform="scale(1 1) rotate(0) translate(4 400)">
<title>%3</title>
<polygon fill="#ffffff" stroke="transparent" points="-4,4 -4,-400 130,-400 130,4 -4,4"/>
<!-- t0 -->
<g id="node1" class="node">
<title>t0</title>
<ellipse fill="#f0efed" stroke="#f0efed" cx="27" cy="-378" rx="27" ry="18"/>
<text text-anchor="middle" x="27" y="-373.8" font-family="Times,serif" font-size="14.00" fill="#000000">t0</text>
</g>
<!-- t1 -->
<g id="node2" class="node">
<title>t1</title>
<ellipse fill="#f0efed" stroke="#f0efed" cx="27" cy="-306" rx="27" ry="18"/>
<text text-anchor="middle" x="27" y="-301.8" font-family="Times,serif" font-size="14.00" fill="#000000">t1</text>
</g>
<!-- t0&#45;&gt;t1 -->
<g id="edge1" class="edge">
<title>t0&#45;&gt;t1</title>
<path fill="none" stroke="#000000" d="M27,-359.8314C27,-352.131 27,-342.9743 27,-334.4166"/>
<polygon fill="#000000" stroke="#000000" points="30.5001,-334.4132 27,-324.4133 23.5001,-334.4133 30.5001,-334.4132"/>
</g>
<!-- t2 -->
<g id="node3" class="node">
<title>t2</title>
<ellipse fill="#f0efed" stroke="#f0efed" cx="27" cy="-234" rx="27" ry="18"/>
<text text-anchor="middle" x="27" y="-229.8" font-family="Times,serif" font-size="14.00" fill="#000000">t2</text>
</g>
<!-- t1&#45;&gt;t2 -->
<g id="edge2" class="edge">
<title>t1&#45;&gt;t2</title>
<path fill="none" stroke="#000000" d="M27,-287.8314C27,-280.131 27,-270.9743 27,-262.4166"/>
<polygon fill="#000000" stroke="#000000" points="30.5001,-262.4132 27,-252.4133 23.5001,-262.4133 30.5001,-262.4132"/>
</g>
<!-- t3 -->
<g id="node4" class="node">
<title>t3</title>
<ellipse fill="#f0efed" stroke="#f0efed" cx="27" cy="-162" rx="27" ry="18"/>
<text text-anchor="middle" x="27" y="-157.8" font-family="Times,serif" font-size="14.00" fill="#000000">t3</text>
</g>
<!-- t2&#45;&gt;t3 -->
<g id="edge3" class="edge">
<title>t2&#45;&gt;t3</title>
<path fill="none" stroke="#000000" d="M27,-215.8314C27,-208.131 27,-198.9743 27,-190.4166"/>
<polygon fill="#000000" stroke="#000000" points="30.5001,-190.4132 27,-180.4133 23.5001,-190.4133 30.5001,-190.4132"/>
</g>
<!-- t4 -->
<g id="node5" class="node">
<title>t4</title>
<ellipse fill="#f0efed" stroke="#f0efed" cx="27" cy="-90" rx="27" ry="18"/>
<text text-anchor="middle" x="27" y="-85.8" font-family="Times,serif" font-size="14.00" fill="#000000">t4</text>
</g>
<!-- t3&#45;&gt;t4 -->
<g id="edge4" class="edge">
<title>t3&#45;&gt;t4</title>
<path fill="none" stroke="#000000" d="M27,-143.8314C27,-136.131 27,-126.9743 27,-118.4166"/>
<polygon fill="#000000" stroke="#000000" points="30.5001,-118.4132 27,-108.4133 23.5001,-118.4133 30.5001,-118.4132"/>
</g>
<!-- t5 -->
<g id="node6" class="node">
<title>t5</title>
<ellipse fill="#f0efed" stroke="#f0efed" cx="27" cy="-18" rx="27" ry="18"/>
<text text-anchor="middle" x="27" y="-13.8" font-family="Times,serif" font-size="14.00" fill="#000000">t5</text>
</g>
<!-- t4&#45;&gt;t5 -->
<g id="edge5" class="edge">
<title>t4&#45;&gt;t5</title>
<path fill="none" stroke="#000000" d="M27,-71.8314C27,-64.131 27,-54.9743 27,-46.4166"/>
<polygon fill="#000000" stroke="#000000" points="30.5001,-46.4132 27,-36.4133 23.5001,-46.4133 30.5001,-46.4132"/>
</g>
<!-- t6 -->
<g id="node7" class="node">
<title>t6</title>
<ellipse fill="#f0efed" stroke="#f0efed" cx="99" cy="-378" rx="27" ry="18"/>
<text text-anchor="middle" x="99" y="-373.8" font-family="Times,serif" font-size="14.00" fill="#000000">t6</text>
</g>
</g>
</svg>
