<?xml version="1.0" encoding="UTF-8" standalone="no"?>
<!DOCTYPE svg PUBLIC "-//W3C//DTD SVG 1.1//EN"
 "http://www.w3.org/Graphics/SVG/1.1/DTD/svg11.dtd">
<!-- Generated by graphviz version 2.40.1 (20161225.0304)
 -->
<!-- Title: %3 Pages: 1 -->
<svg width="206pt" height="332pt"
 viewBox="0.00 0.00 206.00 332.00" xmlns="http://www.w3.org/2000/svg" xmlns:xlink="http://www.w3.org/1999/xlink">
<g id="graph0" class="graph" transform="scale(1 1) rotate(0) translate(4 328)">
<title>%3</title>
<polygon fill="#ffffff" stroke="transparent" points="-4,4 -4,-328 202,-328 202,4 -4,4"/>
<!-- t0 -->
<g id="node1" class="node">
<title>t0</title>
<ellipse fill="#f0efed" stroke="#f0efed" cx="27" cy="-306" rx="27" ry="18"/>
<text text-anchor="middle" x="27" y="-301.8" font-family="Times,serif" font-size="14.00" fill="#000000">t0</text>
</g>
<!-- t2 -->
<g id="node3" class="node">
<title>t2</title>
<ellipse fill="#f0efed" stroke="#f0efed" cx="27" cy="-234" rx="27" ry="18"/>
<text text-anchor="middle" x="27" y="-229.8" font-family="Times,serif" font-size="14.00" fill="#000000">t2</text>
</g>
<!-- t0&#45;&gt;t2 -->
<g id="edge1" class="edge">
<title>t0&#45;&gt;t2</title>
<path fill="none" stroke="#000000" d="M27,-287.8314C27,-280.131 27,-270.9743 27,-262.4166"/>
<polygon fill="#000000" stroke="#000000" points="30.5001,-262.4132 27,-252.4133 23.5001,-262.4133 30.5001,-262.4132"/>
</g>
<!-- t1 -->
<g id="node2" class="node">
<title>t1</title>
<ellipse fill="#f0efed" stroke="#f0efed" cx="99" cy="-306" rx="27" ry="18"/>
<text text-anchor="middle" x="99" y="-301.8" font-family="Times,serif" font-size="14.00" fill="#000000">t1</text>
</g>
<!-- t1&#45;&gt;t2 -->
<g id="edge2" class="edge">
<title>t1&#45;&gt;t2</title>
<path fill="none" stroke="#000000" d="M83.7307,-290.7307C73.803,-280.803 60.6847,-267.6847 49.5637,-256.5637"/>
<polygon fill="#000000" stroke="#000000" points="51.7933,-253.8436 42.2473,-249.2473 46.8436,-258.7933 51.7933,-253.8436"/>
</g>
<!-- t3 -->
<g id="node4" class="node">
<title>t3</title>
<ellipse fill="#f0efed" stroke="#f0efed" cx="171" cy="-234" rx="27" ry="18"/>
<text text-anchor="middle" x="171" y="-229.8" font-family="Times,serif" font-size="14.00" fill="#000000">t3</text>
</g>
<!-- t1&#45;&gt;t3 -->
<g id="edge3" class="edge">
<title>t1&#45;&gt;t3</title>
<path fill="none" stroke="#000000" d="M114.2693,-290.7307C124.197,-280.803 137.3153,-267.6847 148.4363,-256.5637"/>
<polygon fill="#000000" stroke="#000000" points="151.1564,-258.7933 155.7527,-249.2473 146.2067,-253.8436 151.1564,-258.7933"/>
</g>
<!-- t4 -->
<g id="node5" class="node">
<title>t4</title>
<ellipse fill="#f0efed" stroke="#f0efed" cx="99" cy="-234" rx="27" ry="18"/>
<text text-anchor="middle" x="99" y="-229.8" font-family="Times,serif" font-size="14.00" fill="#000000">t4</text>
</g>
<!-- t1&#45;&gt;t4 -->
<g id="edge4" class="edge">
<title>t1&#45;&gt;t4</title>
<path fill="none" stroke="#000000" d="M99,-287.8314C99,-280.131 99,-270.9743 99,-262.4166"/>
<polygon fill="#000000" stroke="#000000" points="102.5001,-262.4132 99,-252.4133 95.5001,-262.4133 102.5001,-262.4132"/>
</g>
<!-- t6 -->
<g id="node7" class="node">
<title>t6</title>
<ellipse fill="#f0efed" stroke="#f0efed" cx="99" cy="-162" rx="27" ry="18"/>
<text text-anchor="middle" x="99" y="-157.8" font-family="Times,serif" font-size="14.00" fill="#000000">t6</text>
</g>
<!-- t2&#45;&gt;t6 -->
<g id="edge5" class="edge">
<title>t2&#45;&gt;t6</title>
<path fill="none" stroke="#000000" d="M42.2693,-218.7307C52.197,-208.803 65.3153,-195.6847 76.4363,-184.5637"/>
<polygon fill="#000000" stroke="#000000" points="79.1564,-186.7933 83.7527,-177.2473 74.2067,-181.8436 79.1564,-186.7933"/>
</g>
<!-- t8 -->
<g id="node9" class="node">
<title>t8</title>
<ellipse fill="#f0efed" stroke="#f0efed" cx="171" cy="-162" rx="27" ry="18"/>
<text text-anchor="middle" x="171" y="-157.8" font-family="Times,serif" font-size="14.00" fill="#000000">t8</text>
</g>
<!-- t2&#45;&gt;t8 -->
<g id="edge6" class="edge">
<title>t2&#45;&gt;t8</title>
<path fill="none" stroke="#000000" d="M48.8705,-223.0647C73.2222,-210.8889 112.762,-191.119 140.2285,-177.3858"/>
<polygon fill="#000000" stroke="#000000" points="142.0165,-180.4049 149.3955,-172.8022 138.886,-174.1439 142.0165,-180.4049"/>
</g>
<!-- t9 -->
<g id="node10" class="node">
<title>t9</title>
<ellipse fill="#f0efed" stroke="#f0efed" cx="27" cy="-162" rx="27" ry="18"/>
<text text-anchor="middle" x="27" y="-157.8" font-family="Times,serif" font-size="14.00" fill="#000000">t9</text>
</g>
<!-- t2&#45;&gt;t9 -->
<g id="edge7" class="edge">
<title>t2&#45;&gt;t9</title>
<path fill="none" stroke="#000000" d="M27,-215.8314C27,-208.131 27,-198.9743 27,-190.4166"/>
<polygon fill="#000000" stroke="#000000" points="30.5001,-190.4132 27,-180.4133 23.5001,-190.4133 30.5001,-190.4132"/>
</g>
<!-- t3&#45;&gt;t6 -->
<g id="edge8" class="edge">
<title>t3&#45;&gt;t6</title>
<path fill="none" stroke="#000000" d="M155.7307,-218.7307C145.803,-208.803 132.6847,-195.6847 121.5637,-184.5637"/>
<polygon fill="#000000" stroke="#000000" points="123.7933,-181.8436 114.2473,-177.2473 118.8436,-186.7933 123.7933,-181.8436"/>
</g>
<!-- t3&#45;&gt;t8 -->
<g id="edge9" class="edge">
<title>t3&#45;&gt;t8</title>
<path fill="none" stroke="#000000" d="M171,-215.8314C171,-208.131 171,-198.9743 171,-190.4166"/>
<polygon fill="#000000" stroke="#000000" points="174.5001,-190.4132 171,-180.4133 167.5001,-190.4133 174.5001,-190.4132"/>
</g>
<!-- t3&#45;&gt;t9 -->
<g id="edge10" class="edge">
<title>t3&#45;&gt;t9</title>
<path fill="none" stroke="#000000" d="M149.1295,-223.0647C124.7778,-210.8889 85.238,-191.119 57.7715,-177.3858"/>
<polygon fill="#000000" stroke="#000000" points="59.114,-174.1439 48.6045,-172.8022 55.9835,-180.4049 59.114,-174.1439"/>
</g>
<!-- t4&#45;&gt;t6 -->
<g id="edge11" class="edge">
<title>t4&#45;&gt;t6</title>
<path fill="none" stroke="#000000" d="M99,-215.8314C99,-208.131 99,-198.9743 99,-190.4166"/>
<polygon fill="#000000" stroke="#000000" points="102.5001,-190.4132 99,-180.4133 95.5001,-190.4133 102.5001,-190.4132"/>
</g>
<!-- t4&#45;&gt;t8 -->
<g id="edge12" class="edge">
<title>t4&#45;&gt;t8</title>
<path fill="none" stroke="#000000" d="M114.2693,-218.7307C124.197,-208.803 137.3153,-195.6847 148.4363,-184.5637"/>
<polygon fill="#000000" stroke="#000000" points="151.1564,-186.7933 155.7527,-177.2473 146.2067,-181.8436 151.1564,-186.7933"/>
</g>
<!-- t4&#45;&gt;t9 -->
<g id="edge13" class="edge">
<title>t4&#45;&gt;t9</title>
<path fill="none" stroke="#000000" d="M83.7307,-218.7307C73.803,-208.803 60.6847,-195.6847 49.5637,-184.5637"/>
<polygon fill="#000000" stroke="#000000" points="51.7933,-181.8436 42.2473,-177.2473 46.8436,-186.7933 51.7933,-181.8436"/>
</g>
<!-- t5 -->
<g id="node6" class="node">
<title>t5</title>
<ellipse fill="#f0efed" stroke="#f0efed" cx="35" cy="-90" rx="27" ry="18"/>
<text text-anchor="middle" x="35" y="-85.8" font-family="Times,serif" font-size="14.00" fill="#000000">t5</text>
</g>
<!-- t7 -->
<g id="node8" class="node">
<title>t7</title>
<ellipse fill="#f0efed" stroke="#f0efed" cx="62" cy="-18" rx="27" ry="18"/>
<text text-anchor="middle" x="62" y="-13.8" font-family="Times,serif" font-size="14.00" fill="#000000">t7</text>
</g>
<!-- t5&#45;&gt;t7 -->
<g id="edge14" class="edge">
<title>t5&#45;&gt;t7</title>
<path fill="none" stroke="#000000" d="M41.6742,-72.2022C44.7476,-64.0064 48.4616,-54.1024 51.8695,-45.0145"/>
<polygon fill="#000000" stroke="#000000" points="55.1685,-46.1853 55.4026,-35.593 48.6142,-43.7274 55.1685,-46.1853"/>
</g>
<!-- t6&#45;&gt;t7 -->
<g id="edge16" class="edge">
<title>t6&#45;&gt;t7</title>
<path fill="none" stroke="#ff0000" d="M94.3887,-144.0535C88.074,-119.4774 76.6717,-75.1008 69.2195,-46.0974"/>
<polygon fill="#ff0000" stroke="#ff0000" points="72.5479,-44.9871 66.6694,-36.1727 65.7682,-46.7291 72.5479,-44.9871"/>
</g>
<!-- t9&#45;&gt;t5 -->
<g id="edge15" class="edge">
<title>t9&#45;&gt;t5</title>
<path fill="none" stroke="#000000" d="M29.0187,-143.8314C29.8743,-136.131 30.8917,-126.9743 31.8426,-118.4166"/>
<polygon fill="#000000" stroke="#000000" points="35.3283,-118.7386 32.9541,-108.4133 28.3711,-117.9656 35.3283,-118.7386"/>
</g>
</g>
</svg>
