<?xml version="1.0" encoding="utf-8" standalone="no"?>
<!DOCTYPE svg PUBLIC "-//W3C//DTD SVG 1.1//EN"
  "http://www.w3.org/Graphics/SVG/1.1/DTD/svg11.dtd">
<!-- Created with matplotlib (https://matplotlib.org/) -->
<svg height="266.0675pt" version="1.1" viewBox="0 0 591.739375 266.0675" width="591.739375pt" xmlns="http://www.w3.org/2000/svg" xmlns:xlink="http://www.w3.org/1999/xlink">
 <defs>
  <style type="text/css">
*{stroke-linecap:butt;stroke-linejoin:round;}
  </style>
 </defs>
 <g id="figure_1">
  <g id="patch_1">
   <path d="M 0 266.0675 
L 591.739375 266.0675 
L 591.739375 0 
L 0 0 
z
" style="fill:#ffffff;"/>
  </g>
  <g id="axes_1">
   <g id="patch_2">
    <path d="M 26.539375 224.64 
L 584.539375 224.64 
L 584.539375 7.2 
L 26.539375 7.2 
z
" style="fill:#ffffff;"/>
   </g>
   <g id="line2d_1">
    <path clip-path="url(#p71af37c701)" d="M 76.507643 209.55445 
L 69.466705 209.55445 
" style="fill:none;stroke:#8b008b;stroke-dasharray:1.5,2.475;stroke-dashoffset:0;stroke-width:1.5;"/>
   </g>
   <g id="line2d_2">
    <path clip-path="url(#p71af37c701)" d="M 105.538599 209.55445 
L 127.528617 209.55445 
" style="fill:none;stroke:#8b008b;stroke-dasharray:1.5,2.475;stroke-dashoffset:0;stroke-width:1.5;"/>
   </g>
   <g id="line2d_3">
    <path clip-path="url(#p71af37c701)" d="M 69.466705 212.155407 
L 69.466705 206.953493 
" style="fill:none;stroke:#8b008b;stroke-linecap:square;stroke-width:2;"/>
   </g>
   <g id="line2d_4">
    <path clip-path="url(#p71af37c701)" d="M 127.528617 212.155407 
L 127.528617 206.953493 
" style="fill:none;stroke:#8b008b;stroke-linecap:square;stroke-width:2;"/>
   </g>
   <g id="line2d_5">
    <path clip-path="url(#p71af37c701)" d="M 97.637325 188.746794 
L 83.689219 188.746794 
" style="fill:none;stroke:#8b008b;stroke-dasharray:1.5,2.475;stroke-dashoffset:0;stroke-width:1.5;"/>
   </g>
   <g id="line2d_6">
    <path clip-path="url(#p71af37c701)" d="M 117.992887 188.746794 
L 124.400342 188.746794 
" style="fill:none;stroke:#8b008b;stroke-dasharray:1.5,2.475;stroke-dashoffset:0;stroke-width:1.5;"/>
   </g>
   <g id="line2d_7">
    <path clip-path="url(#p71af37c701)" d="M 83.689219 191.347751 
L 83.689219 186.145837 
" style="fill:none;stroke:#8b008b;stroke-linecap:square;stroke-width:2;"/>
   </g>
   <g id="line2d_8">
    <path clip-path="url(#p71af37c701)" d="M 124.400342 191.347751 
L 124.400342 186.145837 
" style="fill:none;stroke:#8b008b;stroke-linecap:square;stroke-width:2;"/>
   </g>
   <g id="line2d_9">
    <path clip-path="url(#p71af37c701)" d="M 104.929476 167.939139 
L 99.249569 167.939139 
" style="fill:none;stroke:#8b008b;stroke-dasharray:1.5,2.475;stroke-dashoffset:0;stroke-width:1.5;"/>
   </g>
   <g id="line2d_10">
    <path clip-path="url(#p71af37c701)" d="M 131.080227 167.939139 
L 151.551071 167.939139 
" style="fill:none;stroke:#8b008b;stroke-dasharray:1.5,2.475;stroke-dashoffset:0;stroke-width:1.5;"/>
   </g>
   <g id="line2d_11">
    <path clip-path="url(#p71af37c701)" d="M 99.249569 170.540096 
L 99.249569 165.338182 
" style="fill:none;stroke:#8b008b;stroke-linecap:square;stroke-width:2;"/>
   </g>
   <g id="line2d_12">
    <path clip-path="url(#p71af37c701)" d="M 151.551071 170.540096 
L 151.551071 165.338182 
" style="fill:none;stroke:#8b008b;stroke-linecap:square;stroke-width:2;"/>
   </g>
   <g id="line2d_13">
    <path clip-path="url(#p71af37c701)" d="M 69.141384 147.131483 
L 51.903011 147.131483 
" style="fill:none;stroke:#8b008b;stroke-dasharray:1.5,2.475;stroke-dashoffset:0;stroke-width:1.5;"/>
   </g>
   <g id="line2d_14">
    <path clip-path="url(#p71af37c701)" d="M 141.900097 147.131483 
L 197.420437 147.131483 
" style="fill:none;stroke:#8b008b;stroke-dasharray:1.5,2.475;stroke-dashoffset:0;stroke-width:1.5;"/>
   </g>
   <g id="line2d_15">
    <path clip-path="url(#p71af37c701)" d="M 51.903011 149.73244 
L 51.903011 144.530526 
" style="fill:none;stroke:#8b008b;stroke-linecap:square;stroke-width:2;"/>
   </g>
   <g id="line2d_16">
    <path clip-path="url(#p71af37c701)" d="M 197.420437 149.73244 
L 197.420437 144.530526 
" style="fill:none;stroke:#8b008b;stroke-linecap:square;stroke-width:2;"/>
   </g>
   <g id="line2d_17">
    <path clip-path="url(#p71af37c701)" d="M 137.739282 126.323828 
L 117.029795 126.323828 
" style="fill:none;stroke:#8b008b;stroke-dasharray:1.5,2.475;stroke-dashoffset:0;stroke-width:1.5;"/>
   </g>
   <g id="line2d_18">
    <path clip-path="url(#p71af37c701)" d="M 175.894325 126.323828 
L 193.339881 126.323828 
" style="fill:none;stroke:#8b008b;stroke-dasharray:1.5,2.475;stroke-dashoffset:0;stroke-width:1.5;"/>
   </g>
   <g id="line2d_19">
    <path clip-path="url(#p71af37c701)" d="M 117.029795 128.924785 
L 117.029795 123.722871 
" style="fill:none;stroke:#8b008b;stroke-linecap:square;stroke-width:2;"/>
   </g>
   <g id="line2d_20">
    <path clip-path="url(#p71af37c701)" d="M 193.339881 128.924785 
L 193.339881 123.722871 
" style="fill:none;stroke:#8b008b;stroke-linecap:square;stroke-width:2;"/>
   </g>
   <g id="line2d_21">
    <path clip-path="url(#p71af37c701)" d="M 381.754919 105.516172 
L 365.491409 105.516172 
" style="fill:none;stroke:#8b008b;stroke-dasharray:1.5,2.475;stroke-dashoffset:0;stroke-width:1.5;"/>
   </g>
   <g id="line2d_22">
    <path clip-path="url(#p71af37c701)" d="M 422.347943 105.516172 
L 446.677457 105.516172 
" style="fill:none;stroke:#8b008b;stroke-dasharray:1.5,2.475;stroke-dashoffset:0;stroke-width:1.5;"/>
   </g>
   <g id="line2d_23">
    <path clip-path="url(#p71af37c701)" d="M 365.491409 108.117129 
L 365.491409 102.915215 
" style="fill:none;stroke:#8b008b;stroke-linecap:square;stroke-width:2;"/>
   </g>
   <g id="line2d_24">
    <path clip-path="url(#p71af37c701)" d="M 446.677457 108.117129 
L 446.677457 102.915215 
" style="fill:none;stroke:#8b008b;stroke-linecap:square;stroke-width:2;"/>
   </g>
   <g id="line2d_25">
    <path clip-path="url(#p71af37c701)" d="M 381.95498 84.708517 
L 304.924731 84.708517 
" style="fill:none;stroke:#8b008b;stroke-dasharray:1.5,2.475;stroke-dashoffset:0;stroke-width:1.5;"/>
   </g>
   <g id="line2d_26">
    <path clip-path="url(#p71af37c701)" d="M 500.52196 84.708517 
L 542.058692 84.708517 
" style="fill:none;stroke:#8b008b;stroke-dasharray:1.5,2.475;stroke-dashoffset:0;stroke-width:1.5;"/>
   </g>
   <g id="line2d_27">
    <path clip-path="url(#p71af37c701)" d="M 304.924731 87.309474 
L 304.924731 82.10756 
" style="fill:none;stroke:#8b008b;stroke-linecap:square;stroke-width:2;"/>
   </g>
   <g id="line2d_28">
    <path clip-path="url(#p71af37c701)" d="M 542.058692 87.309474 
L 542.058692 82.10756 
" style="fill:none;stroke:#8b008b;stroke-linecap:square;stroke-width:2;"/>
   </g>
   <g id="line2d_29">
    <path clip-path="url(#p71af37c701)" d="M 416.487951 63.900861 
L 395.088813 63.900861 
" style="fill:none;stroke:#8b008b;stroke-dasharray:1.5,2.475;stroke-dashoffset:0;stroke-width:1.5;"/>
   </g>
   <g id="line2d_30">
    <path clip-path="url(#p71af37c701)" d="M 462.360691 63.900861 
L 486.834293 63.900861 
" style="fill:none;stroke:#8b008b;stroke-dasharray:1.5,2.475;stroke-dashoffset:0;stroke-width:1.5;"/>
   </g>
   <g id="line2d_31">
    <path clip-path="url(#p71af37c701)" d="M 395.088813 66.501818 
L 395.088813 61.299904 
" style="fill:none;stroke:#8b008b;stroke-linecap:square;stroke-width:2;"/>
   </g>
   <g id="line2d_32">
    <path clip-path="url(#p71af37c701)" d="M 486.834293 66.501818 
L 486.834293 61.299904 
" style="fill:none;stroke:#8b008b;stroke-linecap:square;stroke-width:2;"/>
   </g>
   <g id="line2d_33">
    <path clip-path="url(#p71af37c701)" d="M 423.266495 43.093206 
L 392.965295 43.093206 
" style="fill:none;stroke:#8b008b;stroke-dasharray:1.5,2.475;stroke-dashoffset:0;stroke-width:1.5;"/>
   </g>
   <g id="line2d_34">
    <path clip-path="url(#p71af37c701)" d="M 468.318259 43.093206 
L 483.068822 43.093206 
" style="fill:none;stroke:#8b008b;stroke-dasharray:1.5,2.475;stroke-dashoffset:0;stroke-width:1.5;"/>
   </g>
   <g id="line2d_35">
    <path clip-path="url(#p71af37c701)" d="M 392.965295 45.694163 
L 392.965295 40.492249 
" style="fill:none;stroke:#8b008b;stroke-linecap:square;stroke-width:2;"/>
   </g>
   <g id="line2d_36">
    <path clip-path="url(#p71af37c701)" d="M 483.068822 45.694163 
L 483.068822 40.492249 
" style="fill:none;stroke:#8b008b;stroke-linecap:square;stroke-width:2;"/>
   </g>
   <g id="line2d_37">
    <path clip-path="url(#p71af37c701)" d="M 486.924088 22.28555 
L 459.228814 22.28555 
" style="fill:none;stroke:#8b008b;stroke-dasharray:1.5,2.475;stroke-dashoffset:0;stroke-width:1.5;"/>
   </g>
   <g id="line2d_38">
    <path clip-path="url(#p71af37c701)" d="M 536.897551 22.28555 
L 559.175739 22.28555 
" style="fill:none;stroke:#8b008b;stroke-dasharray:1.5,2.475;stroke-dashoffset:0;stroke-width:1.5;"/>
   </g>
   <g id="line2d_39">
    <path clip-path="url(#p71af37c701)" d="M 459.228814 24.886507 
L 459.228814 19.684593 
" style="fill:none;stroke:#8b008b;stroke-linecap:square;stroke-width:2;"/>
   </g>
   <g id="line2d_40">
    <path clip-path="url(#p71af37c701)" d="M 559.175739 24.886507 
L 559.175739 19.684593 
" style="fill:none;stroke:#8b008b;stroke-linecap:square;stroke-width:2;"/>
   </g>
   <g id="patch_3">
    <path clip-path="url(#p71af37c701)" d="M 76.507643 214.756364 
L 76.507643 204.352536 
L 105.538599 204.352536 
L 105.538599 214.756364 
L 76.507643 214.756364 
z
" style="fill:#e1e8e8;stroke:#000000;stroke-linejoin:miter;"/>
   </g>
   <g id="patch_4">
    <path clip-path="url(#p71af37c701)" d="M 97.637325 193.948708 
L 97.637325 183.54488 
L 117.992887 183.54488 
L 117.992887 193.948708 
L 97.637325 193.948708 
z
" style="fill:#e1e8e8;stroke:#000000;stroke-linejoin:miter;"/>
   </g>
   <g id="patch_5">
    <path clip-path="url(#p71af37c701)" d="M 104.929476 173.141053 
L 104.929476 162.737225 
L 131.080227 162.737225 
L 131.080227 173.141053 
L 104.929476 173.141053 
z
" style="fill:#e1e8e8;stroke:#000000;stroke-linejoin:miter;"/>
   </g>
   <g id="patch_6">
    <path clip-path="url(#p71af37c701)" d="M 69.141384 152.333397 
L 69.141384 141.929569 
L 141.900097 141.929569 
L 141.900097 152.333397 
L 69.141384 152.333397 
z
" style="fill:#e1e8e8;stroke:#000000;stroke-linejoin:miter;"/>
   </g>
   <g id="patch_7">
    <path clip-path="url(#p71af37c701)" d="M 137.739282 131.525742 
L 137.739282 121.121914 
L 175.894325 121.121914 
L 175.894325 131.525742 
L 137.739282 131.525742 
z
" style="fill:#e1e8e8;stroke:#000000;stroke-linejoin:miter;"/>
   </g>
   <g id="patch_8">
    <path clip-path="url(#p71af37c701)" d="M 381.754919 110.718086 
L 381.754919 100.314258 
L 422.347943 100.314258 
L 422.347943 110.718086 
L 381.754919 110.718086 
z
" style="fill:#e1e8e8;stroke:#000000;stroke-linejoin:miter;"/>
   </g>
   <g id="patch_9">
    <path clip-path="url(#p71af37c701)" d="M 381.95498 89.910431 
L 381.95498 79.506603 
L 500.52196 79.506603 
L 500.52196 89.910431 
L 381.95498 89.910431 
z
" style="fill:#e1e8e8;stroke:#000000;stroke-linejoin:miter;"/>
   </g>
   <g id="patch_10">
    <path clip-path="url(#p71af37c701)" d="M 416.487951 69.102775 
L 416.487951 58.698947 
L 462.360691 58.698947 
L 462.360691 69.102775 
L 416.487951 69.102775 
z
" style="fill:#e1e8e8;stroke:#000000;stroke-linejoin:miter;"/>
   </g>
   <g id="patch_11">
    <path clip-path="url(#p71af37c701)" d="M 423.266495 48.29512 
L 423.266495 37.891292 
L 468.318259 37.891292 
L 468.318259 48.29512 
L 423.266495 48.29512 
z
" style="fill:#e1e8e8;stroke:#000000;stroke-linejoin:miter;"/>
   </g>
   <g id="patch_12">
    <path clip-path="url(#p71af37c701)" d="M 486.924088 27.487464 
L 486.924088 17.083636 
L 536.897551 17.083636 
L 536.897551 27.487464 
L 486.924088 27.487464 
z
" style="fill:#e1e8e8;stroke:#000000;stroke-linejoin:miter;"/>
   </g>
   <g id="line2d_41">
    <path clip-path="url(#p71af37c701)" d="M 83.548581 214.756364 
L 83.548581 204.352536 
" style="fill:none;stroke:#ff0000;stroke-linecap:square;stroke-width:2;"/>
   </g>
   <g id="line2d_42">
    <path clip-path="url(#p71af37c701)" d="M 111.585431 193.948708 
L 111.585431 183.54488 
" style="fill:none;stroke:#ff0000;stroke-linecap:square;stroke-width:2;"/>
   </g>
   <g id="line2d_43">
    <path clip-path="url(#p71af37c701)" d="M 110.609383 173.141053 
L 110.609383 162.737225 
" style="fill:none;stroke:#ff0000;stroke-linecap:square;stroke-width:2;"/>
   </g>
   <g id="line2d_44">
    <path clip-path="url(#p71af37c701)" d="M 86.379756 152.333397 
L 86.379756 141.929569 
" style="fill:none;stroke:#ff0000;stroke-linecap:square;stroke-width:2;"/>
   </g>
   <g id="line2d_45">
    <path clip-path="url(#p71af37c701)" d="M 158.44877 131.525742 
L 158.44877 121.121914 
" style="fill:none;stroke:#ff0000;stroke-linecap:square;stroke-width:2;"/>
   </g>
   <g id="line2d_46">
    <path clip-path="url(#p71af37c701)" d="M 398.018429 110.718086 
L 398.018429 100.314258 
" style="fill:none;stroke:#ff0000;stroke-linecap:square;stroke-width:2;"/>
   </g>
   <g id="line2d_47">
    <path clip-path="url(#p71af37c701)" d="M 458.985229 89.910431 
L 458.985229 79.506603 
" style="fill:none;stroke:#ff0000;stroke-linecap:square;stroke-width:2;"/>
   </g>
   <g id="line2d_48">
    <path clip-path="url(#p71af37c701)" d="M 437.887089 69.102775 
L 437.887089 58.698947 
" style="fill:none;stroke:#ff0000;stroke-linecap:square;stroke-width:2;"/>
   </g>
   <g id="line2d_49">
    <path clip-path="url(#p71af37c701)" d="M 453.567695 48.29512 
L 453.567695 37.891292 
" style="fill:none;stroke:#ff0000;stroke-linecap:square;stroke-width:2;"/>
   </g>
   <g id="line2d_50">
    <path clip-path="url(#p71af37c701)" d="M 514.619363 27.487464 
L 514.619363 17.083636 
" style="fill:none;stroke:#ff0000;stroke-linecap:square;stroke-width:2;"/>
   </g>
   <g id="matplotlib.axis_1">
    <g id="xtick_1">
     <g id="line2d_51">
      <defs>
       <path d="M 0 0 
L 0 3.5 
" id="m4fd2d1dec8" style="stroke:#000000;stroke-width:0.8;"/>
      </defs>
      <g>
       <use style="stroke:#000000;stroke-width:0.8;" x="54.551114" xlink:href="#m4fd2d1dec8" y="224.64"/>
      </g>
     </g>
     <g id="text_1">
      <!-- 0.18 -->
      <defs>
       <path d="M 31.78125 66.40625 
Q 24.171875 66.40625 20.328125 58.90625 
Q 16.5 51.421875 16.5 36.375 
Q 16.5 21.390625 20.328125 13.890625 
Q 24.171875 6.390625 31.78125 6.390625 
Q 39.453125 6.390625 43.28125 13.890625 
Q 47.125 21.390625 47.125 36.375 
Q 47.125 51.421875 43.28125 58.90625 
Q 39.453125 66.40625 31.78125 66.40625 
z
M 31.78125 74.21875 
Q 44.046875 74.21875 50.515625 64.515625 
Q 56.984375 54.828125 56.984375 36.375 
Q 56.984375 17.96875 50.515625 8.265625 
Q 44.046875 -1.421875 31.78125 -1.421875 
Q 19.53125 -1.421875 13.0625 8.265625 
Q 6.59375 17.96875 6.59375 36.375 
Q 6.59375 54.828125 13.0625 64.515625 
Q 19.53125 74.21875 31.78125 74.21875 
z
" id="DejaVuSans-48"/>
       <path d="M 10.6875 12.40625 
L 21 12.40625 
L 21 0 
L 10.6875 0 
z
" id="DejaVuSans-46"/>
       <path d="M 12.40625 8.296875 
L 28.515625 8.296875 
L 28.515625 63.921875 
L 10.984375 60.40625 
L 10.984375 69.390625 
L 28.421875 72.90625 
L 38.28125 72.90625 
L 38.28125 8.296875 
L 54.390625 8.296875 
L 54.390625 0 
L 12.40625 0 
z
" id="DejaVuSans-49"/>
       <path d="M 31.78125 34.625 
Q 24.75 34.625 20.71875 30.859375 
Q 16.703125 27.09375 16.703125 20.515625 
Q 16.703125 13.921875 20.71875 10.15625 
Q 24.75 6.390625 31.78125 6.390625 
Q 38.8125 6.390625 42.859375 10.171875 
Q 46.921875 13.96875 46.921875 20.515625 
Q 46.921875 27.09375 42.890625 30.859375 
Q 38.875 34.625 31.78125 34.625 
z
M 21.921875 38.8125 
Q 15.578125 40.375 12.03125 44.71875 
Q 8.5 49.078125 8.5 55.328125 
Q 8.5 64.0625 14.71875 69.140625 
Q 20.953125 74.21875 31.78125 74.21875 
Q 42.671875 74.21875 48.875 69.140625 
Q 55.078125 64.0625 55.078125 55.328125 
Q 55.078125 49.078125 51.53125 44.71875 
Q 48 40.375 41.703125 38.8125 
Q 48.828125 37.15625 52.796875 32.3125 
Q 56.78125 27.484375 56.78125 20.515625 
Q 56.78125 9.90625 50.3125 4.234375 
Q 43.84375 -1.421875 31.78125 -1.421875 
Q 19.734375 -1.421875 13.25 4.234375 
Q 6.78125 9.90625 6.78125 20.515625 
Q 6.78125 27.484375 10.78125 32.3125 
Q 14.796875 37.15625 21.921875 38.8125 
z
M 18.3125 54.390625 
Q 18.3125 48.734375 21.84375 45.5625 
Q 25.390625 42.390625 31.78125 42.390625 
Q 38.140625 42.390625 41.71875 45.5625 
Q 45.3125 48.734375 45.3125 54.390625 
Q 45.3125 60.0625 41.71875 63.234375 
Q 38.140625 66.40625 31.78125 66.40625 
Q 25.390625 66.40625 21.84375 63.234375 
Q 18.3125 60.0625 18.3125 54.390625 
z
" id="DejaVuSans-56"/>
      </defs>
      <g transform="translate(41.191739 240.758125)scale(0.12 -0.12)">
       <use xlink:href="#DejaVuSans-48"/>
       <use x="63.623047" xlink:href="#DejaVuSans-46"/>
       <use x="95.410156" xlink:href="#DejaVuSans-49"/>
       <use x="159.033203" xlink:href="#DejaVuSans-56"/>
      </g>
     </g>
    </g>
    <g id="xtick_2">
     <g id="line2d_52">
      <g>
       <use style="stroke:#000000;stroke-width:0.8;" x="117.502636" xlink:href="#m4fd2d1dec8" y="224.64"/>
      </g>
     </g>
     <g id="text_2">
      <!-- 0.20 -->
      <defs>
       <path d="M 19.1875 8.296875 
L 53.609375 8.296875 
L 53.609375 0 
L 7.328125 0 
L 7.328125 8.296875 
Q 12.9375 14.109375 22.625 23.890625 
Q 32.328125 33.6875 34.8125 36.53125 
Q 39.546875 41.84375 41.421875 45.53125 
Q 43.3125 49.21875 43.3125 52.78125 
Q 43.3125 58.59375 39.234375 62.25 
Q 35.15625 65.921875 28.609375 65.921875 
Q 23.96875 65.921875 18.8125 64.3125 
Q 13.671875 62.703125 7.8125 59.421875 
L 7.8125 69.390625 
Q 13.765625 71.78125 18.9375 73 
Q 24.125 74.21875 28.421875 74.21875 
Q 39.75 74.21875 46.484375 68.546875 
Q 53.21875 62.890625 53.21875 53.421875 
Q 53.21875 48.921875 51.53125 44.890625 
Q 49.859375 40.875 45.40625 35.40625 
Q 44.1875 33.984375 37.640625 27.21875 
Q 31.109375 20.453125 19.1875 8.296875 
z
" id="DejaVuSans-50"/>
      </defs>
      <g transform="translate(104.143261 240.758125)scale(0.12 -0.12)">
       <use xlink:href="#DejaVuSans-48"/>
       <use x="63.623047" xlink:href="#DejaVuSans-46"/>
       <use x="95.410156" xlink:href="#DejaVuSans-50"/>
       <use x="159.033203" xlink:href="#DejaVuSans-48"/>
      </g>
     </g>
    </g>
    <g id="xtick_3">
     <g id="line2d_53">
      <g>
       <use style="stroke:#000000;stroke-width:0.8;" x="180.454159" xlink:href="#m4fd2d1dec8" y="224.64"/>
      </g>
     </g>
     <g id="text_3">
      <!-- 0.22 -->
      <g transform="translate(167.094784 240.758125)scale(0.12 -0.12)">
       <use xlink:href="#DejaVuSans-48"/>
       <use x="63.623047" xlink:href="#DejaVuSans-46"/>
       <use x="95.410156" xlink:href="#DejaVuSans-50"/>
       <use x="159.033203" xlink:href="#DejaVuSans-50"/>
      </g>
     </g>
    </g>
    <g id="xtick_4">
     <g id="line2d_54">
      <g>
       <use style="stroke:#000000;stroke-width:0.8;" x="243.405682" xlink:href="#m4fd2d1dec8" y="224.64"/>
      </g>
     </g>
     <g id="text_4">
      <!-- 0.24 -->
      <defs>
       <path d="M 37.796875 64.3125 
L 12.890625 25.390625 
L 37.796875 25.390625 
z
M 35.203125 72.90625 
L 47.609375 72.90625 
L 47.609375 25.390625 
L 58.015625 25.390625 
L 58.015625 17.1875 
L 47.609375 17.1875 
L 47.609375 0 
L 37.796875 0 
L 37.796875 17.1875 
L 4.890625 17.1875 
L 4.890625 26.703125 
z
" id="DejaVuSans-52"/>
      </defs>
      <g transform="translate(230.046307 240.758125)scale(0.12 -0.12)">
       <use xlink:href="#DejaVuSans-48"/>
       <use x="63.623047" xlink:href="#DejaVuSans-46"/>
       <use x="95.410156" xlink:href="#DejaVuSans-50"/>
       <use x="159.033203" xlink:href="#DejaVuSans-52"/>
      </g>
     </g>
    </g>
    <g id="xtick_5">
     <g id="line2d_55">
      <g>
       <use style="stroke:#000000;stroke-width:0.8;" x="306.357205" xlink:href="#m4fd2d1dec8" y="224.64"/>
      </g>
     </g>
     <g id="text_5">
      <!-- 0.26 -->
      <defs>
       <path d="M 33.015625 40.375 
Q 26.375 40.375 22.484375 35.828125 
Q 18.609375 31.296875 18.609375 23.390625 
Q 18.609375 15.53125 22.484375 10.953125 
Q 26.375 6.390625 33.015625 6.390625 
Q 39.65625 6.390625 43.53125 10.953125 
Q 47.40625 15.53125 47.40625 23.390625 
Q 47.40625 31.296875 43.53125 35.828125 
Q 39.65625 40.375 33.015625 40.375 
z
M 52.59375 71.296875 
L 52.59375 62.3125 
Q 48.875 64.0625 45.09375 64.984375 
Q 41.3125 65.921875 37.59375 65.921875 
Q 27.828125 65.921875 22.671875 59.328125 
Q 17.53125 52.734375 16.796875 39.40625 
Q 19.671875 43.65625 24.015625 45.921875 
Q 28.375 48.1875 33.59375 48.1875 
Q 44.578125 48.1875 50.953125 41.515625 
Q 57.328125 34.859375 57.328125 23.390625 
Q 57.328125 12.15625 50.6875 5.359375 
Q 44.046875 -1.421875 33.015625 -1.421875 
Q 20.359375 -1.421875 13.671875 8.265625 
Q 6.984375 17.96875 6.984375 36.375 
Q 6.984375 53.65625 15.1875 63.9375 
Q 23.390625 74.21875 37.203125 74.21875 
Q 40.921875 74.21875 44.703125 73.484375 
Q 48.484375 72.75 52.59375 71.296875 
z
" id="DejaVuSans-54"/>
      </defs>
      <g transform="translate(292.99783 240.758125)scale(0.12 -0.12)">
       <use xlink:href="#DejaVuSans-48"/>
       <use x="63.623047" xlink:href="#DejaVuSans-46"/>
       <use x="95.410156" xlink:href="#DejaVuSans-50"/>
       <use x="159.033203" xlink:href="#DejaVuSans-54"/>
      </g>
     </g>
    </g>
    <g id="xtick_6">
     <g id="line2d_56">
      <g>
       <use style="stroke:#000000;stroke-width:0.8;" x="369.308728" xlink:href="#m4fd2d1dec8" y="224.64"/>
      </g>
     </g>
     <g id="text_6">
      <!-- 0.28 -->
      <g transform="translate(355.949353 240.758125)scale(0.12 -0.12)">
       <use xlink:href="#DejaVuSans-48"/>
       <use x="63.623047" xlink:href="#DejaVuSans-46"/>
       <use x="95.410156" xlink:href="#DejaVuSans-50"/>
       <use x="159.033203" xlink:href="#DejaVuSans-56"/>
      </g>
     </g>
    </g>
    <g id="xtick_7">
     <g id="line2d_57">
      <g>
       <use style="stroke:#000000;stroke-width:0.8;" x="432.260251" xlink:href="#m4fd2d1dec8" y="224.64"/>
      </g>
     </g>
     <g id="text_7">
      <!-- 0.30 -->
      <defs>
       <path d="M 40.578125 39.3125 
Q 47.65625 37.796875 51.625 33 
Q 55.609375 28.21875 55.609375 21.1875 
Q 55.609375 10.40625 48.1875 4.484375 
Q 40.765625 -1.421875 27.09375 -1.421875 
Q 22.515625 -1.421875 17.65625 -0.515625 
Q 12.796875 0.390625 7.625 2.203125 
L 7.625 11.71875 
Q 11.71875 9.328125 16.59375 8.109375 
Q 21.484375 6.890625 26.8125 6.890625 
Q 36.078125 6.890625 40.9375 10.546875 
Q 45.796875 14.203125 45.796875 21.1875 
Q 45.796875 27.640625 41.28125 31.265625 
Q 36.765625 34.90625 28.71875 34.90625 
L 20.21875 34.90625 
L 20.21875 43.015625 
L 29.109375 43.015625 
Q 36.375 43.015625 40.234375 45.921875 
Q 44.09375 48.828125 44.09375 54.296875 
Q 44.09375 59.90625 40.109375 62.90625 
Q 36.140625 65.921875 28.71875 65.921875 
Q 24.65625 65.921875 20.015625 65.03125 
Q 15.375 64.15625 9.8125 62.3125 
L 9.8125 71.09375 
Q 15.4375 72.65625 20.34375 73.4375 
Q 25.25 74.21875 29.59375 74.21875 
Q 40.828125 74.21875 47.359375 69.109375 
Q 53.90625 64.015625 53.90625 55.328125 
Q 53.90625 49.265625 50.4375 45.09375 
Q 46.96875 40.921875 40.578125 39.3125 
z
" id="DejaVuSans-51"/>
      </defs>
      <g transform="translate(418.900876 240.758125)scale(0.12 -0.12)">
       <use xlink:href="#DejaVuSans-48"/>
       <use x="63.623047" xlink:href="#DejaVuSans-46"/>
       <use x="95.410156" xlink:href="#DejaVuSans-51"/>
       <use x="159.033203" xlink:href="#DejaVuSans-48"/>
      </g>
     </g>
    </g>
    <g id="xtick_8">
     <g id="line2d_58">
      <g>
       <use style="stroke:#000000;stroke-width:0.8;" x="495.211773" xlink:href="#m4fd2d1dec8" y="224.64"/>
      </g>
     </g>
     <g id="text_8">
      <!-- 0.32 -->
      <g transform="translate(481.852398 240.758125)scale(0.12 -0.12)">
       <use xlink:href="#DejaVuSans-48"/>
       <use x="63.623047" xlink:href="#DejaVuSans-46"/>
       <use x="95.410156" xlink:href="#DejaVuSans-51"/>
       <use x="159.033203" xlink:href="#DejaVuSans-50"/>
      </g>
     </g>
    </g>
    <g id="xtick_9">
     <g id="line2d_59">
      <g>
       <use style="stroke:#000000;stroke-width:0.8;" x="558.163296" xlink:href="#m4fd2d1dec8" y="224.64"/>
      </g>
     </g>
     <g id="text_9">
      <!-- 0.34 -->
      <g transform="translate(544.803921 240.758125)scale(0.12 -0.12)">
       <use xlink:href="#DejaVuSans-48"/>
       <use x="63.623047" xlink:href="#DejaVuSans-46"/>
       <use x="95.410156" xlink:href="#DejaVuSans-51"/>
       <use x="159.033203" xlink:href="#DejaVuSans-52"/>
      </g>
     </g>
    </g>
    <g id="text_10">
     <!-- time (s) -->
     <defs>
      <path d="M 18.3125 70.21875 
L 18.3125 54.6875 
L 36.8125 54.6875 
L 36.8125 47.703125 
L 18.3125 47.703125 
L 18.3125 18.015625 
Q 18.3125 11.328125 20.140625 9.421875 
Q 21.96875 7.515625 27.59375 7.515625 
L 36.8125 7.515625 
L 36.8125 0 
L 27.59375 0 
Q 17.1875 0 13.234375 3.875 
Q 9.28125 7.765625 9.28125 18.015625 
L 9.28125 47.703125 
L 2.6875 47.703125 
L 2.6875 54.6875 
L 9.28125 54.6875 
L 9.28125 70.21875 
z
" id="DejaVuSans-116"/>
      <path d="M 9.421875 54.6875 
L 18.40625 54.6875 
L 18.40625 0 
L 9.421875 0 
z
M 9.421875 75.984375 
L 18.40625 75.984375 
L 18.40625 64.59375 
L 9.421875 64.59375 
z
" id="DejaVuSans-105"/>
      <path d="M 52 44.1875 
Q 55.375 50.25 60.0625 53.125 
Q 64.75 56 71.09375 56 
Q 79.640625 56 84.28125 50.015625 
Q 88.921875 44.046875 88.921875 33.015625 
L 88.921875 0 
L 79.890625 0 
L 79.890625 32.71875 
Q 79.890625 40.578125 77.09375 44.375 
Q 74.3125 48.1875 68.609375 48.1875 
Q 61.625 48.1875 57.5625 43.546875 
Q 53.515625 38.921875 53.515625 30.90625 
L 53.515625 0 
L 44.484375 0 
L 44.484375 32.71875 
Q 44.484375 40.625 41.703125 44.40625 
Q 38.921875 48.1875 33.109375 48.1875 
Q 26.21875 48.1875 22.15625 43.53125 
Q 18.109375 38.875 18.109375 30.90625 
L 18.109375 0 
L 9.078125 0 
L 9.078125 54.6875 
L 18.109375 54.6875 
L 18.109375 46.1875 
Q 21.1875 51.21875 25.484375 53.609375 
Q 29.78125 56 35.6875 56 
Q 41.65625 56 45.828125 52.96875 
Q 50 49.953125 52 44.1875 
z
" id="DejaVuSans-109"/>
      <path d="M 56.203125 29.59375 
L 56.203125 25.203125 
L 14.890625 25.203125 
Q 15.484375 15.921875 20.484375 11.0625 
Q 25.484375 6.203125 34.421875 6.203125 
Q 39.59375 6.203125 44.453125 7.46875 
Q 49.3125 8.734375 54.109375 11.28125 
L 54.109375 2.78125 
Q 49.265625 0.734375 44.1875 -0.34375 
Q 39.109375 -1.421875 33.890625 -1.421875 
Q 20.796875 -1.421875 13.15625 6.1875 
Q 5.515625 13.8125 5.515625 26.8125 
Q 5.515625 40.234375 12.765625 48.109375 
Q 20.015625 56 32.328125 56 
Q 43.359375 56 49.78125 48.890625 
Q 56.203125 41.796875 56.203125 29.59375 
z
M 47.21875 32.234375 
Q 47.125 39.59375 43.09375 43.984375 
Q 39.0625 48.390625 32.421875 48.390625 
Q 24.90625 48.390625 20.390625 44.140625 
Q 15.875 39.890625 15.1875 32.171875 
z
" id="DejaVuSans-101"/>
      <path id="DejaVuSans-32"/>
      <path d="M 31 75.875 
Q 24.46875 64.65625 21.28125 53.65625 
Q 18.109375 42.671875 18.109375 31.390625 
Q 18.109375 20.125 21.3125 9.0625 
Q 24.515625 -2 31 -13.1875 
L 23.1875 -13.1875 
Q 15.875 -1.703125 12.234375 9.375 
Q 8.59375 20.453125 8.59375 31.390625 
Q 8.59375 42.28125 12.203125 53.3125 
Q 15.828125 64.359375 23.1875 75.875 
z
" id="DejaVuSans-40"/>
      <path d="M 44.28125 53.078125 
L 44.28125 44.578125 
Q 40.484375 46.53125 36.375 47.5 
Q 32.28125 48.484375 27.875 48.484375 
Q 21.1875 48.484375 17.84375 46.4375 
Q 14.5 44.390625 14.5 40.28125 
Q 14.5 37.15625 16.890625 35.375 
Q 19.28125 33.59375 26.515625 31.984375 
L 29.59375 31.296875 
Q 39.15625 29.25 43.1875 25.515625 
Q 47.21875 21.78125 47.21875 15.09375 
Q 47.21875 7.46875 41.1875 3.015625 
Q 35.15625 -1.421875 24.609375 -1.421875 
Q 20.21875 -1.421875 15.453125 -0.5625 
Q 10.6875 0.296875 5.421875 2 
L 5.421875 11.28125 
Q 10.40625 8.6875 15.234375 7.390625 
Q 20.0625 6.109375 24.8125 6.109375 
Q 31.15625 6.109375 34.5625 8.28125 
Q 37.984375 10.453125 37.984375 14.40625 
Q 37.984375 18.0625 35.515625 20.015625 
Q 33.0625 21.96875 24.703125 23.78125 
L 21.578125 24.515625 
Q 13.234375 26.265625 9.515625 29.90625 
Q 5.8125 33.546875 5.8125 39.890625 
Q 5.8125 47.609375 11.28125 51.796875 
Q 16.75 56 26.8125 56 
Q 31.78125 56 36.171875 55.265625 
Q 40.578125 54.546875 44.28125 53.078125 
z
" id="DejaVuSans-115"/>
      <path d="M 8.015625 75.875 
L 15.828125 75.875 
Q 23.140625 64.359375 26.78125 53.3125 
Q 30.421875 42.28125 30.421875 31.390625 
Q 30.421875 20.453125 26.78125 9.375 
Q 23.140625 -1.703125 15.828125 -13.1875 
L 8.015625 -13.1875 
Q 14.5 -2 17.703125 9.0625 
Q 20.90625 20.125 20.90625 31.390625 
Q 20.90625 42.671875 17.703125 53.65625 
Q 14.5 64.65625 8.015625 75.875 
z
" id="DejaVuSans-41"/>
     </defs>
     <g transform="translate(282.269688 256.371875)scale(0.12 -0.12)">
      <use xlink:href="#DejaVuSans-116"/>
      <use x="39.208984" xlink:href="#DejaVuSans-105"/>
      <use x="66.992188" xlink:href="#DejaVuSans-109"/>
      <use x="164.404297" xlink:href="#DejaVuSans-101"/>
      <use x="225.927734" xlink:href="#DejaVuSans-32"/>
      <use x="257.714844" xlink:href="#DejaVuSans-40"/>
      <use x="296.728516" xlink:href="#DejaVuSans-115"/>
      <use x="348.828125" xlink:href="#DejaVuSans-41"/>
     </g>
    </g>
   </g>
   <g id="matplotlib.axis_2">
    <g id="ytick_1">
     <g id="line2d_60">
      <defs>
       <path d="M 0 0 
L -3.5 0 
" id="m4bbde4b715" style="stroke:#000000;stroke-width:0.8;"/>
      </defs>
      <g>
       <use style="stroke:#000000;stroke-width:0.8;" x="26.539375" xlink:href="#m4bbde4b715" y="209.55445"/>
      </g>
     </g>
     <g id="text_11">
      <!-- t1 -->
      <g transform="translate(7.2 214.113512)scale(0.12 -0.12)">
       <use xlink:href="#DejaVuSans-116"/>
       <use x="39.208984" xlink:href="#DejaVuSans-49"/>
      </g>
     </g>
    </g>
    <g id="ytick_2">
     <g id="line2d_61">
      <g>
       <use style="stroke:#000000;stroke-width:0.8;" x="26.539375" xlink:href="#m4bbde4b715" y="188.746794"/>
      </g>
     </g>
     <g id="text_12">
      <!-- t2 -->
      <g transform="translate(7.2 193.305857)scale(0.12 -0.12)">
       <use xlink:href="#DejaVuSans-116"/>
       <use x="39.208984" xlink:href="#DejaVuSans-50"/>
      </g>
     </g>
    </g>
    <g id="ytick_3">
     <g id="line2d_62">
      <g>
       <use style="stroke:#000000;stroke-width:0.8;" x="26.539375" xlink:href="#m4bbde4b715" y="167.939139"/>
      </g>
     </g>
     <g id="text_13">
      <!-- t4 -->
      <g transform="translate(7.2 172.498201)scale(0.12 -0.12)">
       <use xlink:href="#DejaVuSans-116"/>
       <use x="39.208984" xlink:href="#DejaVuSans-52"/>
      </g>
     </g>
    </g>
    <g id="ytick_4">
     <g id="line2d_63">
      <g>
       <use style="stroke:#000000;stroke-width:0.8;" x="26.539375" xlink:href="#m4bbde4b715" y="147.131483"/>
      </g>
     </g>
     <g id="text_14">
      <!-- t3 -->
      <g transform="translate(7.2 151.690546)scale(0.12 -0.12)">
       <use xlink:href="#DejaVuSans-116"/>
       <use x="39.208984" xlink:href="#DejaVuSans-51"/>
      </g>
     </g>
    </g>
    <g id="ytick_5">
     <g id="line2d_64">
      <g>
       <use style="stroke:#000000;stroke-width:0.8;" x="26.539375" xlink:href="#m4bbde4b715" y="126.323828"/>
      </g>
     </g>
     <g id="text_15">
      <!-- t0 -->
      <g transform="translate(7.2 130.88289)scale(0.12 -0.12)">
       <use xlink:href="#DejaVuSans-116"/>
       <use x="39.208984" xlink:href="#DejaVuSans-48"/>
      </g>
     </g>
    </g>
    <g id="ytick_6">
     <g id="line2d_65">
      <g>
       <use style="stroke:#000000;stroke-width:0.8;" x="26.539375" xlink:href="#m4bbde4b715" y="105.516172"/>
      </g>
     </g>
     <g id="text_16">
      <!-- t8 -->
      <g transform="translate(7.2 110.075235)scale(0.12 -0.12)">
       <use xlink:href="#DejaVuSans-116"/>
       <use x="39.208984" xlink:href="#DejaVuSans-56"/>
      </g>
     </g>
    </g>
    <g id="ytick_7">
     <g id="line2d_66">
      <g>
       <use style="stroke:#000000;stroke-width:0.8;" x="26.539375" xlink:href="#m4bbde4b715" y="84.708517"/>
      </g>
     </g>
     <g id="text_17">
      <!-- t5 -->
      <defs>
       <path d="M 10.796875 72.90625 
L 49.515625 72.90625 
L 49.515625 64.59375 
L 19.828125 64.59375 
L 19.828125 46.734375 
Q 21.96875 47.46875 24.109375 47.828125 
Q 26.265625 48.1875 28.421875 48.1875 
Q 40.625 48.1875 47.75 41.5 
Q 54.890625 34.8125 54.890625 23.390625 
Q 54.890625 11.625 47.5625 5.09375 
Q 40.234375 -1.421875 26.90625 -1.421875 
Q 22.3125 -1.421875 17.546875 -0.640625 
Q 12.796875 0.140625 7.71875 1.703125 
L 7.71875 11.625 
Q 12.109375 9.234375 16.796875 8.0625 
Q 21.484375 6.890625 26.703125 6.890625 
Q 35.15625 6.890625 40.078125 11.328125 
Q 45.015625 15.765625 45.015625 23.390625 
Q 45.015625 31 40.078125 35.4375 
Q 35.15625 39.890625 26.703125 39.890625 
Q 22.75 39.890625 18.8125 39.015625 
Q 14.890625 38.140625 10.796875 36.28125 
z
" id="DejaVuSans-53"/>
      </defs>
      <g transform="translate(7.2 89.267579)scale(0.12 -0.12)">
       <use xlink:href="#DejaVuSans-116"/>
       <use x="39.208984" xlink:href="#DejaVuSans-53"/>
      </g>
     </g>
    </g>
    <g id="ytick_8">
     <g id="line2d_67">
      <g>
       <use style="stroke:#000000;stroke-width:0.8;" x="26.539375" xlink:href="#m4bbde4b715" y="63.900861"/>
      </g>
     </g>
     <g id="text_18">
      <!-- t9 -->
      <defs>
       <path d="M 10.984375 1.515625 
L 10.984375 10.5 
Q 14.703125 8.734375 18.5 7.8125 
Q 22.3125 6.890625 25.984375 6.890625 
Q 35.75 6.890625 40.890625 13.453125 
Q 46.046875 20.015625 46.78125 33.40625 
Q 43.953125 29.203125 39.59375 26.953125 
Q 35.25 24.703125 29.984375 24.703125 
Q 19.046875 24.703125 12.671875 31.3125 
Q 6.296875 37.9375 6.296875 49.421875 
Q 6.296875 60.640625 12.9375 67.421875 
Q 19.578125 74.21875 30.609375 74.21875 
Q 43.265625 74.21875 49.921875 64.515625 
Q 56.59375 54.828125 56.59375 36.375 
Q 56.59375 19.140625 48.40625 8.859375 
Q 40.234375 -1.421875 26.421875 -1.421875 
Q 22.703125 -1.421875 18.890625 -0.6875 
Q 15.09375 0.046875 10.984375 1.515625 
z
M 30.609375 32.421875 
Q 37.25 32.421875 41.125 36.953125 
Q 45.015625 41.5 45.015625 49.421875 
Q 45.015625 57.28125 41.125 61.84375 
Q 37.25 66.40625 30.609375 66.40625 
Q 23.96875 66.40625 20.09375 61.84375 
Q 16.21875 57.28125 16.21875 49.421875 
Q 16.21875 41.5 20.09375 36.953125 
Q 23.96875 32.421875 30.609375 32.421875 
z
" id="DejaVuSans-57"/>
      </defs>
      <g transform="translate(7.2 68.459924)scale(0.12 -0.12)">
       <use xlink:href="#DejaVuSans-116"/>
       <use x="39.208984" xlink:href="#DejaVuSans-57"/>
      </g>
     </g>
    </g>
    <g id="ytick_9">
     <g id="line2d_68">
      <g>
       <use style="stroke:#000000;stroke-width:0.8;" x="26.539375" xlink:href="#m4bbde4b715" y="43.093206"/>
      </g>
     </g>
     <g id="text_19">
      <!-- t7 -->
      <defs>
       <path d="M 8.203125 72.90625 
L 55.078125 72.90625 
L 55.078125 68.703125 
L 28.609375 0 
L 18.3125 0 
L 43.21875 64.59375 
L 8.203125 64.59375 
z
" id="DejaVuSans-55"/>
      </defs>
      <g transform="translate(7.2 47.652268)scale(0.12 -0.12)">
       <use xlink:href="#DejaVuSans-116"/>
       <use x="39.208984" xlink:href="#DejaVuSans-55"/>
      </g>
     </g>
    </g>
    <g id="ytick_10">
     <g id="line2d_69">
      <g>
       <use style="stroke:#000000;stroke-width:0.8;" x="26.539375" xlink:href="#m4bbde4b715" y="22.28555"/>
      </g>
     </g>
     <g id="text_20">
      <!-- t6 -->
      <g transform="translate(7.2 26.844613)scale(0.12 -0.12)">
       <use xlink:href="#DejaVuSans-116"/>
       <use x="39.208984" xlink:href="#DejaVuSans-54"/>
      </g>
     </g>
    </g>
   </g>
   <g id="patch_13">
    <path d="M 26.539375 224.64 
L 26.539375 7.2 
" style="fill:none;stroke:#000000;stroke-linecap:square;stroke-linejoin:miter;stroke-width:0.8;"/>
   </g>
   <g id="patch_14">
    <path d="M 584.539375 224.64 
L 584.539375 7.2 
" style="fill:none;stroke:#000000;stroke-linecap:square;stroke-linejoin:miter;stroke-width:0.8;"/>
   </g>
   <g id="patch_15">
    <path d="M 26.539375 224.64 
L 584.539375 224.64 
" style="fill:none;stroke:#000000;stroke-linecap:square;stroke-linejoin:miter;stroke-width:0.8;"/>
   </g>
   <g id="patch_16">
    <path d="M 26.539375 7.2 
L 584.539375 7.2 
" style="fill:none;stroke:#000000;stroke-linecap:square;stroke-linejoin:miter;stroke-width:0.8;"/>
   </g>
   <g id="line2d_70">
    <defs>
     <path d="M 0 1.5 
C 0.397805 1.5 0.77937 1.341951 1.06066 1.06066 
C 1.341951 0.77937 1.5 0.397805 1.5 0 
C 1.5 -0.397805 1.341951 -0.77937 1.06066 -1.06066 
C 0.77937 -1.341951 0.397805 -1.5 0 -1.5 
C -0.397805 -1.5 -0.77937 -1.341951 -1.06066 -1.06066 
C -1.341951 -0.77937 -1.5 -0.397805 -1.5 0 
C -1.5 0.397805 -1.341951 0.77937 -1.06066 1.06066 
C -0.77937 1.341951 -0.397805 1.5 0 1.5 
z
" id="md09d38b4f3" style="stroke:#0000ff;stroke-opacity:0.9;"/>
    </defs>
    <g clip-path="url(#p71af37c701)">
     <use style="fill:#0000ff;fill-opacity:0.9;stroke:#0000ff;stroke-opacity:0.9;" x="69.466705" xlink:href="#md09d38b4f3" y="209.55445"/>
     <use style="fill:#0000ff;fill-opacity:0.9;stroke:#0000ff;stroke-opacity:0.9;" x="111.585431" xlink:href="#md09d38b4f3" y="188.746794"/>
     <use style="fill:#0000ff;fill-opacity:0.9;stroke:#0000ff;stroke-opacity:0.9;" x="99.249569" xlink:href="#md09d38b4f3" y="167.939139"/>
     <use style="fill:#0000ff;fill-opacity:0.9;stroke:#0000ff;stroke-opacity:0.9;" x="51.903011" xlink:href="#md09d38b4f3" y="147.131483"/>
     <use style="fill:#0000ff;fill-opacity:0.9;stroke:#0000ff;stroke-opacity:0.9;" x="117.029795" xlink:href="#md09d38b4f3" y="126.323828"/>
     <use style="fill:#0000ff;fill-opacity:0.9;stroke:#0000ff;stroke-opacity:0.9;" x="365.491409" xlink:href="#md09d38b4f3" y="105.516172"/>
     <use style="fill:#0000ff;fill-opacity:0.9;stroke:#0000ff;stroke-opacity:0.9;" x="304.924731" xlink:href="#md09d38b4f3" y="84.708517"/>
     <use style="fill:#0000ff;fill-opacity:0.9;stroke:#0000ff;stroke-opacity:0.9;" x="437.887089" xlink:href="#md09d38b4f3" y="63.900861"/>
     <use style="fill:#0000ff;fill-opacity:0.9;stroke:#0000ff;stroke-opacity:0.9;" x="453.567695" xlink:href="#md09d38b4f3" y="43.093206"/>
     <use style="fill:#0000ff;fill-opacity:0.9;stroke:#0000ff;stroke-opacity:0.9;" x="559.175739" xlink:href="#md09d38b4f3" y="22.28555"/>
    </g>
   </g>
   <g id="line2d_71">
    <g clip-path="url(#p71af37c701)">
     <use style="fill:#0000ff;fill-opacity:0.9;stroke:#0000ff;stroke-opacity:0.9;" x="83.548581" xlink:href="#md09d38b4f3" y="209.55445"/>
     <use style="fill:#0000ff;fill-opacity:0.9;stroke:#0000ff;stroke-opacity:0.9;" x="83.689219" xlink:href="#md09d38b4f3" y="188.746794"/>
     <use style="fill:#0000ff;fill-opacity:0.9;stroke:#0000ff;stroke-opacity:0.9;" x="110.609383" xlink:href="#md09d38b4f3" y="167.939139"/>
     <use style="fill:#0000ff;fill-opacity:0.9;stroke:#0000ff;stroke-opacity:0.9;" x="86.379756" xlink:href="#md09d38b4f3" y="147.131483"/>
     <use style="fill:#0000ff;fill-opacity:0.9;stroke:#0000ff;stroke-opacity:0.9;" x="193.339881" xlink:href="#md09d38b4f3" y="126.323828"/>
     <use style="fill:#0000ff;fill-opacity:0.9;stroke:#0000ff;stroke-opacity:0.9;" x="446.677457" xlink:href="#md09d38b4f3" y="105.516172"/>
     <use style="fill:#0000ff;fill-opacity:0.9;stroke:#0000ff;stroke-opacity:0.9;" x="542.058692" xlink:href="#md09d38b4f3" y="84.708517"/>
     <use style="fill:#0000ff;fill-opacity:0.9;stroke:#0000ff;stroke-opacity:0.9;" x="395.088813" xlink:href="#md09d38b4f3" y="63.900861"/>
     <use style="fill:#0000ff;fill-opacity:0.9;stroke:#0000ff;stroke-opacity:0.9;" x="392.965295" xlink:href="#md09d38b4f3" y="43.093206"/>
     <use style="fill:#0000ff;fill-opacity:0.9;stroke:#0000ff;stroke-opacity:0.9;" x="514.619363" xlink:href="#md09d38b4f3" y="22.28555"/>
    </g>
   </g>
   <g id="line2d_72">
    <g clip-path="url(#p71af37c701)">
     <use style="fill:#0000ff;fill-opacity:0.9;stroke:#0000ff;stroke-opacity:0.9;" x="127.528617" xlink:href="#md09d38b4f3" y="209.55445"/>
     <use style="fill:#0000ff;fill-opacity:0.9;stroke:#0000ff;stroke-opacity:0.9;" x="124.400342" xlink:href="#md09d38b4f3" y="188.746794"/>
     <use style="fill:#0000ff;fill-opacity:0.9;stroke:#0000ff;stroke-opacity:0.9;" x="151.551071" xlink:href="#md09d38b4f3" y="167.939139"/>
     <use style="fill:#0000ff;fill-opacity:0.9;stroke:#0000ff;stroke-opacity:0.9;" x="197.420437" xlink:href="#md09d38b4f3" y="147.131483"/>
     <use style="fill:#0000ff;fill-opacity:0.9;stroke:#0000ff;stroke-opacity:0.9;" x="158.44877" xlink:href="#md09d38b4f3" y="126.323828"/>
     <use style="fill:#0000ff;fill-opacity:0.9;stroke:#0000ff;stroke-opacity:0.9;" x="398.018429" xlink:href="#md09d38b4f3" y="105.516172"/>
     <use style="fill:#0000ff;fill-opacity:0.9;stroke:#0000ff;stroke-opacity:0.9;" x="458.985229" xlink:href="#md09d38b4f3" y="84.708517"/>
     <use style="fill:#0000ff;fill-opacity:0.9;stroke:#0000ff;stroke-opacity:0.9;" x="486.834293" xlink:href="#md09d38b4f3" y="63.900861"/>
     <use style="fill:#0000ff;fill-opacity:0.9;stroke:#0000ff;stroke-opacity:0.9;" x="483.068822" xlink:href="#md09d38b4f3" y="43.093206"/>
     <use style="fill:#0000ff;fill-opacity:0.9;stroke:#0000ff;stroke-opacity:0.9;" x="459.228814" xlink:href="#md09d38b4f3" y="22.28555"/>
    </g>
   </g>
  </g>
 </g>
 <defs>
  <clipPath id="p71af37c701">
   <rect height="217.44" width="558" x="26.539375" y="7.2"/>
  </clipPath>
 </defs>
</svg>
