<?xml version="1.0" encoding="UTF-8" standalone="no"?>
<!DOCTYPE svg PUBLIC "-//W3C//DTD SVG 1.1//EN"
 "http://www.w3.org/Graphics/SVG/1.1/DTD/svg11.dtd">
<!-- Generated by graphviz version 2.43.0 (0)
 -->
<!-- Title: %3 Pages: 1 -->
<svg width="571pt" height="380pt"
 viewBox="0.00 0.00 570.94 379.68" xmlns="http://www.w3.org/2000/svg" xmlns:xlink="http://www.w3.org/1999/xlink">
<g id="graph0" class="graph" transform="scale(1 1) rotate(0) translate(4 375.68)">
<title>%3</title>
<polygon fill="white" stroke="transparent" points="-4,4 -4,-375.68 566.94,-375.68 566.94,4 -4,4"/>
<!-- 80723543489753926 -->
<g id="node1" class="node">
<title>80723543489753926</title>
<polygon fill="#ffffff" stroke="black" points="61.73,-200.23 4.73,-200.23 4.73,-164.23 61.73,-164.23 61.73,-200.23"/>
<text text-anchor="middle" x="33.23" y="-179.13" font-family="Times,serif" font-size="12.00">gemm </text>
</g>
<!-- 7972591425974666822 -->
<g id="node2" class="node">
<title>7972591425974666822</title>
<polygon fill="#ffffff" stroke="black" points="169.47,-243.23 115.47,-243.23 115.47,-207.23 169.47,-207.23 169.47,-243.23"/>
<text text-anchor="middle" x="142.47" y="-222.13" font-family="Times,serif" font-size="12.00">gemv </text>
</g>
<!-- 80723543489753926&#45;&gt;7972591425974666822 -->
<g id="edge1" class="edge">
<title>80723543489753926&#45;&gt;7972591425974666822</title>
<path fill="none" stroke="#3b823b" d="M61.85,-193.31C75.26,-198.69 91.54,-205.21 105.87,-210.96"/>
<polygon fill="#3b823b" stroke="#3b823b" points="104.84,-214.32 115.42,-214.79 107.44,-207.82 104.84,-214.32"/>
</g>
<!-- 5620331830981784949 -->
<g id="node3" class="node">
<title>5620331830981784949</title>
<polygon fill="#ffffff" stroke="black" points="272.47,-112.23 218.47,-112.23 218.47,-76.23 272.47,-76.23 272.47,-112.23"/>
<text text-anchor="middle" x="245.47" y="-91.13" font-family="Times,serif" font-size="12.00">potrf </text>
</g>
<!-- 80723543489753926&#45;&gt;5620331830981784949 -->
<g id="edge2" class="edge">
<title>80723543489753926&#45;&gt;5620331830981784949</title>
<path fill="none" stroke="black" stroke-width="1.2" d="M51.42,-164.23C64.33,-151.74 83.05,-135.72 102.47,-126.23 136.14,-109.78 178.45,-101.65 208.09,-97.73"/>
<polygon fill="black" stroke="black" stroke-width="1.2" points="208.9,-101.15 218.4,-96.46 208.05,-94.2 208.9,-101.15"/>
</g>
<!-- 7972591425974666822&#45;&gt;5620331830981784949 -->
<g id="edge3" class="edge">
<title>7972591425974666822&#45;&gt;5620331830981784949</title>
<path fill="none" stroke="#3b823b" stroke-width="1.2" d="M154.09,-207.12C169.53,-184.53 198.65,-146.24 219.67,-120.5"/>
<polygon fill="#3b823b" stroke="#3b823b" stroke-width="1.2" points="222.51,-122.55 226.18,-112.62 217.11,-118.1 222.51,-122.55"/>
</g>
<!-- 5064484275830371531 -->
<g id="node4" class="node">
<title>5064484275830371531</title>
<polygon fill="#f0b4b6" stroke="black" points="272.47,-336.23 218.47,-336.23 218.47,-300.23 272.47,-300.23 272.47,-336.23"/>
<text text-anchor="middle" x="245.47" y="-315.13" font-family="Times,serif" font-size="12.00">qr </text>
</g>
<!-- 7972591425974666822&#45;&gt;5064484275830371531 -->
<g id="edge4" class="edge">
<title>7972591425974666822&#45;&gt;5064484275830371531</title>
<path fill="none" stroke="red" d="M169.48,-243.2C186.05,-257.34 207.27,-276.99 222.91,-292.73"/>
<polygon fill="red" stroke="red" points="220.6,-295.38 230.09,-300.11 225.62,-290.5 220.6,-295.38"/>
</g>
<!-- &#45;3289485541418099939 -->
<g id="node5" class="node">
<title>&#45;3289485541418099939</title>
<polygon fill="#ffffff" stroke="black" points="452.47,-223.23 398.47,-223.23 398.47,-187.23 452.47,-187.23 452.47,-223.23"/>
<text text-anchor="middle" x="425.47" y="-202.13" font-family="Times,serif" font-size="12.00">trsv </text>
</g>
<!-- 7972591425974666822&#45;&gt;&#45;3289485541418099939 -->
<g id="edge5" class="edge">
<title>7972591425974666822&#45;&gt;&#45;3289485541418099939</title>
<path fill="none" stroke="black" stroke-width="2" d="M169.65,-219.24C220.06,-212.36 330.67,-204.3 388.16,-203.11"/>
<polygon fill="black" stroke="black" stroke-width="2" points="388.3,-206.61 398.25,-202.97 388.2,-199.61 388.3,-206.61"/>
</g>
<!-- @@endnode -->
<g id="node6" class="node">
<title>@@endnode</title>
<ellipse fill="none" stroke="black" cx="525.7" cy="-311.23" rx="33.44" ry="33.44"/>
<ellipse fill="none" stroke="black" cx="525.7" cy="-311.23" rx="37.47" ry="37.47"/>
<text text-anchor="start" x="510.2" y="-303.13" font-family="Times,serif" font-size="32.00">â– </text>
</g>
<!-- 7972591425974666822&#45;&gt;@@endnode -->
<g id="edge6" class="edge">
<title>7972591425974666822&#45;&gt;@@endnode</title>
<path fill="none" stroke="red" d="M164.88,-243.24C171.08,-249.17 177.51,-256.09 182.47,-263.23 205.14,-295.95 185.14,-323.47 218.47,-345.23 299.83,-398.37 419.94,-358.97 482.83,-331.61"/>
<polygon fill="red" stroke="red" points="484.33,-334.77 492.04,-327.5 481.49,-328.37 484.33,-334.77"/>
</g>
<!-- 5620331830981784949&#45;&gt;7972591425974666822 -->
<g id="edge7" class="edge">
<title>5620331830981784949&#45;&gt;7972591425974666822</title>
<path fill="none" stroke="black" stroke-width="1.4" d="M233.71,-112.55C218.17,-135.26 188.99,-173.61 168.02,-199.28"/>
<polygon fill="black" stroke="black" stroke-width="1.4" points="165.2,-197.19 161.52,-207.13 170.59,-201.65 165.2,-197.19"/>
</g>
<!-- 5620331830981784949&#45;&gt;&#45;3289485541418099939 -->
<g id="edge9" class="edge">
<title>5620331830981784949&#45;&gt;&#45;3289485541418099939</title>
<path fill="none" stroke="black" stroke-width="2.6" d="M272.86,-96.43C297.75,-99.57 335.21,-107.13 362.47,-125.23 382.66,-138.65 399.09,-160.83 409.96,-178.45"/>
<polygon fill="black" stroke="black" stroke-width="2.6" points="407.01,-180.35 415.12,-187.17 413.04,-176.78 407.01,-180.35"/>
</g>
<!-- 8859989923653372602 -->
<g id="node7" class="node">
<title>8859989923653372602</title>
<polygon fill="#ffffff" stroke="black" points="362.47,-170.23 308.47,-170.23 308.47,-134.23 362.47,-134.23 362.47,-170.23"/>
<text text-anchor="middle" x="335.47" y="-149.13" font-family="Times,serif" font-size="12.00">trsm </text>
</g>
<!-- 5620331830981784949&#45;&gt;8859989923653372602 -->
<g id="edge8" class="edge">
<title>5620331830981784949&#45;&gt;8859989923653372602</title>
<path fill="none" stroke="black" stroke-width="2.2" d="M272.87,-111.64C281.39,-117.25 290.96,-123.56 299.97,-129.5"/>
<polygon fill="black" stroke="black" stroke-width="2.2" points="298.11,-132.46 308.39,-135.04 301.96,-126.62 298.11,-132.46"/>
</g>
<!-- 5064484275830371531&#45;&gt;7972591425974666822 -->
<g id="edge10" class="edge">
<title>5064484275830371531&#45;&gt;7972591425974666822</title>
<path fill="none" stroke="red" d="M218.29,-300.13C201.77,-286.02 180.67,-266.48 165.1,-250.8"/>
<polygon fill="red" stroke="red" points="167.42,-248.18 157.94,-243.46 162.41,-253.06 167.42,-248.18"/>
</g>
<!-- &#45;3289485541418099939&#45;&gt;80723543489753926 -->
<g id="edge19" class="edge">
<title>&#45;3289485541418099939&#45;&gt;80723543489753926</title>
<path fill="none" stroke="black" stroke-width="1.2" d="M412.94,-223.51C383.49,-267.69 301.9,-374.55 218.47,-345.23 145.05,-319.44 82.81,-247.78 53.03,-208.62"/>
<polygon fill="black" stroke="black" stroke-width="1.2" points="55.62,-206.25 46.84,-200.33 50.01,-210.43 55.62,-206.25"/>
</g>
<!-- &#45;3289485541418099939&#45;&gt;7972591425974666822 -->
<g id="edge20" class="edge">
<title>&#45;3289485541418099939&#45;&gt;7972591425974666822</title>
<path fill="none" stroke="red" d="M398.25,-211.23C347.81,-218.11 237.2,-226.17 179.74,-227.36"/>
<polygon fill="red" stroke="red" points="179.6,-223.86 169.65,-227.5 179.7,-230.86 179.6,-223.86"/>
</g>
<!-- &#45;3289485541418099939&#45;&gt;&#45;3289485541418099939 -->
<g id="edge23" class="edge">
<title>&#45;3289485541418099939&#45;&gt;&#45;3289485541418099939</title>
<path fill="none" stroke="black" stroke-width="2.4" d="M409.19,-223.39C406.68,-232.77 412.11,-241.23 425.47,-241.23 433.61,-241.23 438.8,-238.09 441.05,-233.51"/>
<polygon fill="black" stroke="black" stroke-width="2.4" points="444.56,-233.6 441.75,-223.39 437.57,-233.12 444.56,-233.6"/>
</g>
<!-- &#45;3289485541418099939&#45;&gt;@@endnode -->
<g id="edge24" class="edge">
<title>&#45;3289485541418099939&#45;&gt;@@endnode</title>
<path fill="none" stroke="black" d="M443.58,-223.7C457.14,-238.33 476.47,-259.19 492.86,-276.88"/>
<polygon fill="black" stroke="black" points="490.32,-279.28 499.68,-284.24 495.45,-274.52 490.32,-279.28"/>
</g>
<!-- &#45;3289485541418099939&#45;&gt;8859989923653372602 -->
<g id="edge22" class="edge">
<title>&#45;3289485541418099939&#45;&gt;8859989923653372602</title>
<path fill="none" stroke="black" stroke-width="2.2" d="M398.15,-195.63C387.83,-190.04 375.94,-182.92 365.38,-176.03"/>
<polygon fill="black" stroke="black" stroke-width="2.2" points="367.13,-172.99 356.88,-170.33 363.23,-178.81 367.13,-172.99"/>
</g>
<!-- 6201980092007588715 -->
<g id="node8" class="node">
<title>6201980092007588715</title>
<polygon fill="#ffffff" stroke="black" points="552.7,-198.23 498.7,-198.23 498.7,-162.23 552.7,-162.23 552.7,-198.23"/>
<text text-anchor="middle" x="525.7" y="-177.13" font-family="Times,serif" font-size="12.00">syrk </text>
</g>
<!-- &#45;3289485541418099939&#45;&gt;6201980092007588715 -->
<g id="edge21" class="edge">
<title>&#45;3289485541418099939&#45;&gt;6201980092007588715</title>
<path fill="none" stroke="#3b823b" d="M452.54,-198.6C463.64,-195.77 476.77,-192.43 488.77,-189.38"/>
<polygon fill="#3b823b" stroke="#3b823b" points="489.69,-192.76 498.51,-186.9 487.96,-185.97 489.69,-192.76"/>
</g>
<!-- 8859989923653372602&#45;&gt;80723543489753926 -->
<g id="edge14" class="edge">
<title>8859989923653372602&#45;&gt;80723543489753926</title>
<path fill="none" stroke="#3b823b" d="M308.12,-154.87C254.77,-160.2 133.8,-172.29 72.04,-178.46"/>
<polygon fill="#3b823b" stroke="#3b823b" points="71.54,-174.99 61.94,-179.47 72.24,-181.95 71.54,-174.99"/>
</g>
<!-- 8859989923653372602&#45;&gt;7972591425974666822 -->
<g id="edge15" class="edge">
<title>8859989923653372602&#45;&gt;7972591425974666822</title>
<path fill="none" stroke="red" stroke-width="1.4" d="M308.32,-162.23C274.84,-175.02 216.69,-197.25 179.16,-211.59"/>
<polygon fill="red" stroke="red" stroke-width="1.4" points="177.72,-208.4 169.63,-215.24 180.22,-214.94 177.72,-208.4"/>
</g>
<!-- 8859989923653372602&#45;&gt;&#45;3289485541418099939 -->
<g id="edge18" class="edge">
<title>8859989923653372602&#45;&gt;&#45;3289485541418099939</title>
<path fill="none" stroke="black" stroke-width="1.6" d="M362.87,-161.89C373.15,-167.46 384.97,-174.53 395.49,-181.39"/>
<polygon fill="black" stroke="black" stroke-width="1.6" points="393.7,-184.41 403.96,-187.07 397.6,-178.6 393.7,-184.41"/>
</g>
<!-- 8859989923653372602&#45;&gt;8859989923653372602 -->
<g id="edge17" class="edge">
<title>8859989923653372602&#45;&gt;8859989923653372602</title>
<path fill="none" stroke="red" stroke-width="1.2" d="M319.19,-170.39C316.68,-179.77 322.11,-188.23 335.47,-188.23 343.61,-188.23 348.8,-185.09 351.05,-180.51"/>
<polygon fill="red" stroke="red" stroke-width="1.2" points="354.56,-180.6 351.75,-170.39 347.57,-180.12 354.56,-180.6"/>
</g>
<!-- 8859989923653372602&#45;&gt;6201980092007588715 -->
<g id="edge16" class="edge">
<title>8859989923653372602&#45;&gt;6201980092007588715</title>
<path fill="none" stroke="black" stroke-width="2" d="M362.64,-156.13C395.28,-160.98 451.26,-169.31 488.13,-174.79"/>
<polygon fill="black" stroke="black" stroke-width="2" points="488.04,-178.32 498.45,-176.33 489.07,-171.4 488.04,-178.32"/>
</g>
<!-- 6201980092007588715&#45;&gt;7972591425974666822 -->
<g id="edge11" class="edge">
<title>6201980092007588715&#45;&gt;7972591425974666822</title>
<path fill="none" stroke="black" stroke-width="1.2" d="M512.53,-198.28C499.84,-215.33 478.2,-239.81 452.47,-250.23 359.57,-287.86 238.31,-257.52 179.11,-238.18"/>
<polygon fill="black" stroke="black" stroke-width="1.2" points="180.08,-234.81 169.48,-234.95 177.85,-241.45 180.08,-234.81"/>
</g>
<!-- 6201980092007588715&#45;&gt;5620331830981784949 -->
<g id="edge12" class="edge">
<title>6201980092007588715&#45;&gt;5620331830981784949</title>
<path fill="none" stroke="black" stroke-width="1.8" d="M498.58,-162.5C467.64,-142.61 413.82,-111.41 362.47,-98.23 336.4,-91.54 305.96,-90.75 282.81,-91.51"/>
<polygon fill="black" stroke="black" stroke-width="1.8" points="282.56,-88.02 272.72,-91.96 282.87,-95.01 282.56,-88.02"/>
</g>
<!-- 9024796108357430264 -->
<g id="node9" class="node">
<title>9024796108357430264</title>
<polygon fill="#f0b4b6" stroke="black" points="182.47,-74.23 102.47,-74.23 102.47,-38.23 182.47,-38.23 182.47,-74.23"/>
<text text-anchor="middle" x="142.47" y="-53.13" font-family="Times,serif" font-size="12.00">transpose </text>
</g>
<!-- 9024796108357430264&#45;&gt;5620331830981784949 -->
<g id="edge13" class="edge">
<title>9024796108357430264&#45;&gt;5620331830981784949</title>
<path fill="none" stroke="red" stroke-width="1.6" d="M182.52,-70.93C191.14,-74.17 200.22,-77.59 208.7,-80.78"/>
<polygon fill="red" stroke="red" stroke-width="1.6" points="207.72,-84.15 218.31,-84.39 210.19,-77.6 207.72,-84.15"/>
</g>
<!-- @@startnode -->
<g id="node10" class="node">
<title>@@startnode</title>
<ellipse fill="none" stroke="black" cx="33.23" cy="-33.23" rx="33.47" ry="33.47"/>
<text text-anchor="start" x="17.73" y="-24.53" font-family="Times,serif" font-size="34.00">â—</text>
</g>
<!-- @@startnode&#45;&gt;5620331830981784949 -->
<g id="edge25" class="edge">
<title>@@startnode&#45;&gt;5620331830981784949</title>
<path fill="none" stroke="black" d="M65.45,-25.07C96.47,-18.6 144.72,-13.07 182.47,-29.23 200.92,-37.14 216.5,-53.53 227.42,-67.87"/>
<polygon fill="black" stroke="black" points="224.6,-69.95 233.3,-76 230.27,-65.85 224.6,-69.95"/>
</g>
<!-- @@startnode&#45;&gt;9024796108357430264 -->
<g id="edge26" class="edge">
<title>@@startnode&#45;&gt;9024796108357430264</title>
<path fill="none" stroke="red" d="M65.83,-40.01C74.09,-41.78 83.19,-43.73 92.13,-45.65"/>
<polygon fill="red" stroke="red" points="91.6,-49.12 102.11,-47.79 93.07,-42.27 91.6,-49.12"/>
</g>
</g>
</svg>
