<?xml version="1.0" encoding="UTF-8" standalone="no"?>
<!DOCTYPE svg PUBLIC "-//W3C//DTD SVG 1.1//EN"
 "http://www.w3.org/Graphics/SVG/1.1/DTD/svg11.dtd">
<!-- Generated by graphviz version 2.43.0 (0)
 -->
<!-- Title: %3 Pages: 1 -->
<svg width="963pt" height="404pt"
 viewBox="0.00 0.00 962.60 404.00" xmlns="http://www.w3.org/2000/svg" xmlns:xlink="http://www.w3.org/1999/xlink">
<g id="graph0" class="graph" transform="scale(1 1) rotate(0) translate(4 400)">
<title>%3</title>
<polygon fill="white" stroke="transparent" points="-4,4 -4,-400 958.6,-400 958.6,4 -4,4"/>
<!-- 48 -->
<g id="node1" class="node">
<title>48</title>
<ellipse fill="#f0efed" stroke="#f0efed" cx="554.6" cy="-18" rx="27" ry="18"/>
<text text-anchor="middle" x="554.6" y="-14.3" font-family="Times,serif" font-size="14.00">48</text>
</g>
<!-- 77 -->
<g id="node2" class="node">
<title>77</title>
<ellipse fill="#f0efed" stroke="#f0efed" cx="927.6" cy="-234" rx="27" ry="18"/>
<text text-anchor="middle" x="927.6" y="-230.3" font-family="Times,serif" font-size="14.00">77</text>
</g>
<!-- 106 -->
<g id="node3" class="node">
<title>106</title>
<ellipse fill="#f0efed" stroke="#f0efed" cx="703.6" cy="-162" rx="28.7" ry="18"/>
<text text-anchor="middle" x="703.6" y="-158.3" font-family="Times,serif" font-size="14.00">106</text>
</g>
<!-- 117 -->
<g id="node4" class="node">
<title>117</title>
<ellipse fill="#f0efed" stroke="#f0efed" cx="628.6" cy="-18" rx="28.7" ry="18"/>
<text text-anchor="middle" x="628.6" y="-14.3" font-family="Times,serif" font-size="14.00">117</text>
</g>
<!-- 126 -->
<g id="node5" class="node">
<title>126</title>
<ellipse fill="#f0efed" stroke="#f0efed" cx="778.6" cy="-234" rx="28.7" ry="18"/>
<text text-anchor="middle" x="778.6" y="-230.3" font-family="Times,serif" font-size="14.00">126</text>
</g>
<!-- 126&#45;&gt;106 -->
<g id="edge29" class="edge">
<title>126&#45;&gt;106</title>
<path fill="none" stroke="black" d="M763.06,-218.5C752.43,-208.58 738.16,-195.26 726.27,-184.16"/>
<polygon fill="black" stroke="black" points="728.56,-181.51 718.86,-177.25 723.78,-186.63 728.56,-181.51"/>
</g>
<!-- 308 -->
<g id="node14" class="node">
<title>308</title>
<ellipse fill="#f0efed" stroke="#f0efed" cx="778.6" cy="-162" rx="28.7" ry="18"/>
<text text-anchor="middle" x="778.6" y="-158.3" font-family="Times,serif" font-size="14.00">308</text>
</g>
<!-- 126&#45;&gt;308 -->
<g id="edge30" class="edge">
<title>126&#45;&gt;308</title>
<path fill="none" stroke="black" d="M778.6,-215.7C778.6,-207.98 778.6,-198.71 778.6,-190.11"/>
<polygon fill="black" stroke="black" points="782.1,-190.1 778.6,-180.1 775.1,-190.1 782.1,-190.1"/>
</g>
<!-- 132 -->
<g id="node6" class="node">
<title>132</title>
<ellipse fill="#f0efed" stroke="#f0efed" cx="853.6" cy="-234" rx="28.7" ry="18"/>
<text text-anchor="middle" x="853.6" y="-230.3" font-family="Times,serif" font-size="14.00">132</text>
</g>
<!-- 132&#45;&gt;106 -->
<g id="edge31" class="edge">
<title>132&#45;&gt;106</title>
<path fill="none" stroke="black" d="M831.14,-222.52C805.73,-210.66 764.16,-191.26 735.42,-177.85"/>
<polygon fill="black" stroke="black" points="736.75,-174.61 726.21,-173.55 733.79,-180.95 736.75,-174.61"/>
</g>
<!-- 132&#45;&gt;308 -->
<g id="edge32" class="edge">
<title>132&#45;&gt;308</title>
<path fill="none" stroke="black" d="M838.06,-218.5C827.43,-208.58 813.16,-195.26 801.27,-184.16"/>
<polygon fill="black" stroke="black" points="803.56,-181.51 793.86,-177.25 798.78,-186.63 803.56,-181.51"/>
</g>
<!-- 142 -->
<g id="node7" class="node">
<title>142</title>
<ellipse fill="#f0efed" stroke="#f0efed" cx="703.6" cy="-234" rx="28.7" ry="18"/>
<text text-anchor="middle" x="703.6" y="-230.3" font-family="Times,serif" font-size="14.00">142</text>
</g>
<!-- 142&#45;&gt;106 -->
<g id="edge33" class="edge">
<title>142&#45;&gt;106</title>
<path fill="none" stroke="black" d="M703.6,-215.7C703.6,-207.98 703.6,-198.71 703.6,-190.11"/>
<polygon fill="black" stroke="black" points="707.1,-190.1 703.6,-180.1 700.1,-190.1 707.1,-190.1"/>
</g>
<!-- 142&#45;&gt;308 -->
<g id="edge34" class="edge">
<title>142&#45;&gt;308</title>
<path fill="none" stroke="black" d="M719.14,-218.5C729.77,-208.58 744.03,-195.26 755.92,-184.16"/>
<polygon fill="black" stroke="black" points="758.41,-186.63 763.33,-177.25 753.64,-181.51 758.41,-186.63"/>
</g>
<!-- 143 -->
<g id="node8" class="node">
<title>143</title>
<ellipse fill="#f0efed" stroke="#f0efed" cx="480.6" cy="-18" rx="28.7" ry="18"/>
<text text-anchor="middle" x="480.6" y="-14.3" font-family="Times,serif" font-size="14.00">143</text>
</g>
<!-- 198 -->
<g id="node9" class="node">
<title>198</title>
<ellipse fill="#f0efed" stroke="#f0efed" cx="478.6" cy="-90" rx="28.7" ry="18"/>
<text text-anchor="middle" x="478.6" y="-86.3" font-family="Times,serif" font-size="14.00">198</text>
</g>
<!-- 198&#45;&gt;48 -->
<g id="edge56" class="edge">
<title>198&#45;&gt;48</title>
<path fill="none" stroke="black" d="M494.34,-74.5C505.19,-64.51 519.76,-51.09 531.86,-39.94"/>
<polygon fill="black" stroke="black" points="534.4,-42.36 539.39,-33.01 529.66,-37.21 534.4,-42.36"/>
</g>
<!-- 198&#45;&gt;117 -->
<g id="edge57" class="edge">
<title>198&#45;&gt;117</title>
<path fill="none" stroke="black" d="M501.05,-78.52C526.46,-66.66 568.03,-47.26 596.77,-33.85"/>
<polygon fill="black" stroke="black" points="598.41,-36.95 605.99,-29.55 595.45,-30.61 598.41,-36.95"/>
</g>
<!-- 198&#45;&gt;143 -->
<g id="edge58" class="edge">
<title>198&#45;&gt;143</title>
<path fill="none" stroke="black" d="M479.09,-71.7C479.31,-63.98 479.58,-54.71 479.82,-46.11"/>
<polygon fill="black" stroke="black" points="483.32,-46.2 480.11,-36.1 476.32,-46 483.32,-46.2"/>
</g>
<!-- 456 -->
<g id="node24" class="node">
<title>456</title>
<ellipse fill="#f0efed" stroke="#f0efed" cx="703.6" cy="-18" rx="28.7" ry="18"/>
<text text-anchor="middle" x="703.6" y="-14.3" font-family="Times,serif" font-size="14.00">456</text>
</g>
<!-- 198&#45;&gt;456 -->
<g id="edge59" class="edge">
<title>198&#45;&gt;456</title>
<path fill="none" stroke="black" d="M500.22,-78.21C505.19,-75.96 510.52,-73.75 515.6,-72 580.81,-49.49 601.38,-58.51 666.6,-36 668.5,-35.34 670.44,-34.62 672.38,-33.86"/>
<polygon fill="black" stroke="black" points="674.13,-36.92 681.98,-29.79 671.4,-30.47 674.13,-36.92"/>
</g>
<!-- 466 -->
<g id="node25" class="node">
<title>466</title>
<ellipse fill="#f0efed" stroke="#f0efed" cx="405.6" cy="-18" rx="28.7" ry="18"/>
<text text-anchor="middle" x="405.6" y="-14.3" font-family="Times,serif" font-size="14.00">466</text>
</g>
<!-- 198&#45;&gt;466 -->
<g id="edge60" class="edge">
<title>198&#45;&gt;466</title>
<path fill="none" stroke="black" d="M463.47,-74.5C453.29,-64.73 439.69,-51.69 428.23,-40.7"/>
<polygon fill="black" stroke="black" points="430.34,-37.88 420.7,-33.49 425.5,-42.93 430.34,-37.88"/>
</g>
<!-- 214 -->
<g id="node10" class="node">
<title>214</title>
<ellipse fill="#f0efed" stroke="#f0efed" cx="28.6" cy="-234" rx="28.7" ry="18"/>
<text text-anchor="middle" x="28.6" y="-230.3" font-family="Times,serif" font-size="14.00">214</text>
</g>
<!-- 267 -->
<g id="node11" class="node">
<title>267</title>
<ellipse fill="#f0efed" stroke="#f0efed" cx="553.6" cy="-90" rx="28.7" ry="18"/>
<text text-anchor="middle" x="553.6" y="-86.3" font-family="Times,serif" font-size="14.00">267</text>
</g>
<!-- 267&#45;&gt;48 -->
<g id="edge61" class="edge">
<title>267&#45;&gt;48</title>
<path fill="none" stroke="black" d="M553.84,-71.7C553.95,-63.98 554.09,-54.71 554.21,-46.11"/>
<polygon fill="black" stroke="black" points="557.71,-46.15 554.35,-36.1 550.71,-46.05 557.71,-46.15"/>
</g>
<!-- 267&#45;&gt;117 -->
<g id="edge62" class="edge">
<title>267&#45;&gt;117</title>
<path fill="none" stroke="black" d="M569.14,-74.5C579.77,-64.58 594.03,-51.26 605.92,-40.16"/>
<polygon fill="black" stroke="black" points="608.41,-42.63 613.33,-33.25 603.64,-37.51 608.41,-42.63"/>
</g>
<!-- 267&#45;&gt;143 -->
<g id="edge63" class="edge">
<title>267&#45;&gt;143</title>
<path fill="none" stroke="black" d="M538.47,-74.5C528.29,-64.73 514.69,-51.69 503.23,-40.7"/>
<polygon fill="black" stroke="black" points="505.34,-37.88 495.7,-33.49 500.5,-42.93 505.34,-37.88"/>
</g>
<!-- 267&#45;&gt;456 -->
<g id="edge64" class="edge">
<title>267&#45;&gt;456</title>
<path fill="none" stroke="black" d="M576.05,-78.52C601.46,-66.66 643.03,-47.26 671.77,-33.85"/>
<polygon fill="black" stroke="black" points="673.41,-36.95 680.99,-29.55 670.45,-30.61 673.41,-36.95"/>
</g>
<!-- 267&#45;&gt;466 -->
<g id="edge65" class="edge">
<title>267&#45;&gt;466</title>
<path fill="none" stroke="black" d="M531.44,-78.52C506.37,-66.66 465.36,-47.26 437,-33.85"/>
<polygon fill="black" stroke="black" points="438.44,-30.66 427.91,-29.55 435.45,-36.99 438.44,-30.66"/>
</g>
<!-- 281 -->
<g id="node12" class="node">
<title>281</title>
<ellipse fill="#f0efed" stroke="#f0efed" cx="103.6" cy="-234" rx="28.7" ry="18"/>
<text text-anchor="middle" x="103.6" y="-230.3" font-family="Times,serif" font-size="14.00">281</text>
</g>
<!-- 297 -->
<g id="node13" class="node">
<title>297</title>
<ellipse fill="#f0efed" stroke="#f0efed" cx="440.6" cy="-306" rx="28.7" ry="18"/>
<text text-anchor="middle" x="440.6" y="-302.3" font-family="Times,serif" font-size="14.00">297</text>
</g>
<!-- 297&#45;&gt;77 -->
<g id="edge3" class="edge">
<title>297&#45;&gt;77</title>
<path fill="none" stroke="black" d="M461.65,-293.82C466.75,-291.54 472.27,-289.41 477.6,-288 656.15,-240.75 713.3,-300.19 891.6,-252 893.55,-251.47 895.52,-250.84 897.49,-250.14"/>
<polygon fill="black" stroke="black" points="899.21,-253.22 907.14,-246.19 896.56,-246.75 899.21,-253.22"/>
</g>
<!-- 297&#45;&gt;126 -->
<g id="edge4" class="edge">
<title>297&#45;&gt;126</title>
<path fill="none" stroke="black" d="M462.1,-293.83C467.08,-291.61 472.44,-289.5 477.6,-288 591.3,-254.92 627.89,-285.08 741.6,-252 743.53,-251.44 745.49,-250.79 747.45,-250.08"/>
<polygon fill="black" stroke="black" points="749.15,-253.17 757.1,-246.17 746.51,-246.69 749.15,-253.17"/>
</g>
<!-- 297&#45;&gt;132 -->
<g id="edge5" class="edge">
<title>297&#45;&gt;132</title>
<path fill="none" stroke="black" d="M462.07,-293.72C467.05,-291.5 472.42,-289.42 477.6,-288 623.69,-247.84 670.5,-292.16 816.6,-252 818.54,-251.47 820.51,-250.84 822.47,-250.15"/>
<polygon fill="black" stroke="black" points="824.15,-253.25 832.13,-246.28 821.54,-246.75 824.15,-253.25"/>
</g>
<!-- 297&#45;&gt;142 -->
<g id="edge6" class="edge">
<title>297&#45;&gt;142</title>
<path fill="none" stroke="black" d="M462.16,-294.03C467.14,-291.8 472.48,-289.64 477.6,-288 559.05,-261.96 585.15,-278.04 666.6,-252 668.52,-251.39 670.47,-250.7 672.42,-249.96"/>
<polygon fill="black" stroke="black" points="674.14,-253.04 682.03,-245.97 671.46,-246.57 674.14,-253.04"/>
</g>
<!-- 297&#45;&gt;214 -->
<g id="edge7" class="edge">
<title>297&#45;&gt;214</title>
<path fill="none" stroke="black" d="M411.78,-303.77C348.1,-300.44 191.14,-288.86 65.6,-252 63.66,-251.43 61.7,-250.78 59.74,-250.07"/>
<polygon fill="black" stroke="black" points="60.69,-246.68 50.11,-246.15 58.05,-253.16 60.69,-246.68"/>
</g>
<!-- 297&#45;&gt;281 -->
<g id="edge8" class="edge">
<title>297&#45;&gt;281</title>
<path fill="none" stroke="black" d="M412.32,-302.44C358.44,-297.03 237.78,-282.36 140.6,-252 138.67,-251.4 136.72,-250.72 134.77,-249.99"/>
<polygon fill="black" stroke="black" points="135.72,-246.6 125.14,-246.02 133.05,-253.07 135.72,-246.6"/>
</g>
<!-- 330 -->
<g id="node15" class="node">
<title>330</title>
<ellipse fill="#f0efed" stroke="#f0efed" cx="178.6" cy="-234" rx="28.7" ry="18"/>
<text text-anchor="middle" x="178.6" y="-230.3" font-family="Times,serif" font-size="14.00">330</text>
</g>
<!-- 297&#45;&gt;330 -->
<g id="edge9" class="edge">
<title>297&#45;&gt;330</title>
<path fill="none" stroke="black" d="M413.09,-300.35C370.18,-292.7 285.05,-275.87 215.6,-252 213.69,-251.35 211.75,-250.63 209.81,-249.86"/>
<polygon fill="black" stroke="black" points="210.79,-246.48 200.21,-245.8 208.06,-252.92 210.79,-246.48"/>
</g>
<!-- 397 -->
<g id="node18" class="node">
<title>397</title>
<ellipse fill="#f0efed" stroke="#f0efed" cx="253.6" cy="-234" rx="28.7" ry="18"/>
<text text-anchor="middle" x="253.6" y="-230.3" font-family="Times,serif" font-size="14.00">397</text>
</g>
<!-- 297&#45;&gt;397 -->
<g id="edge10" class="edge">
<title>297&#45;&gt;397</title>
<path fill="none" stroke="black" d="M415.65,-296.96C385.67,-287.12 333.98,-269.59 290.6,-252 288.78,-251.26 286.92,-250.49 285.05,-249.69"/>
<polygon fill="black" stroke="black" points="286.32,-246.42 275.76,-245.58 283.49,-252.82 286.32,-246.42"/>
</g>
<!-- 425 -->
<g id="node20" class="node">
<title>425</title>
<ellipse fill="#f0efed" stroke="#f0efed" cx="628.6" cy="-234" rx="28.7" ry="18"/>
<text text-anchor="middle" x="628.6" y="-230.3" font-family="Times,serif" font-size="14.00">425</text>
</g>
<!-- 297&#45;&gt;425 -->
<g id="edge11" class="edge">
<title>297&#45;&gt;425</title>
<path fill="none" stroke="black" d="M462.71,-294.3C467.57,-292.1 472.72,-289.88 477.6,-288 527.17,-268.87 542.03,-271.13 591.6,-252 593.43,-251.29 595.3,-250.54 597.17,-249.76"/>
<polygon fill="black" stroke="black" points="598.71,-252.91 606.49,-245.7 595.92,-246.49 598.71,-252.91"/>
</g>
<!-- 452 -->
<g id="node22" class="node">
<title>452</title>
<ellipse fill="#f0efed" stroke="#f0efed" cx="328.6" cy="-234" rx="28.7" ry="18"/>
<text text-anchor="middle" x="328.6" y="-230.3" font-family="Times,serif" font-size="14.00">452</text>
</g>
<!-- 297&#45;&gt;452 -->
<g id="edge12" class="edge">
<title>297&#45;&gt;452</title>
<path fill="none" stroke="black" d="M421.09,-292.81C403.37,-281.73 377.02,-265.26 356.97,-252.73"/>
<polygon fill="black" stroke="black" points="358.59,-249.62 348.26,-247.29 354.88,-255.56 358.59,-249.62"/>
</g>
<!-- 455 -->
<g id="node23" class="node">
<title>455</title>
<ellipse fill="#f0efed" stroke="#f0efed" cx="403.6" cy="-234" rx="28.7" ry="18"/>
<text text-anchor="middle" x="403.6" y="-230.3" font-family="Times,serif" font-size="14.00">455</text>
</g>
<!-- 297&#45;&gt;455 -->
<g id="edge13" class="edge">
<title>297&#45;&gt;455</title>
<path fill="none" stroke="black" d="M432.02,-288.76C427.6,-280.4 422.11,-270.02 417.13,-260.61"/>
<polygon fill="black" stroke="black" points="420.16,-258.84 412.39,-251.63 413.97,-262.11 420.16,-258.84"/>
</g>
<!-- 503 -->
<g id="node27" class="node">
<title>503</title>
<ellipse fill="#f0efed" stroke="#f0efed" cx="478.6" cy="-234" rx="28.7" ry="18"/>
<text text-anchor="middle" x="478.6" y="-230.3" font-family="Times,serif" font-size="14.00">503</text>
</g>
<!-- 297&#45;&gt;503 -->
<g id="edge14" class="edge">
<title>297&#45;&gt;503</title>
<path fill="none" stroke="black" d="M449.41,-288.76C454.02,-280.28 459.75,-269.71 464.92,-260.2"/>
<polygon fill="black" stroke="black" points="468.14,-261.61 469.83,-251.15 461.98,-258.27 468.14,-261.61"/>
</g>
<!-- 548 -->
<g id="node30" class="node">
<title>548</title>
<ellipse fill="#f0efed" stroke="#f0efed" cx="553.6" cy="-234" rx="28.7" ry="18"/>
<text text-anchor="middle" x="553.6" y="-230.3" font-family="Times,serif" font-size="14.00">548</text>
</g>
<!-- 297&#45;&gt;548 -->
<g id="edge15" class="edge">
<title>297&#45;&gt;548</title>
<path fill="none" stroke="black" d="M460.28,-292.81C478.24,-281.68 504.98,-265.12 525.24,-252.57"/>
<polygon fill="black" stroke="black" points="527.1,-255.53 533.76,-247.29 523.42,-249.58 527.1,-255.53"/>
</g>
<!-- 489 -->
<g id="node26" class="node">
<title>489</title>
<ellipse fill="#f0efed" stroke="#f0efed" cx="703.6" cy="-90" rx="28.7" ry="18"/>
<text text-anchor="middle" x="703.6" y="-86.3" font-family="Times,serif" font-size="14.00">489</text>
</g>
<!-- 308&#45;&gt;489 -->
<g id="edge43" class="edge">
<title>308&#45;&gt;489</title>
<path fill="none" stroke="black" d="M763.06,-146.5C752.43,-136.58 738.16,-123.26 726.27,-112.16"/>
<polygon fill="black" stroke="black" points="728.56,-109.51 718.86,-105.25 723.78,-114.63 728.56,-109.51"/>
</g>
<!-- 341 -->
<g id="node16" class="node">
<title>341</title>
<ellipse fill="#f0efed" stroke="#f0efed" cx="553.6" cy="-162" rx="28.7" ry="18"/>
<text text-anchor="middle" x="553.6" y="-158.3" font-family="Times,serif" font-size="14.00">341</text>
</g>
<!-- 341&#45;&gt;198 -->
<g id="edge44" class="edge">
<title>341&#45;&gt;198</title>
<path fill="none" stroke="black" d="M538.06,-146.5C527.43,-136.58 513.16,-123.26 501.27,-112.16"/>
<polygon fill="black" stroke="black" points="503.56,-109.51 493.86,-105.25 498.78,-114.63 503.56,-109.51"/>
</g>
<!-- 341&#45;&gt;267 -->
<g id="edge45" class="edge">
<title>341&#45;&gt;267</title>
<path fill="none" stroke="black" d="M553.6,-143.7C553.6,-135.98 553.6,-126.71 553.6,-118.11"/>
<polygon fill="black" stroke="black" points="557.1,-118.1 553.6,-108.1 550.1,-118.1 557.1,-118.1"/>
</g>
<!-- 363 -->
<g id="node17" class="node">
<title>363</title>
<ellipse fill="#f0efed" stroke="#f0efed" cx="628.6" cy="-90" rx="28.7" ry="18"/>
<text text-anchor="middle" x="628.6" y="-86.3" font-family="Times,serif" font-size="14.00">363</text>
</g>
<!-- 341&#45;&gt;363 -->
<g id="edge46" class="edge">
<title>341&#45;&gt;363</title>
<path fill="none" stroke="black" d="M569.14,-146.5C579.77,-136.58 594.03,-123.26 605.92,-112.16"/>
<polygon fill="black" stroke="black" points="608.41,-114.63 613.33,-105.25 603.64,-109.51 608.41,-114.63"/>
</g>
<!-- 341&#45;&gt;489 -->
<g id="edge47" class="edge">
<title>341&#45;&gt;489</title>
<path fill="none" stroke="black" d="M576.05,-150.52C601.46,-138.66 643.03,-119.26 671.77,-105.85"/>
<polygon fill="black" stroke="black" points="673.41,-108.95 680.99,-101.55 670.45,-102.61 673.41,-108.95"/>
</g>
<!-- 363&#45;&gt;48 -->
<g id="edge66" class="edge">
<title>363&#45;&gt;48</title>
<path fill="none" stroke="black" d="M613.26,-74.5C602.78,-64.58 588.7,-51.26 576.97,-40.16"/>
<polygon fill="black" stroke="black" points="579.33,-37.58 569.66,-33.25 574.52,-42.66 579.33,-37.58"/>
</g>
<!-- 363&#45;&gt;117 -->
<g id="edge67" class="edge">
<title>363&#45;&gt;117</title>
<path fill="none" stroke="black" d="M628.6,-71.7C628.6,-63.98 628.6,-54.71 628.6,-46.11"/>
<polygon fill="black" stroke="black" points="632.1,-46.1 628.6,-36.1 625.1,-46.1 632.1,-46.1"/>
</g>
<!-- 363&#45;&gt;143 -->
<g id="edge68" class="edge">
<title>363&#45;&gt;143</title>
<path fill="none" stroke="black" d="M606.44,-78.52C581.37,-66.66 540.36,-47.26 512,-33.85"/>
<polygon fill="black" stroke="black" points="513.44,-30.66 502.91,-29.55 510.45,-36.99 513.44,-30.66"/>
</g>
<!-- 363&#45;&gt;456 -->
<g id="edge69" class="edge">
<title>363&#45;&gt;456</title>
<path fill="none" stroke="black" d="M644.14,-74.5C654.77,-64.58 669.03,-51.26 680.92,-40.16"/>
<polygon fill="black" stroke="black" points="683.41,-42.63 688.33,-33.25 678.64,-37.51 683.41,-42.63"/>
</g>
<!-- 363&#45;&gt;466 -->
<g id="edge70" class="edge">
<title>363&#45;&gt;466</title>
<path fill="none" stroke="black" d="M606.97,-78.22C602,-75.97 596.67,-73.76 591.6,-72 527.23,-49.67 506.96,-58.33 442.6,-36 440.69,-35.34 438.76,-34.62 436.81,-33.85"/>
<polygon fill="black" stroke="black" points="437.8,-30.46 427.22,-29.78 435.06,-36.91 437.8,-30.46"/>
</g>
<!-- 406 -->
<g id="node19" class="node">
<title>406</title>
<ellipse fill="#f0efed" stroke="#f0efed" cx="515.6" cy="-306" rx="28.7" ry="18"/>
<text text-anchor="middle" x="515.6" y="-302.3" font-family="Times,serif" font-size="14.00">406</text>
</g>
<!-- 406&#45;&gt;77 -->
<g id="edge16" class="edge">
<title>406&#45;&gt;77</title>
<path fill="none" stroke="black" d="M544.05,-303.9C607.63,-300.82 765.6,-289.68 891.6,-252 893.53,-251.42 895.5,-250.75 897.46,-250.02"/>
<polygon fill="black" stroke="black" points="899.21,-253.08 907.08,-245.99 896.5,-246.63 899.21,-253.08"/>
</g>
<!-- 406&#45;&gt;126 -->
<g id="edge17" class="edge">
<title>406&#45;&gt;126</title>
<path fill="none" stroke="black" d="M542.88,-300.43C585.86,-292.83 671.65,-276 741.6,-252 743.5,-251.35 745.44,-250.63 747.39,-249.87"/>
<polygon fill="black" stroke="black" points="749.13,-252.93 756.98,-245.81 746.41,-246.48 749.13,-252.93"/>
</g>
<!-- 406&#45;&gt;132 -->
<g id="edge18" class="edge">
<title>406&#45;&gt;132</title>
<path fill="none" stroke="black" d="M543.97,-302.45C598.03,-297.06 719.09,-282.43 816.6,-252 818.52,-251.4 820.47,-250.72 822.43,-249.99"/>
<polygon fill="black" stroke="black" points="824.14,-253.07 832.05,-246.02 821.47,-246.6 824.14,-253.07"/>
</g>
<!-- 406&#45;&gt;142 -->
<g id="edge19" class="edge">
<title>406&#45;&gt;142</title>
<path fill="none" stroke="black" d="M540.45,-297.07C570.59,-287.26 622.81,-269.7 666.6,-252 668.42,-251.26 670.28,-250.49 672.14,-249.69"/>
<polygon fill="black" stroke="black" points="673.7,-252.83 681.44,-245.59 670.88,-246.42 673.7,-252.83"/>
</g>
<!-- 406&#45;&gt;214 -->
<g id="edge20" class="edge">
<title>406&#45;&gt;214</title>
<path fill="none" stroke="black" d="M494.54,-293.82C489.44,-291.54 483.93,-289.41 478.6,-288 300.48,-240.84 243.71,-299.16 65.6,-252 63.43,-251.43 61.24,-250.73 59.05,-249.96"/>
<polygon fill="black" stroke="black" points="60.24,-246.67 49.65,-246.18 57.62,-253.16 60.24,-246.67"/>
</g>
<!-- 406&#45;&gt;281 -->
<g id="edge21" class="edge">
<title>406&#45;&gt;281</title>
<path fill="none" stroke="black" d="M494.13,-293.72C489.14,-291.5 483.78,-289.42 478.6,-288 332.93,-247.94 286.26,-292.06 140.6,-252 138.65,-251.47 136.69,-250.84 134.72,-250.15"/>
<polygon fill="black" stroke="black" points="135.65,-246.75 125.07,-246.28 133.05,-253.25 135.65,-246.75"/>
</g>
<!-- 406&#45;&gt;330 -->
<g id="edge22" class="edge">
<title>406&#45;&gt;330</title>
<path fill="none" stroke="black" d="M494.09,-293.83C489.11,-291.61 483.76,-289.5 478.6,-288 365.32,-255.01 328.87,-284.99 215.6,-252 213.66,-251.44 211.7,-250.79 209.74,-250.08"/>
<polygon fill="black" stroke="black" points="210.68,-246.69 200.1,-246.17 208.05,-253.17 210.68,-246.69"/>
</g>
<!-- 406&#45;&gt;397 -->
<g id="edge23" class="edge">
<title>406&#45;&gt;397</title>
<path fill="none" stroke="black" d="M494.03,-294.04C489.05,-291.8 483.71,-289.64 478.6,-288 397.58,-262.05 371.62,-277.95 290.6,-252 288.68,-251.39 286.73,-250.7 284.78,-249.96"/>
<polygon fill="black" stroke="black" points="285.74,-246.57 275.16,-245.96 283.05,-253.03 285.74,-246.57"/>
</g>
<!-- 406&#45;&gt;425 -->
<g id="edge24" class="edge">
<title>406&#45;&gt;425</title>
<path fill="none" stroke="black" d="M535.28,-292.81C553.24,-281.68 579.98,-265.12 600.24,-252.57"/>
<polygon fill="black" stroke="black" points="602.1,-255.53 608.76,-247.29 598.42,-249.58 602.1,-255.53"/>
</g>
<!-- 406&#45;&gt;452 -->
<g id="edge25" class="edge">
<title>406&#45;&gt;452</title>
<path fill="none" stroke="black" d="M493.48,-294.31C488.63,-292.11 483.48,-289.89 478.6,-288 429.45,-268.96 414.75,-271.04 365.6,-252 363.77,-251.29 361.9,-250.54 360.02,-249.75"/>
<polygon fill="black" stroke="black" points="361.28,-246.48 350.71,-245.69 358.48,-252.9 361.28,-246.48"/>
</g>
<!-- 406&#45;&gt;455 -->
<g id="edge26" class="edge">
<title>406&#45;&gt;455</title>
<path fill="none" stroke="black" d="M496.09,-292.81C478.37,-281.73 452.02,-265.26 431.97,-252.73"/>
<polygon fill="black" stroke="black" points="433.59,-249.62 423.26,-247.29 429.88,-255.56 433.59,-249.62"/>
</g>
<!-- 406&#45;&gt;503 -->
<g id="edge27" class="edge">
<title>406&#45;&gt;503</title>
<path fill="none" stroke="black" d="M507.02,-288.76C502.6,-280.4 497.11,-270.02 492.13,-260.61"/>
<polygon fill="black" stroke="black" points="495.16,-258.84 487.39,-251.63 488.97,-262.11 495.16,-258.84"/>
</g>
<!-- 406&#45;&gt;548 -->
<g id="edge28" class="edge">
<title>406&#45;&gt;548</title>
<path fill="none" stroke="black" d="M524.41,-288.76C529.02,-280.28 534.75,-269.71 539.92,-260.2"/>
<polygon fill="black" stroke="black" points="543.14,-261.61 544.83,-251.15 536.98,-258.27 543.14,-261.61"/>
</g>
<!-- 425&#45;&gt;106 -->
<g id="edge35" class="edge">
<title>425&#45;&gt;106</title>
<path fill="none" stroke="black" d="M644.14,-218.5C654.77,-208.58 669.03,-195.26 680.92,-184.16"/>
<polygon fill="black" stroke="black" points="683.41,-186.63 688.33,-177.25 678.64,-181.51 683.41,-186.63"/>
</g>
<!-- 425&#45;&gt;308 -->
<g id="edge36" class="edge">
<title>425&#45;&gt;308</title>
<path fill="none" stroke="black" d="M651.05,-222.52C676.46,-210.66 718.03,-191.26 746.77,-177.85"/>
<polygon fill="black" stroke="black" points="748.41,-180.95 755.99,-173.55 745.45,-174.61 748.41,-180.95"/>
</g>
<!-- 435 -->
<g id="node21" class="node">
<title>435</title>
<ellipse fill="#f0efed" stroke="#f0efed" cx="628.6" cy="-162" rx="28.7" ry="18"/>
<text text-anchor="middle" x="628.6" y="-158.3" font-family="Times,serif" font-size="14.00">435</text>
</g>
<!-- 425&#45;&gt;435 -->
<g id="edge37" class="edge">
<title>425&#45;&gt;435</title>
<path fill="none" stroke="black" d="M628.6,-215.7C628.6,-207.98 628.6,-198.71 628.6,-190.11"/>
<polygon fill="black" stroke="black" points="632.1,-190.1 628.6,-180.1 625.1,-190.1 632.1,-190.1"/>
</g>
<!-- 435&#45;&gt;198 -->
<g id="edge48" class="edge">
<title>435&#45;&gt;198</title>
<path fill="none" stroke="black" d="M606.14,-150.52C580.73,-138.66 539.16,-119.26 510.42,-105.85"/>
<polygon fill="black" stroke="black" points="511.75,-102.61 501.21,-101.55 508.79,-108.95 511.75,-102.61"/>
</g>
<!-- 435&#45;&gt;267 -->
<g id="edge49" class="edge">
<title>435&#45;&gt;267</title>
<path fill="none" stroke="black" d="M613.06,-146.5C602.43,-136.58 588.16,-123.26 576.27,-112.16"/>
<polygon fill="black" stroke="black" points="578.56,-109.51 568.86,-105.25 573.78,-114.63 578.56,-109.51"/>
</g>
<!-- 435&#45;&gt;363 -->
<g id="edge50" class="edge">
<title>435&#45;&gt;363</title>
<path fill="none" stroke="black" d="M628.6,-143.7C628.6,-135.98 628.6,-126.71 628.6,-118.11"/>
<polygon fill="black" stroke="black" points="632.1,-118.1 628.6,-108.1 625.1,-118.1 632.1,-118.1"/>
</g>
<!-- 435&#45;&gt;489 -->
<g id="edge51" class="edge">
<title>435&#45;&gt;489</title>
<path fill="none" stroke="black" d="M644.14,-146.5C654.77,-136.58 669.03,-123.26 680.92,-112.16"/>
<polygon fill="black" stroke="black" points="683.41,-114.63 688.33,-105.25 678.64,-109.51 683.41,-114.63"/>
</g>
<!-- 489&#45;&gt;48 -->
<g id="edge71" class="edge">
<title>489&#45;&gt;48</title>
<path fill="none" stroke="black" d="M681.08,-78.46C658.27,-67.78 621.97,-50.76 590.6,-36 588.82,-35.16 586.98,-34.3 585.14,-33.43"/>
<polygon fill="black" stroke="black" points="586.45,-30.18 575.91,-29.08 583.46,-36.51 586.45,-30.18"/>
</g>
<!-- 489&#45;&gt;117 -->
<g id="edge72" class="edge">
<title>489&#45;&gt;117</title>
<path fill="none" stroke="black" d="M688.06,-74.5C677.43,-64.58 663.16,-51.26 651.27,-40.16"/>
<polygon fill="black" stroke="black" points="653.56,-37.51 643.86,-33.25 648.78,-42.63 653.56,-37.51"/>
</g>
<!-- 489&#45;&gt;456 -->
<g id="edge73" class="edge">
<title>489&#45;&gt;456</title>
<path fill="none" stroke="black" d="M703.6,-71.7C703.6,-63.98 703.6,-54.71 703.6,-46.11"/>
<polygon fill="black" stroke="black" points="707.1,-46.1 703.6,-36.1 700.1,-46.1 707.1,-46.1"/>
</g>
<!-- 524 -->
<g id="node28" class="node">
<title>524</title>
<ellipse fill="#f0efed" stroke="#f0efed" cx="478.6" cy="-162" rx="28.7" ry="18"/>
<text text-anchor="middle" x="478.6" y="-158.3" font-family="Times,serif" font-size="14.00">524</text>
</g>
<!-- 524&#45;&gt;198 -->
<g id="edge52" class="edge">
<title>524&#45;&gt;198</title>
<path fill="none" stroke="black" d="M478.6,-143.7C478.6,-135.98 478.6,-126.71 478.6,-118.11"/>
<polygon fill="black" stroke="black" points="482.1,-118.1 478.6,-108.1 475.1,-118.1 482.1,-118.1"/>
</g>
<!-- 524&#45;&gt;267 -->
<g id="edge53" class="edge">
<title>524&#45;&gt;267</title>
<path fill="none" stroke="black" d="M494.14,-146.5C504.77,-136.58 519.03,-123.26 530.92,-112.16"/>
<polygon fill="black" stroke="black" points="533.41,-114.63 538.33,-105.25 528.64,-109.51 533.41,-114.63"/>
</g>
<!-- 524&#45;&gt;363 -->
<g id="edge54" class="edge">
<title>524&#45;&gt;363</title>
<path fill="none" stroke="black" d="M501.05,-150.52C526.46,-138.66 568.03,-119.26 596.77,-105.85"/>
<polygon fill="black" stroke="black" points="598.41,-108.95 605.99,-101.55 595.45,-102.61 598.41,-108.95"/>
</g>
<!-- 524&#45;&gt;489 -->
<g id="edge55" class="edge">
<title>524&#45;&gt;489</title>
<path fill="none" stroke="black" d="M500.22,-150.21C505.19,-147.96 510.52,-145.75 515.6,-144 580.81,-121.49 601.38,-130.51 666.6,-108 668.5,-107.34 670.44,-106.62 672.38,-105.86"/>
<polygon fill="black" stroke="black" points="674.13,-108.92 681.98,-101.79 671.4,-102.47 674.13,-108.92"/>
</g>
<!-- 535 -->
<g id="node29" class="node">
<title>535</title>
<ellipse fill="#f0efed" stroke="#f0efed" cx="477.6" cy="-378" rx="28.7" ry="18"/>
<text text-anchor="middle" x="477.6" y="-374.3" font-family="Times,serif" font-size="14.00">535</text>
</g>
<!-- 535&#45;&gt;297 -->
<g id="edge1" class="edge">
<title>535&#45;&gt;297</title>
<path fill="none" stroke="black" d="M469.02,-360.76C464.6,-352.4 459.11,-342.02 454.13,-332.61"/>
<polygon fill="black" stroke="black" points="457.16,-330.84 449.39,-323.63 450.97,-334.11 457.16,-330.84"/>
</g>
<!-- 535&#45;&gt;406 -->
<g id="edge2" class="edge">
<title>535&#45;&gt;406</title>
<path fill="none" stroke="black" d="M486.41,-360.76C491.02,-352.28 496.75,-341.71 501.92,-332.2"/>
<polygon fill="black" stroke="black" points="505.14,-333.61 506.83,-323.15 498.98,-330.27 505.14,-333.61"/>
</g>
<!-- 548&#45;&gt;106 -->
<g id="edge38" class="edge">
<title>548&#45;&gt;106</title>
<path fill="none" stroke="black" d="M576.05,-222.52C601.46,-210.66 643.03,-191.26 671.77,-177.85"/>
<polygon fill="black" stroke="black" points="673.41,-180.95 680.99,-173.55 670.45,-174.61 673.41,-180.95"/>
</g>
<!-- 548&#45;&gt;308 -->
<g id="edge39" class="edge">
<title>548&#45;&gt;308</title>
<path fill="none" stroke="black" d="M575.22,-222.21C580.19,-219.96 585.52,-217.75 590.6,-216 655.81,-193.49 676.38,-202.51 741.6,-180 743.5,-179.34 745.44,-178.62 747.38,-177.86"/>
<polygon fill="black" stroke="black" points="749.13,-180.92 756.98,-173.79 746.4,-174.47 749.13,-180.92"/>
</g>
<!-- 548&#45;&gt;341 -->
<g id="edge40" class="edge">
<title>548&#45;&gt;341</title>
<path fill="none" stroke="black" d="M553.6,-215.7C553.6,-207.98 553.6,-198.71 553.6,-190.11"/>
<polygon fill="black" stroke="black" points="557.1,-190.1 553.6,-180.1 550.1,-190.1 557.1,-190.1"/>
</g>
<!-- 548&#45;&gt;435 -->
<g id="edge41" class="edge">
<title>548&#45;&gt;435</title>
<path fill="none" stroke="black" d="M569.14,-218.5C579.77,-208.58 594.03,-195.26 605.92,-184.16"/>
<polygon fill="black" stroke="black" points="608.41,-186.63 613.33,-177.25 603.64,-181.51 608.41,-186.63"/>
</g>
<!-- 548&#45;&gt;524 -->
<g id="edge42" class="edge">
<title>548&#45;&gt;524</title>
<path fill="none" stroke="black" d="M538.06,-218.5C527.43,-208.58 513.16,-195.26 501.27,-184.16"/>
<polygon fill="black" stroke="black" points="503.56,-181.51 493.86,-177.25 498.78,-186.63 503.56,-181.51"/>
</g>
</g>
</svg>
