<?xml version="1.0" encoding="UTF-8" standalone="no"?>
<!DOCTYPE svg PUBLIC "-//W3C//DTD SVG 1.1//EN"
 "http://www.w3.org/Graphics/SVG/1.1/DTD/svg11.dtd">
<!-- Generated by graphviz version 2.43.0 (0)
 -->
<!-- Title: %3 Pages: 1 -->
<svg width="952pt" height="689pt"
 viewBox="0.00 0.00 952.36 688.94" xmlns="http://www.w3.org/2000/svg" xmlns:xlink="http://www.w3.org/1999/xlink">
<g id="graph0" class="graph" transform="scale(1 1) rotate(0) translate(4 684.94)">
<title>%3</title>
<polygon fill="white" stroke="transparent" points="-4,4 -4,-684.94 948.36,-684.94 948.36,4 -4,4"/>
<!-- 6761698098749337524 -->
<g id="node1" class="node">
<title>6761698098749337524</title>
<polygon fill="#a6faa5" stroke="black" points="480.86,-218.47 295.86,-218.47 295.86,-182.47 480.86,-182.47 480.86,-218.47"/>
<text text-anchor="middle" x="388.36" y="-197.37" font-family="Times,serif" font-size="12.00">Block Purchase Order Item </text>
</g>
<!-- @@endnode -->
<g id="node2" class="node">
<title>@@endnode</title>
<ellipse fill="none" stroke="black" cx="716.36" cy="-109.23" rx="33.44" ry="33.44"/>
<ellipse fill="none" stroke="black" cx="716.36" cy="-109.23" rx="37.47" ry="37.47"/>
<text text-anchor="start" x="700.86" y="-101.13" font-family="Times,serif" font-size="32.00">■</text>
</g>
<!-- 6761698098749337524&#45;&gt;@@endnode -->
<g id="edge1" class="edge">
<title>6761698098749337524&#45;&gt;@@endnode</title>
<path fill="none" stroke="#3b823b" d="M451.21,-182.37C515.44,-164.9 613.62,-138.19 670.75,-122.64"/>
<polygon fill="#3b823b" stroke="#3b823b" points="671.85,-125.97 680.58,-119.97 670.01,-119.22 671.85,-125.97"/>
</g>
<!-- 8960506394539949144 -->
<g id="node3" class="node">
<title>8960506394539949144</title>
<polygon fill="#ffffff" stroke="black" points="752.86,-665.7 653.86,-665.7 653.86,-629.7 752.86,-629.7 752.86,-665.7"/>
<text text-anchor="middle" x="703.36" y="-644.6" font-family="Times,serif" font-size="12.00">Book Invoice </text>
</g>
<!-- 8960506394539949144&#45;&gt;@@endnode -->
<g id="edge5" class="edge">
<title>8960506394539949144&#45;&gt;@@endnode</title>
<path fill="none" stroke="black" d="M753.02,-632.34C813.11,-611.54 906.36,-566.81 906.36,-489.47 906.36,-489.47 906.36,-489.47 906.36,-415.47 906.36,-305.08 887.92,-269.76 820.36,-182.47 803.87,-161.17 779.35,-143.72 758.26,-131.3"/>
<polygon fill="black" stroke="black" points="759.88,-128.2 749.46,-126.3 756.42,-134.28 759.88,-128.2"/>
</g>
<!-- &#45;8486058042542249863 -->
<g id="node4" class="node">
<title>&#45;8486058042542249863</title>
<polygon fill="#ffffff" stroke="black" points="828.36,-578.47 676.36,-578.47 676.36,-542.47 828.36,-542.47 828.36,-578.47"/>
<text text-anchor="middle" x="752.36" y="-557.37" font-family="Times,serif" font-size="12.00">Cancel Goods Receipt </text>
</g>
<!-- 8960506394539949144&#45;&gt;&#45;8486058042542249863 -->
<g id="edge2" class="edge">
<title>8960506394539949144&#45;&gt;&#45;8486058042542249863</title>
<path fill="none" stroke="red" stroke-width="1" d="M713.27,-629.45C720.18,-617.44 729.52,-601.19 737.34,-587.6"/>
<polygon fill="red" stroke="red" stroke-width="1" points="740.51,-589.1 742.46,-578.69 734.44,-585.62 740.51,-589.1"/>
</g>
<!-- 5171068905532438498 -->
<g id="node5" class="node">
<title>5171068905532438498</title>
<polygon fill="#ffffff" stroke="black" points="446.36,-362.47 324.36,-362.47 324.36,-326.47 446.36,-326.47 446.36,-362.47"/>
<text text-anchor="middle" x="385.36" y="-341.37" font-family="Times,serif" font-size="12.00">Change Quantity </text>
</g>
<!-- 8960506394539949144&#45;&gt;5171068905532438498 -->
<g id="edge3" class="edge">
<title>8960506394539949144&#45;&gt;5171068905532438498</title>
<path fill="none" stroke="red" stroke-width="1" d="M684.93,-629.54C649.6,-596.97 569.32,-524.6 496.36,-470.47 472.59,-452.84 461.09,-455.58 440.36,-434.47 422.28,-416.07 407.33,-390.69 397.61,-371.75"/>
<polygon fill="red" stroke="red" stroke-width="1" points="400.72,-370.15 393.14,-362.76 394.46,-373.27 400.72,-370.15"/>
</g>
<!-- 30601589414796702 -->
<g id="node6" class="node">
<title>30601589414796702</title>
<polygon fill="#ffffff" stroke="black" points="688.36,-506.47 590.36,-506.47 590.36,-470.47 688.36,-470.47 688.36,-506.47"/>
<text text-anchor="middle" x="639.36" y="-485.37" font-family="Times,serif" font-size="12.00">Scan Invoice </text>
</g>
<!-- 8960506394539949144&#45;&gt;30601589414796702 -->
<g id="edge4" class="edge">
<title>8960506394539949144&#45;&gt;30601589414796702</title>
<path fill="none" stroke="#3b823b" stroke-width="1.02" d="M685.77,-629.45C676.39,-615.9 665.83,-596.39 658.36,-578.47 649.9,-558.19 642.55,-534.42 638.84,-516.55"/>
<polygon fill="#3b823b" stroke="#3b823b" stroke-width="1.02" points="642.25,-515.76 637.06,-506.52 635.36,-516.98 642.25,-515.76"/>
</g>
<!-- &#45;8486058042542249863&#45;&gt;@@endnode -->
<g id="edge8" class="edge">
<title>&#45;8486058042542249863&#45;&gt;@@endnode</title>
<path fill="none" stroke="red" d="M769.28,-542.32C792.22,-517.18 830.36,-467.82 830.36,-417.47 830.36,-417.47 830.36,-417.47 830.36,-271.47 830.36,-217.2 786.76,-168.39 753.49,-139.04"/>
<polygon fill="red" stroke="red" points="755.58,-136.23 745.71,-132.37 751.02,-141.54 755.58,-136.23"/>
</g>
<!-- &#45;8486058042542249863&#45;&gt;30601589414796702 -->
<g id="edge7" class="edge">
<title>&#45;8486058042542249863&#45;&gt;30601589414796702</title>
<path fill="none" stroke="red" stroke-width="1" d="M724.71,-542.34C709.94,-533.19 691.57,-521.81 675.65,-511.95"/>
<polygon fill="red" stroke="red" stroke-width="1" points="677.45,-508.95 667.11,-506.66 673.76,-514.9 677.45,-508.95"/>
</g>
<!-- 8928093050461230673 -->
<g id="node7" class="node">
<title>8928093050461230673</title>
<polygon fill="#ffffff" stroke="black" points="272.86,-36 163.86,-36 163.86,0 272.86,0 272.86,-36"/>
<text text-anchor="middle" x="218.36" y="-14.9" font-family="Times,serif" font-size="12.00">Receive Goods </text>
</g>
<!-- &#45;8486058042542249863&#45;&gt;8928093050461230673 -->
<g id="edge6" class="edge">
<title>&#45;8486058042542249863&#45;&gt;8928093050461230673</title>
<path fill="none" stroke="#3b823b" stroke-width="1" d="M782.39,-542.41C796.01,-533.31 811.29,-520.99 821.36,-506.47 840.42,-478.97 838.18,-467.53 843.36,-434.47 868.51,-273.74 917.55,-175.88 792.36,-72 753.85,-40.05 425.18,-25.67 283.22,-20.91"/>
<polygon fill="#3b823b" stroke="#3b823b" stroke-width="1" points="283.03,-17.4 272.92,-20.57 282.8,-24.4 283.03,-17.4"/>
</g>
<!-- 5171068905532438498&#45;&gt;@@endnode -->
<g id="edge13" class="edge">
<title>5171068905532438498&#45;&gt;@@endnode</title>
<path fill="none" stroke="red" d="M324.31,-335.77C209.74,-319.02 -18.95,-273.25 62.36,-182.47 72.52,-171.12 520.1,-128.51 668.85,-114.63"/>
<polygon fill="red" stroke="red" points="669.41,-118.09 679.04,-113.68 668.76,-111.12 669.41,-118.09"/>
</g>
<!-- 5171068905532438498&#45;&gt;30601589414796702 -->
<g id="edge12" class="edge">
<title>5171068905532438498&#45;&gt;30601589414796702</title>
<path fill="none" stroke="black" stroke-width="1" d="M446.5,-349.01C516.34,-354.48 624.21,-367.77 649.36,-398.47 663.45,-415.68 658.67,-441.45 651.71,-460.83"/>
<polygon fill="black" stroke="black" stroke-width="1" points="648.38,-459.73 647.96,-470.31 654.89,-462.3 648.38,-459.73"/>
</g>
<!-- 5171068905532438498&#45;&gt;8928093050461230673 -->
<g id="edge11" class="edge">
<title>5171068905532438498&#45;&gt;8928093050461230673</title>
<path fill="none" stroke="#3b823b" stroke-width="1" d="M324.23,-341.42C239.27,-337.25 91.9,-325.05 53.36,-290.47 -18.94,-225.6 -14.5,-146.89 47.36,-72 72.85,-41.13 116.64,-28.09 153.59,-22.65"/>
<polygon fill="#3b823b" stroke="#3b823b" stroke-width="1" points="154.36,-26.08 163.82,-21.31 153.45,-19.14 154.36,-26.08"/>
</g>
<!-- &#45;4902265812805711147 -->
<g id="node8" class="node">
<title>&#45;4902265812805711147</title>
<polygon fill="#ffffff" stroke="black" points="640.86,-434.47 449.86,-434.47 449.86,-398.47 640.86,-398.47 640.86,-434.47"/>
<text text-anchor="middle" x="545.36" y="-413.37" font-family="Times,serif" font-size="12.00">Create Purchase Order Item </text>
</g>
<!-- 5171068905532438498&#45;&gt;&#45;4902265812805711147 -->
<g id="edge9" class="edge">
<title>5171068905532438498&#45;&gt;&#45;4902265812805711147</title>
<path fill="none" stroke="#3b823b" stroke-width="1.01" d="M430.26,-362.54C453.02,-372.05 480.44,-384 502.84,-394.13"/>
<polygon fill="#3b823b" stroke="#3b823b" stroke-width="1.01" points="501.56,-397.39 512.11,-398.34 504.46,-391.02 501.56,-397.39"/>
</g>
<!-- 8675162574921516744 -->
<g id="node9" class="node">
<title>8675162574921516744</title>
<polygon fill="#ffffff" stroke="black" points="490.36,-290.47 280.36,-290.47 280.36,-254.47 490.36,-254.47 490.36,-290.47"/>
<text text-anchor="middle" x="385.36" y="-269.37" font-family="Times,serif" font-size="12.00">Print and Send Purchase Order </text>
</g>
<!-- 5171068905532438498&#45;&gt;8675162574921516744 -->
<g id="edge10" class="edge">
<title>5171068905532438498&#45;&gt;8675162574921516744</title>
<path fill="none" stroke="#3b823b" stroke-width="1" d="M379.44,-326.16C378.65,-318.45 378.42,-309.18 378.76,-300.58"/>
<polygon fill="#3b823b" stroke="#3b823b" stroke-width="1" points="382.26,-300.79 379.46,-290.57 375.27,-300.3 382.26,-300.79"/>
</g>
<!-- 30601589414796702&#45;&gt;@@endnode -->
<g id="edge35" class="edge">
<title>30601589414796702&#45;&gt;@@endnode</title>
<path fill="none" stroke="#3b823b" d="M666.9,-470.29C700.92,-446.69 754.36,-400.83 754.36,-345.47 754.36,-345.47 754.36,-345.47 754.36,-271.47 754.36,-230.81 742.77,-185.89 732.39,-153.81"/>
<polygon fill="#3b823b" stroke="#3b823b" points="735.7,-152.67 729.22,-144.28 729.06,-154.88 735.7,-152.67"/>
</g>
<!-- 30601589414796702&#45;&gt;8960506394539949144 -->
<g id="edge33" class="edge">
<title>30601589414796702&#45;&gt;8960506394539949144</title>
<path fill="none" stroke="black" stroke-width="2.33" d="M650.41,-506.52C657.62,-524.68 666.19,-554.1 676.36,-578.47 682.26,-592.61 690.07,-607.74 696.11,-620.15"/>
<polygon fill="black" stroke="black" stroke-width="2.33" points="693.07,-621.9 700.5,-629.45 699.4,-618.91 693.07,-621.9"/>
</g>
<!-- 30601589414796702&#45;&gt;&#45;4902265812805711147 -->
<g id="edge34" class="edge">
<title>30601589414796702&#45;&gt;&#45;4902265812805711147</title>
<path fill="none" stroke="black" stroke-width="1.16" d="M616.12,-470.16C604.17,-461.26 589.43,-450.29 576.51,-440.67"/>
<polygon fill="black" stroke="black" stroke-width="1.16" points="578.44,-437.74 568.33,-434.57 574.26,-443.35 578.44,-437.74"/>
</g>
<!-- 8928093050461230673&#45;&gt;8960506394539949144 -->
<g id="edge28" class="edge">
<title>8928093050461230673&#45;&gt;8960506394539949144</title>
<path fill="none" stroke="black" stroke-width="1.17" d="M272.9,-18.43C405.09,-17.88 738.88,-21.66 836.36,-72 902.33,-106.07 944.36,-125.22 944.36,-199.47 944.36,-489.47 944.36,-489.47 944.36,-489.47 944.36,-575.95 834.16,-617.37 762.8,-635.12"/>
<polygon fill="black" stroke="black" stroke-width="1.17" points="761.91,-631.74 753,-637.47 763.54,-638.54 761.91,-631.74"/>
</g>
<!-- 8928093050461230673&#45;&gt;5171068905532438498 -->
<g id="edge29" class="edge">
<title>8928093050461230673&#45;&gt;5171068905532438498</title>
<path fill="none" stroke="#3b823b" d="M163.71,-23.53C130.29,-29.44 89.57,-42.68 65.36,-72 3.5,-146.89 -0.94,-225.6 71.36,-290.47 106.6,-322.08 232.8,-335 314.14,-340.16"/>
<polygon fill="#3b823b" stroke="#3b823b" points="314.13,-343.66 324.32,-340.78 314.55,-336.68 314.13,-343.66"/>
</g>
<!-- 8928093050461230673&#45;&gt;30601589414796702 -->
<g id="edge30" class="edge">
<title>8928093050461230673&#45;&gt;30601589414796702</title>
<path fill="none" stroke="black" stroke-width="2.33" d="M273.02,-20.76C403.7,-25.48 726.01,-40.23 762.36,-72 806.17,-110.31 792.36,-141.27 792.36,-199.47 792.36,-345.47 792.36,-345.47 792.36,-345.47 792.36,-402.6 734.34,-443.21 689.76,-465.99"/>
<polygon fill="black" stroke="black" stroke-width="2.33" points="688.17,-462.87 680.76,-470.44 691.28,-469.14 688.17,-462.87"/>
</g>
<!-- &#45;4902265812805711147&#45;&gt;5171068905532438498 -->
<g id="edge14" class="edge">
<title>&#45;4902265812805711147&#45;&gt;5171068905532438498</title>
<path fill="none" stroke="#3b823b" stroke-width="1" d="M500.32,-398.34C477.55,-388.82 450.13,-376.87 427.74,-366.75"/>
<polygon fill="#3b823b" stroke="#3b823b" stroke-width="1" points="429.03,-363.49 418.48,-362.54 426.13,-369.87 429.03,-363.49"/>
</g>
<!-- &#45;4902265812805711147&#45;&gt;8675162574921516744 -->
<g id="edge15" class="edge">
<title>&#45;4902265812805711147&#45;&gt;8675162574921516744</title>
<path fill="none" stroke="black" stroke-width="2.6" d="M529.39,-398.39C511.87,-379.96 482.59,-350.07 455.36,-326.47 443.47,-316.17 429.79,-305.56 417.7,-296.57"/>
<polygon fill="black" stroke="black" stroke-width="2.6" points="419.75,-293.73 409.62,-290.62 415.6,-299.37 419.75,-293.73"/>
</g>
<!-- 8941812083731042042 -->
<g id="node10" class="node">
<title>8941812083731042042</title>
<polygon fill="#a6faa5" stroke="black" points="725.86,-290.47 534.86,-290.47 534.86,-254.47 725.86,-254.47 725.86,-290.47"/>
<text text-anchor="middle" x="630.36" y="-269.37" font-family="Times,serif" font-size="12.00">Refuse Purchase Order Item </text>
</g>
<!-- &#45;4902265812805711147&#45;&gt;8941812083731042042 -->
<g id="edge16" class="edge">
<title>&#45;4902265812805711147&#45;&gt;8941812083731042042</title>
<path fill="none" stroke="#3b823b" stroke-width="1.05" d="M555.61,-398.34C570.35,-373.71 597.65,-328.11 614.86,-299.35"/>
<polygon fill="#3b823b" stroke="#3b823b" stroke-width="1.05" points="617.93,-301.04 620.07,-290.66 611.93,-297.44 617.93,-301.04"/>
</g>
<!-- 8675162574921516744&#45;&gt;6761698098749337524 -->
<g id="edge21" class="edge">
<title>8675162574921516744&#45;&gt;6761698098749337524</title>
<path fill="none" stroke="#3b823b" stroke-width="1.05" d="M386.1,-254.16C386.43,-246.45 386.83,-237.18 387.19,-228.58"/>
<polygon fill="#3b823b" stroke="#3b823b" stroke-width="1.05" points="390.69,-228.71 387.62,-218.57 383.7,-228.41 390.69,-228.71"/>
</g>
<!-- 8675162574921516744&#45;&gt;&#45;8486058042542249863 -->
<g id="edge22" class="edge">
<title>8675162574921516744&#45;&gt;&#45;8486058042542249863</title>
<path fill="none" stroke="#3b823b" stroke-width="1" d="M456.5,-290.51C518.73,-308.49 608.29,-342.19 668.36,-398.47 708.56,-436.14 733.02,-497.4 744.49,-532.49"/>
<polygon fill="#3b823b" stroke="#3b823b" stroke-width="1" points="741.17,-533.59 747.51,-542.07 747.84,-531.48 741.17,-533.59"/>
</g>
<!-- 8675162574921516744&#45;&gt;5171068905532438498 -->
<g id="edge23" class="edge">
<title>8675162574921516744&#45;&gt;5171068905532438498</title>
<path fill="none" stroke="#3b823b" stroke-width="1" d="M391.25,-290.57C392.06,-298.26 392.29,-307.52 391.96,-316.13"/>
<polygon fill="#3b823b" stroke="#3b823b" stroke-width="1" points="388.47,-315.95 391.27,-326.16 395.45,-316.43 388.47,-315.95"/>
</g>
<!-- 8675162574921516744&#45;&gt;8928093050461230673 -->
<g id="edge26" class="edge">
<title>8675162574921516744&#45;&gt;8928093050461230673</title>
<path fill="none" stroke="black" stroke-width="2.38" d="M280.1,-268.49C196.81,-263.65 90.04,-251.06 62.36,-218.47 27.52,-177.45 70.33,-116.56 113.36,-72 125.98,-58.92 142.53,-48.53 158.74,-40.54"/>
<polygon fill="black" stroke="black" stroke-width="2.38" points="160.63,-43.52 168.21,-36.11 157.67,-37.18 160.63,-43.52"/>
</g>
<!-- 5488738468185313816 -->
<g id="node12" class="node">
<title>5488738468185313816</title>
<polygon fill="#a6faa5" stroke="black" points="687.86,-218.47 498.86,-218.47 498.86,-182.47 687.86,-182.47 687.86,-218.47"/>
<text text-anchor="middle" x="593.36" y="-197.37" font-family="Times,serif" font-size="12.00">Delete Purchase Order Item </text>
</g>
<!-- 8675162574921516744&#45;&gt;5488738468185313816 -->
<g id="edge24" class="edge">
<title>8675162574921516744&#45;&gt;5488738468185313816</title>
<path fill="none" stroke="#3b823b" stroke-width="1.05" d="M435.97,-254.43C465.16,-244.61 502.05,-232.2 532.77,-221.86"/>
<polygon fill="#3b823b" stroke="#3b823b" stroke-width="1.05" points="534.15,-225.09 542.51,-218.58 531.92,-218.45 534.15,-225.09"/>
</g>
<!-- &#45;6712442493952616950 -->
<g id="node13" class="node">
<title>&#45;6712442493952616950</title>
<polygon fill="#a6faa5" stroke="black" points="240.86,-218.47 71.86,-218.47 71.86,-182.47 240.86,-182.47 240.86,-218.47"/>
<text text-anchor="middle" x="156.36" y="-197.37" font-family="Times,serif" font-size="12.00">Dun Order Confirmation </text>
</g>
<!-- 8675162574921516744&#45;&gt;&#45;6712442493952616950 -->
<g id="edge25" class="edge">
<title>8675162574921516744&#45;&gt;&#45;6712442493952616950</title>
<path fill="none" stroke="#3b823b" stroke-width="1.02" d="M329.63,-254.43C297.22,-244.53 256.18,-231.98 222.18,-221.59"/>
<polygon fill="#3b823b" stroke="#3b823b" stroke-width="1.02" points="222.92,-218.16 212.33,-218.58 220.87,-224.85 222.92,-218.16"/>
</g>
<!-- &#45;226880188309400592 -->
<g id="node14" class="node">
<title>&#45;226880188309400592</title>
<polygon fill="#a6faa5" stroke="black" points="313.86,-127.23 122.86,-127.23 122.86,-91.23 313.86,-91.23 313.86,-127.23"/>
<text text-anchor="middle" x="218.36" y="-106.13" font-family="Times,serif" font-size="12.00">Receive Order Confirmation </text>
</g>
<!-- 8675162574921516744&#45;&gt;&#45;226880188309400592 -->
<g id="edge27" class="edge">
<title>8675162574921516744&#45;&gt;&#45;226880188309400592</title>
<path fill="none" stroke="#3b823b" stroke-width="1.1" d="M342.27,-254.4C323.64,-245.58 302.47,-233.5 286.36,-218.47 261.26,-195.05 241.66,-160.42 230.08,-136.67"/>
<polygon fill="#3b823b" stroke="#3b823b" stroke-width="1.1" points="233.2,-135.07 225.76,-127.53 226.87,-138.07 233.2,-135.07"/>
</g>
<!-- 8941812083731042042&#45;&gt;@@endnode -->
<g id="edge32" class="edge">
<title>8941812083731042042&#45;&gt;@@endnode</title>
<path fill="none" stroke="#3b823b" d="M660.14,-254.38C673.24,-245.36 687.61,-233.1 696.36,-218.47 707.37,-200.03 712.57,-176.91 714.94,-156.79"/>
<polygon fill="#3b823b" stroke="#3b823b" points="718.44,-156.87 715.93,-146.57 711.48,-156.19 718.44,-156.87"/>
</g>
<!-- 5461341578038645154 -->
<g id="node11" class="node">
<title>5461341578038645154</title>
<polygon fill="#ffffff" stroke="black" points="487.86,-506.47 264.86,-506.47 264.86,-470.47 487.86,-470.47 487.86,-506.47"/>
<text text-anchor="middle" x="376.36" y="-485.37" font-family="Times,serif" font-size="12.00">Create Purchase Requisition Item </text>
</g>
<!-- 5461341578038645154&#45;&gt;5171068905532438498 -->
<g id="edge17" class="edge">
<title>5461341578038645154&#45;&gt;5171068905532438498</title>
<path fill="none" stroke="#3b823b" stroke-width="1" d="M377.44,-470.34C378.98,-446.14 381.79,-401.68 383.62,-372.86"/>
<polygon fill="#3b823b" stroke="#3b823b" stroke-width="1" points="387.13,-372.86 384.27,-362.66 380.14,-372.42 387.13,-372.86"/>
</g>
<!-- 5461341578038645154&#45;&gt;&#45;4902265812805711147 -->
<g id="edge18" class="edge">
<title>5461341578038645154&#45;&gt;&#45;4902265812805711147</title>
<path fill="none" stroke="black" stroke-width="2.18" d="M417.7,-470.34C440.9,-460.73 470.05,-448.66 494.63,-438.48"/>
<polygon fill="black" stroke="black" stroke-width="2.18" points="496.25,-441.6 504.15,-434.54 493.57,-435.13 496.25,-441.6"/>
</g>
<!-- 5488738468185313816&#45;&gt;@@endnode -->
<g id="edge19" class="edge">
<title>5488738468185313816&#45;&gt;@@endnode</title>
<path fill="none" stroke="#3b823b" d="M617.07,-182.26C634.42,-169.68 658.32,-152.34 678.32,-137.83"/>
<polygon fill="#3b823b" stroke="#3b823b" points="680.58,-140.51 686.62,-131.81 676.47,-134.85 680.58,-140.51"/>
</g>
<!-- &#45;6712442493952616950&#45;&gt;&#45;226880188309400592 -->
<g id="edge20" class="edge">
<title>&#45;6712442493952616950&#45;&gt;&#45;226880188309400592</title>
<path fill="none" stroke="#3b823b" stroke-width="1.02" d="M168.31,-182.26C177.49,-169.05 190.3,-150.61 200.67,-135.7"/>
<polygon fill="#3b823b" stroke="#3b823b" stroke-width="1.02" points="203.61,-137.6 206.44,-127.39 197.86,-133.6 203.61,-137.6"/>
</g>
<!-- &#45;226880188309400592&#45;&gt;8928093050461230673 -->
<g id="edge31" class="edge">
<title>&#45;226880188309400592&#45;&gt;8928093050461230673</title>
<path fill="none" stroke="#3b823b" stroke-width="1.12" d="M218.36,-91.03C218.36,-78.44 218.36,-61.09 218.36,-46.57"/>
<polygon fill="#3b823b" stroke="#3b823b" stroke-width="1.12" points="221.86,-46.15 218.36,-36.15 214.86,-46.15 221.86,-46.15"/>
</g>
<!-- @@startnode -->
<g id="node15" class="node">
<title>@@startnode</title>
<ellipse fill="none" stroke="black" cx="554.36" cy="-647.7" rx="33.47" ry="33.47"/>
<text text-anchor="start" x="538.86" y="-639" font-family="Times,serif" font-size="34.00">●</text>
</g>
<!-- @@startnode&#45;&gt;&#45;8486058042542249863 -->
<g id="edge36" class="edge">
<title>@@startnode&#45;&gt;&#45;8486058042542249863</title>
<path fill="none" stroke="red" d="M584.86,-633.57C616.33,-620.03 665.9,-598.68 702.97,-582.73"/>
<polygon fill="red" stroke="red" points="704.78,-585.76 712.58,-578.59 702.01,-579.33 704.78,-585.76"/>
</g>
<!-- @@startnode&#45;&gt;5171068905532438498 -->
<g id="edge37" class="edge">
<title>@@startnode&#45;&gt;5171068905532438498</title>
<path fill="none" stroke="black" d="M521.24,-642.61C456.69,-632.64 315.17,-600.59 255.36,-506.47 221.64,-453.41 294.76,-397.66 344.41,-367.69"/>
<polygon fill="black" stroke="black" points="346.24,-370.67 353.08,-362.58 342.69,-364.65 346.24,-370.67"/>
</g>
<!-- @@startnode&#45;&gt;30601589414796702 -->
<g id="edge40" class="edge">
<title>@@startnode&#45;&gt;30601589414796702</title>
<path fill="none" stroke="#3b823b" d="M569.75,-618.23C585.57,-588.97 609.98,-543.81 625.3,-515.48"/>
<polygon fill="#3b823b" stroke="#3b823b" points="628.44,-517.03 630.11,-506.57 622.28,-513.7 628.44,-517.03"/>
</g>
<!-- @@startnode&#45;&gt;&#45;4902265812805711147 -->
<g id="edge38" class="edge">
<title>@@startnode&#45;&gt;&#45;4902265812805711147</title>
<path fill="none" stroke="black" d="M553.09,-614.34C551.3,-568.93 548.09,-487.1 546.42,-444.66"/>
<polygon fill="black" stroke="black" points="549.92,-444.38 546.03,-434.52 542.92,-444.65 549.92,-444.38"/>
</g>
<!-- @@startnode&#45;&gt;5461341578038645154 -->
<g id="edge39" class="edge">
<title>@@startnode&#45;&gt;5461341578038645154</title>
<path fill="none" stroke="black" d="M529.61,-624.84C496.44,-595.54 437.79,-543.74 403.47,-513.42"/>
<polygon fill="black" stroke="black" points="405.52,-510.56 395.71,-506.56 400.89,-515.8 405.52,-510.56"/>
</g>
</g>
</svg>
