<?xml version="1.0" encoding="UTF-8" standalone="no"?>
<!DOCTYPE svg PUBLIC "-//W3C//DTD SVG 1.1//EN"
 "http://www.w3.org/Graphics/SVG/1.1/DTD/svg11.dtd">
<!-- Generated by graphviz version 2.43.0 (0)
 -->
<!-- Title: %3 Pages: 1 -->
<svg width="278pt" height="260pt"
 viewBox="0.00 0.00 278.00 260.00" xmlns="http://www.w3.org/2000/svg" xmlns:xlink="http://www.w3.org/1999/xlink">
<g id="graph0" class="graph" transform="scale(1 1) rotate(0) translate(4 256)">
<title>%3</title>
<polygon fill="white" stroke="transparent" points="-4,4 -4,-256 274,-256 274,4 -4,4"/>
<!-- t0 -->
<g id="node1" class="node">
<title>t0</title>
<ellipse fill="#f0efed" stroke="#f0efed" cx="27" cy="-234" rx="27" ry="18"/>
<text text-anchor="middle" x="27" y="-230.3" font-family="Times,serif" font-size="14.00">t0</text>
</g>
<!-- t3 -->
<g id="node4" class="node">
<title>t3</title>
<ellipse fill="#f0efed" stroke="#f0efed" cx="63" cy="-162" rx="27" ry="18"/>
<text text-anchor="middle" x="63" y="-158.3" font-family="Times,serif" font-size="14.00">t3</text>
</g>
<!-- t0&#45;&gt;t3 -->
<g id="edge1" class="edge">
<title>t0&#45;&gt;t3</title>
<path fill="none" stroke="black" d="M35.35,-216.76C39.71,-208.28 45.15,-197.71 50.04,-188.2"/>
<polygon fill="black" stroke="black" points="53.23,-189.64 54.7,-179.15 47.01,-186.44 53.23,-189.64"/>
</g>
<!-- t1 -->
<g id="node2" class="node">
<title>t1</title>
<ellipse fill="#f0efed" stroke="#f0efed" cx="171" cy="-234" rx="27" ry="18"/>
<text text-anchor="middle" x="171" y="-230.3" font-family="Times,serif" font-size="14.00">t1</text>
</g>
<!-- t2 -->
<g id="node3" class="node">
<title>t2</title>
<ellipse fill="#f0efed" stroke="#f0efed" cx="99" cy="-234" rx="27" ry="18"/>
<text text-anchor="middle" x="99" y="-230.3" font-family="Times,serif" font-size="14.00">t2</text>
</g>
<!-- t2&#45;&gt;t3 -->
<g id="edge2" class="edge">
<title>t2&#45;&gt;t3</title>
<path fill="none" stroke="black" d="M90.65,-216.76C86.29,-208.28 80.85,-197.71 75.96,-188.2"/>
<polygon fill="black" stroke="black" points="78.99,-186.44 71.3,-179.15 72.77,-189.64 78.99,-186.44"/>
</g>
<!-- t6 -->
<g id="node7" class="node">
<title>t6</title>
<ellipse fill="#f0efed" stroke="#f0efed" cx="27" cy="-90" rx="27" ry="18"/>
<text text-anchor="middle" x="27" y="-86.3" font-family="Times,serif" font-size="14.00">t6</text>
</g>
<!-- t3&#45;&gt;t6 -->
<g id="edge3" class="edge">
<title>t3&#45;&gt;t6</title>
<path fill="none" stroke="black" d="M54.65,-144.76C50.29,-136.28 44.85,-125.71 39.96,-116.2"/>
<polygon fill="black" stroke="black" points="42.99,-114.44 35.3,-107.15 36.77,-117.64 42.99,-114.44"/>
</g>
<!-- t9 -->
<g id="node10" class="node">
<title>t9</title>
<ellipse fill="#f0efed" stroke="#f0efed" cx="99" cy="-90" rx="27" ry="18"/>
<text text-anchor="middle" x="99" y="-86.3" font-family="Times,serif" font-size="14.00">t9</text>
</g>
<!-- t3&#45;&gt;t9 -->
<g id="edge4" class="edge">
<title>t3&#45;&gt;t9</title>
<path fill="none" stroke="black" d="M71.35,-144.76C75.71,-136.28 81.15,-125.71 86.04,-116.2"/>
<polygon fill="black" stroke="black" points="89.23,-117.64 90.7,-107.15 83.01,-114.44 89.23,-117.64"/>
</g>
<!-- t4 -->
<g id="node5" class="node">
<title>t4</title>
<ellipse fill="#f0efed" stroke="#f0efed" cx="243" cy="-234" rx="27" ry="18"/>
<text text-anchor="middle" x="243" y="-230.3" font-family="Times,serif" font-size="14.00">t4</text>
</g>
<!-- t5 -->
<g id="node6" class="node">
<title>t5</title>
<ellipse fill="#f0efed" stroke="#f0efed" cx="27" cy="-18" rx="27" ry="18"/>
<text text-anchor="middle" x="27" y="-14.3" font-family="Times,serif" font-size="14.00">t5</text>
</g>
<!-- t6&#45;&gt;t5 -->
<g id="edge5" class="edge">
<title>t6&#45;&gt;t5</title>
<path fill="none" stroke="black" d="M27,-71.7C27,-63.98 27,-54.71 27,-46.11"/>
<polygon fill="black" stroke="black" points="30.5,-46.1 27,-36.1 23.5,-46.1 30.5,-46.1"/>
</g>
<!-- t7 -->
<g id="node8" class="node">
<title>t7</title>
<ellipse fill="#f0efed" stroke="#f0efed" cx="99" cy="-18" rx="27" ry="18"/>
<text text-anchor="middle" x="99" y="-14.3" font-family="Times,serif" font-size="14.00">t7</text>
</g>
<!-- t8 -->
<g id="node9" class="node">
<title>t8</title>
<ellipse fill="#f0efed" stroke="#f0efed" cx="171" cy="-18" rx="27" ry="18"/>
<text text-anchor="middle" x="171" y="-14.3" font-family="Times,serif" font-size="14.00">t8</text>
</g>
<!-- t9&#45;&gt;t5 -->
<g id="edge6" class="edge">
<title>t9&#45;&gt;t5</title>
<path fill="none" stroke="black" d="M84.43,-74.83C74.25,-64.94 60.48,-51.55 48.97,-40.36"/>
<polygon fill="black" stroke="black" points="51.41,-37.85 41.8,-33.38 46.53,-42.87 51.41,-37.85"/>
</g>
<!-- t9&#45;&gt;t7 -->
<g id="edge7" class="edge">
<title>t9&#45;&gt;t7</title>
<path fill="none" stroke="black" d="M99,-71.7C99,-63.98 99,-54.71 99,-46.11"/>
<polygon fill="black" stroke="black" points="102.5,-46.1 99,-36.1 95.5,-46.1 102.5,-46.1"/>
</g>
<!-- t9&#45;&gt;t8 -->
<g id="edge8" class="edge">
<title>t9&#45;&gt;t8</title>
<path fill="none" stroke="black" d="M113.57,-74.83C123.75,-64.94 137.52,-51.55 149.03,-40.36"/>
<polygon fill="black" stroke="black" points="151.47,-42.87 156.2,-33.38 146.59,-37.85 151.47,-42.87"/>
</g>
</g>
</svg>
