<?xml version="1.0" encoding="UTF-8" standalone="no"?>
<!DOCTYPE svg PUBLIC "-//W3C//DTD SVG 1.1//EN"
 "http://www.w3.org/Graphics/SVG/1.1/DTD/svg11.dtd">
<!-- Generated by graphviz version 2.40.1 (20161225.0304)
 -->
<!-- Title: %3 Pages: 1 -->
<svg width="545pt" height="953pt"
 viewBox="0.00 0.00 544.66 952.55" xmlns="http://www.w3.org/2000/svg" xmlns:xlink="http://www.w3.org/1999/xlink">
<g id="graph0" class="graph" transform="scale(1 1) rotate(0) translate(4 948.5549)">
<title>%3</title>
<polygon fill="#ffffff" stroke="transparent" points="-4,4 -4,-948.5549 540.6621,-948.5549 540.6621,4 -4,4"/>
<!-- &#45;8367693661441000382 -->
<g id="node1" class="node">
<title>&#45;8367693661441000382</title>
<polygon fill="#ffffff" stroke="#000000" points="472.4867,-828.6119 328.8375,-828.6119 328.8375,-792.6119 472.4867,-792.6119 472.4867,-828.6119"/>
<text text-anchor="middle" x="400.6621" y="-807.0119" font-family="Times,serif" font-size="12.00" fill="#000000">LAPACK.potrf_3.33e+05 </text>
</g>
<!-- 3557170659392005425 -->
<g id="node2" class="node">
<title>3557170659392005425</title>
<polygon fill="#ffffff" stroke="#000000" points="401.4164,-408.6119 319.9078,-408.6119 319.9078,-372.6119 401.4164,-372.6119 401.4164,-408.6119"/>
<text text-anchor="middle" x="360.6621" y="-387.0119" font-family="Times,serif" font-size="12.00" fill="#000000">gemv_2e+05 </text>
</g>
<!-- &#45;8367693661441000382&#45;&gt;3557170659392005425 -->
<g id="edge1" class="edge">
<title>&#45;8367693661441000382&#45;&gt;3557170659392005425</title>
<path fill="none" stroke="#000000" stroke-width="1.64" d="M432.838,-792.5954C454.324,-777.9456 478.6621,-755.0703 478.6621,-726.6119 478.6621,-726.6119 478.6621,-726.6119 478.6621,-474.6119 478.6621,-450.7605 472.3326,-442.6319 454.6621,-426.6119 442.5549,-415.6355 426.7497,-407.8745 411.5637,-402.4444"/>
<polygon fill="#000000" stroke="#000000" stroke-width="1.64" points="412.312,-399.006 401.719,-399.2024 410.1224,-405.6547 412.312,-399.006"/>
<text text-anchor="middle" x="484.6621" y="-597.0119" font-family="Times,serif" font-size="12.00" fill="#000000">30</text>
</g>
<!-- 5880624865800644497 -->
<g id="node3" class="node">
<title>5880624865800644497</title>
<polygon fill="#f0b4b6" stroke="#000000" points="343.091,-744.6119 266.2332,-744.6119 266.2332,-708.6119 343.091,-708.6119 343.091,-744.6119"/>
<text text-anchor="middle" x="304.6621" y="-723.0119" font-family="Times,serif" font-size="12.00" fill="#000000">trsm_1e+07 </text>
</g>
<!-- &#45;8367693661441000382&#45;&gt;5880624865800644497 -->
<g id="edge2" class="edge">
<title>&#45;8367693661441000382&#45;&gt;5880624865800644497</title>
<path fill="none" stroke="#ff0000" d="M379.8315,-792.3851C366.1193,-780.3869 347.9963,-764.5293 332.981,-751.3909"/>
<polygon fill="#ff0000" stroke="#ff0000" points="335.2826,-748.7541 325.452,-744.8031 330.673,-754.0222 335.2826,-748.7541"/>
<text text-anchor="middle" x="363.6621" y="-765.0119" font-family="Times,serif" font-size="12.00" fill="#000000">10</text>
</g>
<!-- 8690000187233966956 -->
<g id="node4" class="node">
<title>8690000187233966956</title>
<polygon fill="#ffffff" stroke="#000000" points="451.2559,-156.6119 378.0683,-156.6119 378.0683,-120.6119 451.2559,-120.6119 451.2559,-156.6119"/>
<text text-anchor="middle" x="414.6621" y="-135.0119" font-family="Times,serif" font-size="12.00" fill="#000000">trsv_1e+04 </text>
</g>
<!-- &#45;8367693661441000382&#45;&gt;8690000187233966956 -->
<g id="edge3" class="edge">
<title>&#45;8367693661441000382&#45;&gt;8690000187233966956</title>
<path fill="none" stroke="#000000" stroke-width="1.32" d="M465.2044,-792.5152C495.3342,-779.7372 524.6621,-758.9847 524.6621,-726.6119 524.6621,-726.6119 524.6621,-726.6119 524.6621,-222.6119 524.6621,-188.5709 490.9756,-166.4816 460.8862,-153.5408"/>
<polygon fill="#000000" stroke="#000000" stroke-width="1.32" points="461.8732,-150.1646 451.2905,-149.6572 459.247,-156.6533 461.8732,-150.1646"/>
<text text-anchor="middle" x="530.6621" y="-471.0119" font-family="Times,serif" font-size="12.00" fill="#000000">20</text>
</g>
<!-- &#45;1332502261500328178 -->
<g id="node5" class="node">
<title>&#45;1332502261500328178</title>
<polygon fill="#ffffff" stroke="#000000" points="273.2559,-660.6119 200.0683,-660.6119 200.0683,-624.6119 273.2559,-624.6119 273.2559,-660.6119"/>
<text text-anchor="middle" x="236.6621" y="-639.0119" font-family="Times,serif" font-size="12.00" fill="#000000">trsv_1e+06 </text>
</g>
<!-- &#45;8367693661441000382&#45;&gt;&#45;1332502261500328178 -->
<g id="edge4" class="edge">
<title>&#45;8367693661441000382&#45;&gt;&#45;1332502261500328178</title>
<path fill="none" stroke="#ff0000" stroke-width="1.64" d="M328.9834,-797.2459C298.4237,-787.7694 265.341,-771.7085 245.6621,-744.6119 230.3109,-723.4741 229.6183,-692.9933 231.8137,-670.8611"/>
<polygon fill="#ff0000" stroke="#ff0000" stroke-width="1.64" points="235.3109,-671.1 233.0718,-660.7445 228.3644,-670.236 235.3109,-671.1"/>
<text text-anchor="middle" x="251.6621" y="-723.0119" font-family="Times,serif" font-size="12.00" fill="#000000">30</text>
</g>
<!-- 3557170659392005425&#45;&gt;&#45;8367693661441000382 -->
<g id="edge10" class="edge">
<title>3557170659392005425&#45;&gt;&#45;8367693661441000382</title>
<path fill="none" stroke="#000000" stroke-width="1.32" d="M394.1258,-408.736C416.0479,-423.2975 440.6621,-446.0147 440.6621,-474.6119 440.6621,-726.6119 440.6621,-726.6119 440.6621,-726.6119 440.6621,-747.1355 430.8081,-767.9793 420.8818,-783.7695"/>
<polygon fill="#000000" stroke="#000000" stroke-width="1.32" points="417.7356,-782.1793 415.103,-792.4419 423.5608,-786.0609 417.7356,-782.1793"/>
<text text-anchor="middle" x="446.6621" y="-597.0119" font-family="Times,serif" font-size="12.00" fill="#000000">20</text>
</g>
<!-- 3557170659392005425&#45;&gt;8690000187233966956 -->
<g id="edge12" class="edge">
<title>3557170659392005425&#45;&gt;8690000187233966956</title>
<path fill="none" stroke="#000000" stroke-width="2.28" d="M362.8551,-372.4671C367.1078,-338.9732 377.4176,-265.31 392.6621,-204.6119 395.8478,-191.9275 400.2745,-178.1655 404.3225,-166.507"/>
<polygon fill="#000000" stroke="#000000" stroke-width="2.28" points="407.6919,-167.4777 407.7416,-156.883 401.0958,-165.1343 407.6919,-167.4777"/>
<text text-anchor="middle" x="386.6621" y="-261.0119" font-family="Times,serif" font-size="12.00" fill="#000000">50</text>
</g>
<!-- 863550679853941746 -->
<g id="node10" class="node">
<title>863550679853941746</title>
<polygon fill="#f0b4b6" stroke="#000000" points="482.752,-324.6119 402.5722,-324.6119 402.5722,-288.6119 482.752,-288.6119 482.752,-324.6119"/>
<text text-anchor="middle" x="442.6621" y="-303.0119" font-family="Times,serif" font-size="12.00" fill="#000000">qr_2.67e+06 </text>
</g>
<!-- 3557170659392005425&#45;&gt;863550679853941746 -->
<g id="edge11" class="edge">
<title>3557170659392005425&#45;&gt;863550679853941746</title>
<path fill="none" stroke="#ff0000" d="M378.4549,-372.3851C389.9525,-360.6071 405.0807,-345.11 417.7644,-332.1168"/>
<polygon fill="#ff0000" stroke="#ff0000" points="420.4232,-334.4037 424.9041,-324.8031 415.4141,-329.5139 420.4232,-334.4037"/>
<text text-anchor="middle" x="411.6621" y="-345.0119" font-family="Times,serif" font-size="12.00" fill="#000000">10</text>
</g>
<!-- @@endnode -->
<g id="node11" class="node">
<title>@@endnode</title>
<ellipse fill="none" stroke="#000000" cx="349.6621" cy="-36.3059" rx="32.1342" ry="32.1342"/>
<ellipse fill="none" stroke="#000000" cx="349.6621" cy="-36.3059" rx="36.1129" ry="36.1129"/>
<text text-anchor="start" x="340.9902" y="-29.5497" font-family="Times,serif" font-size="32.00" fill="#000000">■</text>
</g>
<!-- 3557170659392005425&#45;&gt;@@endnode -->
<g id="edge13" class="edge">
<title>3557170659392005425&#45;&gt;@@endnode</title>
<path fill="none" stroke="#ff0000" d="M351.2188,-372.4677C343.4328,-355.8079 333.6621,-330.2019 333.6621,-306.6119 333.6621,-306.6119 333.6621,-306.6119 333.6621,-138.6119 333.6621,-119.9772 336.2853,-99.6602 339.4074,-82.0782"/>
<polygon fill="#ff0000" stroke="#ff0000" points="342.8799,-82.5502 341.2872,-72.0757 336.0003,-81.2572 342.8799,-82.5502"/>
<text text-anchor="middle" x="339.6621" y="-219.0119" font-family="Times,serif" font-size="12.00" fill="#000000">20</text>
</g>
<!-- 5880624865800644497&#45;&gt;3557170659392005425 -->
<g id="edge18" class="edge">
<title>5880624865800644497&#45;&gt;3557170659392005425</title>
<path fill="none" stroke="#ff0000" stroke-width="1.64" d="M307.6729,-708.5471C316.8836,-653.283 344.7333,-486.185 355.9278,-419.018"/>
<polygon fill="#ff0000" stroke="#ff0000" stroke-width="1.64" points="359.4447,-419.2054 357.6364,-408.766 352.54,-418.0545 359.4447,-419.2054"/>
<text text-anchor="middle" x="340.6621" y="-555.0119" font-family="Times,serif" font-size="12.00" fill="#000000">30</text>
</g>
<!-- 5880624865800644497&#45;&gt;5880624865800644497 -->
<g id="edge19" class="edge">
<title>5880624865800644497&#45;&gt;5880624865800644497</title>
<path fill="none" stroke="#ff0000" stroke-width="1.32" d="M343.022,-734.4177C353.1813,-733.9716 360.876,-731.3697 360.876,-726.6119 360.876,-723.6382 357.8703,-721.5068 353.1357,-720.2174"/>
<polygon fill="#ff0000" stroke="#ff0000" stroke-width="1.32" points="353.4098,-716.7218 343.022,-718.8061 352.4423,-723.6547 353.4098,-716.7218"/>
<text text-anchor="middle" x="366.876" y="-723.0119" font-family="Times,serif" font-size="12.00" fill="#000000">20</text>
</g>
<!-- 5880624865800644497&#45;&gt;&#45;1332502261500328178 -->
<g id="edge20" class="edge">
<title>5880624865800644497&#45;&gt;&#45;1332502261500328178</title>
<path fill="none" stroke="#ff0000" d="M298.7644,-708.6035C295.087,-699.0744 289.7053,-687.5339 282.6621,-678.6119 279.6028,-674.7365 276.0433,-671.033 272.2846,-667.5763"/>
<polygon fill="#ff0000" stroke="#ff0000" points="274.2689,-664.6691 264.3858,-660.8514 269.731,-669.999 274.2689,-664.6691"/>
<text text-anchor="middle" x="296.6621" y="-681.0119" font-family="Times,serif" font-size="12.00" fill="#000000">10</text>
</g>
<!-- 8690000187233966956&#45;&gt;8690000187233966956 -->
<g id="edge24" class="edge">
<title>8690000187233966956&#45;&gt;8690000187233966956</title>
<path fill="none" stroke="#000000" stroke-width="2.28" d="M451.3725,-146.0661C461.4828,-145.706 469.209,-143.2213 469.209,-138.6119 469.209,-135.731 466.191,-133.6801 461.4591,-132.4591"/>
<polygon fill="#000000" stroke="#000000" stroke-width="2.28" points="461.7382,-128.9662 451.3725,-131.1577 460.8423,-135.9086 461.7382,-128.9662"/>
<text text-anchor="middle" x="475.209" y="-135.0119" font-family="Times,serif" font-size="12.00" fill="#000000">50</text>
</g>
<!-- 8690000187233966956&#45;&gt;@@endnode -->
<g id="edge25" class="edge">
<title>8690000187233966956&#45;&gt;@@endnode</title>
<path fill="none" stroke="#000000" d="M403.0414,-120.3216C395.2269,-108.0221 384.6196,-91.3269 374.9193,-76.0592"/>
<polygon fill="#000000" stroke="#000000" points="377.6575,-73.8423 369.3406,-67.2787 371.7492,-77.5962 377.6575,-73.8423"/>
<text text-anchor="middle" x="397.6621" y="-93.0119" font-family="Times,serif" font-size="12.00" fill="#000000">80</text>
</g>
<!-- &#45;1332502261500328178&#45;&gt;3557170659392005425 -->
<g id="edge27" class="edge">
<title>&#45;1332502261500328178&#45;&gt;3557170659392005425</title>
<path fill="none" stroke="#ff0000" d="M199.8364,-627.0041C179.272,-616.1417 155.4744,-599.4793 143.6621,-576.6119 134.0748,-558.0517 123.8138,-484.4341 144.6621,-456.6119 164.5148,-430.1182 252.157,-409.8597 309.521,-399.138"/>
<polygon fill="#ff0000" stroke="#ff0000" points="310.2986,-402.5539 319.505,-397.3106 309.0383,-395.6683 310.2986,-402.5539"/>
<text text-anchor="middle" x="139.6621" y="-513.0119" font-family="Times,serif" font-size="12.00" fill="#000000">10</text>
</g>
<!-- &#45;1332502261500328178&#45;&gt;5880624865800644497 -->
<g id="edge29" class="edge">
<title>&#45;1332502261500328178&#45;&gt;5880624865800644497</title>
<path fill="none" stroke="#ff0000" stroke-width="1.64" d="M247.2267,-661.0616C252.836,-670.2801 260.119,-681.4026 267.6621,-690.6119 270.5513,-694.1393 273.7535,-697.6865 277.0301,-701.1063"/>
<polygon fill="#ff0000" stroke="#ff0000" stroke-width="1.64" points="274.6919,-703.7183 284.2294,-708.3321 279.6507,-698.7777 274.6919,-703.7183"/>
<text text-anchor="middle" x="273.6621" y="-681.0119" font-family="Times,serif" font-size="12.00" fill="#000000">30</text>
</g>
<!-- &#45;1332502261500328178&#45;&gt;&#45;1332502261500328178 -->
<g id="edge31" class="edge">
<title>&#45;1332502261500328178&#45;&gt;&#45;1332502261500328178</title>
<path fill="none" stroke="#ff0000" stroke-width="1.64" d="M273.3725,-650.4388C283.4828,-650.0607 291.209,-647.4517 291.209,-642.6119 291.209,-639.587 288.191,-637.4335 283.4591,-636.1515"/>
<polygon fill="#ff0000" stroke="#ff0000" stroke-width="1.64" points="283.7518,-632.6592 273.3725,-634.7849 282.812,-639.5959 283.7518,-632.6592"/>
<text text-anchor="middle" x="297.209" y="-639.0119" font-family="Times,serif" font-size="12.00" fill="#000000">30</text>
</g>
<!-- &#45;8654233465002196991 -->
<g id="node7" class="node">
<title>&#45;8654233465002196991</title>
<polygon fill="#ffffff" stroke="#000000" points="229.091,-576.6119 152.2332,-576.6119 152.2332,-540.6119 229.091,-540.6119 229.091,-576.6119"/>
<text text-anchor="middle" x="190.6621" y="-555.0119" font-family="Times,serif" font-size="12.00" fill="#000000">trsm_1e+08 </text>
</g>
<!-- &#45;1332502261500328178&#45;&gt;&#45;8654233465002196991 -->
<g id="edge30" class="edge">
<title>&#45;1332502261500328178&#45;&gt;&#45;8654233465002196991</title>
<path fill="none" stroke="#000000" stroke-width="1.96" d="M210.1049,-624.5074C204.4501,-619.3841 199.1414,-613.344 195.6621,-606.6119 192.5823,-600.6527 190.9398,-593.7261 190.1368,-587.0201"/>
<polygon fill="#000000" stroke="#000000" stroke-width="1.96" points="193.6164,-586.5883 189.4802,-576.8342 186.6309,-587.0387 193.6164,-586.5883"/>
<text text-anchor="middle" x="201.6621" y="-597.0119" font-family="Times,serif" font-size="12.00" fill="#000000">40</text>
</g>
<!-- 4424332717186824161 -->
<g id="node8" class="node">
<title>4424332717186824161</title>
<polygon fill="#ffffff" stroke="#000000" points="239.25,-492.6119 154.0742,-492.6119 154.0742,-456.6119 239.25,-456.6119 239.25,-492.6119"/>
<text text-anchor="middle" x="196.6621" y="-471.0119" font-family="Times,serif" font-size="12.00" fill="#000000">gemm_2e+07 </text>
</g>
<!-- &#45;1332502261500328178&#45;&gt;4424332717186824161 -->
<g id="edge26" class="edge">
<title>&#45;1332502261500328178&#45;&gt;4424332717186824161</title>
<path fill="none" stroke="#000000" stroke-width="1.32" d="M244.8064,-624.2882C255.3624,-597.5859 270.2354,-547.1849 250.6621,-510.6119 248.4798,-506.5342 245.6091,-502.8387 242.3267,-499.5075"/>
<polygon fill="#000000" stroke="#000000" stroke-width="1.32" points="244.4366,-496.7042 234.5912,-492.7903 239.8469,-501.9896 244.4366,-496.7042"/>
<text text-anchor="middle" x="266.6621" y="-555.0119" font-family="Times,serif" font-size="12.00" fill="#000000">20</text>
</g>
<!-- 6890908954461094879 -->
<g id="node12" class="node">
<title>6890908954461094879</title>
<polygon fill="#ffffff" stroke="#000000" points="332.4223,-492.6119 256.902,-492.6119 256.902,-456.6119 332.4223,-456.6119 332.4223,-492.6119"/>
<text text-anchor="middle" x="294.6621" y="-471.0119" font-family="Times,serif" font-size="12.00" fill="#000000">syrk_1e+07 </text>
</g>
<!-- &#45;1332502261500328178&#45;&gt;6890908954461094879 -->
<g id="edge28" class="edge">
<title>&#45;1332502261500328178&#45;&gt;6890908954461094879</title>
<path fill="none" stroke="#000000" d="M253.9631,-624.5297C258.5443,-619.0748 263.178,-612.8663 266.6621,-606.6119 284.7781,-574.091 291.1924,-531.0834 293.4519,-503.1382"/>
<polygon fill="#000000" stroke="#000000" points="296.9639,-503.0799 294.1498,-492.8656 289.98,-502.6054 296.9639,-503.0799"/>
<text text-anchor="middle" x="294.6621" y="-555.0119" font-family="Times,serif" font-size="12.00" fill="#000000">10</text>
</g>
<!-- 3992111322530778778 -->
<g id="node6" class="node">
<title>3992111322530778778</title>
<polygon fill="#ffffff" stroke="#000000" points="143.4867,-744.6119 -.1625,-744.6119 -.1625,-708.6119 143.4867,-708.6119 143.4867,-744.6119"/>
<text text-anchor="middle" x="71.6621" y="-723.0119" font-family="Times,serif" font-size="12.00" fill="#000000">LAPACK.potrf_3.33e+08 </text>
</g>
<!-- 3992111322530778778&#45;&gt;&#45;1332502261500328178 -->
<g id="edge6" class="edge">
<title>3992111322530778778&#45;&gt;&#45;1332502261500328178</title>
<path fill="none" stroke="#000000" stroke-width="1.96" d="M107.0587,-708.5918C131.8774,-695.9568 165.2489,-678.9677 191.913,-665.3932"/>
<polygon fill="#000000" stroke="#000000" stroke-width="1.96" points="193.716,-668.4029 201.0397,-660.7469 190.5402,-662.1647 193.716,-668.4029"/>
<text text-anchor="middle" x="170.6621" y="-681.0119" font-family="Times,serif" font-size="12.00" fill="#000000">40</text>
</g>
<!-- 3992111322530778778&#45;&gt;&#45;8654233465002196991 -->
<g id="edge5" class="edge">
<title>3992111322530778778&#45;&gt;&#45;8654233465002196991</title>
<path fill="none" stroke="#000000" stroke-width="2.6" d="M80.5954,-708.5764C91.3112,-687.6164 110.3833,-652.36 130.6621,-624.6119 141.0056,-610.4586 153.9337,-595.9168 165.1381,-584.0976"/>
<polygon fill="#000000" stroke="#000000" stroke-width="2.6" points="167.7929,-586.3866 172.2076,-576.7553 162.7503,-581.5314 167.7929,-586.3866"/>
<text text-anchor="middle" x="136.6621" y="-639.0119" font-family="Times,serif" font-size="12.00" fill="#000000">60</text>
</g>
<!-- &#45;8654233465002196991&#45;&gt;&#45;1332502261500328178 -->
<g id="edge23" class="edge">
<title>&#45;8654233465002196991&#45;&gt;&#45;1332502261500328178</title>
<path fill="none" stroke="#000000" stroke-width="1.64" d="M200.6239,-576.8031C206.8288,-588.1336 214.924,-602.9161 221.8698,-615.5998"/>
<polygon fill="#000000" stroke="#000000" stroke-width="1.64" points="218.8078,-617.2953 226.6808,-624.3851 224.9474,-613.933 218.8078,-617.2953"/>
<text text-anchor="middle" x="222.6621" y="-597.0119" font-family="Times,serif" font-size="12.00" fill="#000000">30</text>
</g>
<!-- &#45;8654233465002196991&#45;&gt;4424332717186824161 -->
<g id="edge21" class="edge">
<title>&#45;8654233465002196991&#45;&gt;4424332717186824161</title>
<path fill="none" stroke="#000000" d="M191.964,-540.3851C192.7424,-529.4877 193.7482,-515.4065 194.6293,-503.0706"/>
<polygon fill="#000000" stroke="#000000" points="198.1413,-503.027 195.3627,-492.8031 191.1591,-502.5283 198.1413,-503.027"/>
<text text-anchor="middle" x="200.6621" y="-513.0119" font-family="Times,serif" font-size="12.00" fill="#000000">10</text>
</g>
<!-- &#45;8654233465002196991&#45;&gt;6890908954461094879 -->
<g id="edge22" class="edge">
<title>&#45;8654233465002196991&#45;&gt;6890908954461094879</title>
<path fill="none" stroke="#000000" stroke-width="2.6" d="M212.9727,-540.5918C227.8137,-528.6048 247.5069,-512.6988 263.8389,-499.5076"/>
<polygon fill="#000000" stroke="#000000" stroke-width="2.6" points="266.4493,-501.8982 272.0295,-492.892 262.0509,-496.4526 266.4493,-501.8982"/>
<text text-anchor="middle" x="255.6621" y="-513.0119" font-family="Times,serif" font-size="12.00" fill="#000000">60</text>
</g>
<!-- 4424332717186824161&#45;&gt;&#45;8367693661441000382 -->
<g id="edge7" class="edge">
<title>4424332717186824161&#45;&gt;&#45;8367693661441000382</title>
<path fill="none" stroke="#000000" stroke-width="1.32" d="M154.0131,-488.3206C143.9828,-493.6481 134.5187,-500.8847 128.6621,-510.6119 125.9111,-515.181 127.9418,-517.3274 128.6621,-522.6119 143.2775,-629.8351 162.2152,-659.1998 228.6621,-744.6119 240.2403,-759.4948 242.2689,-765.2943 258.6621,-774.6119 276.9985,-785.0339 298.3564,-792.4814 318.854,-797.788"/>
<polygon fill="#000000" stroke="#000000" stroke-width="1.32" points="318.2854,-801.2519 328.8303,-800.2246 319.9464,-794.4518 318.2854,-801.2519"/>
<text text-anchor="middle" x="175.6621" y="-639.0119" font-family="Times,serif" font-size="12.00" fill="#000000">20</text>
</g>
<!-- 4424332717186824161&#45;&gt;3557170659392005425 -->
<g id="edge8" class="edge">
<title>4424332717186824161&#45;&gt;3557170659392005425</title>
<path fill="none" stroke="#000000" d="M231.8442,-456.5918C256.5124,-443.9568 289.6818,-426.9677 316.1843,-413.3932"/>
<polygon fill="#000000" stroke="#000000" points="317.9507,-416.4209 325.2556,-408.7469 314.7596,-410.1906 317.9507,-416.4209"/>
<text text-anchor="middle" x="294.6621" y="-429.0119" font-family="Times,serif" font-size="12.00" fill="#000000">10</text>
</g>
<!-- 5426699538111888402 -->
<g id="node9" class="node">
<title>5426699538111888402</title>
<polygon fill="#f0b4b6" stroke="#000000" points="483.4164,-240.6119 401.9078,-240.6119 401.9078,-204.6119 483.4164,-204.6119 483.4164,-240.6119"/>
<text text-anchor="middle" x="442.6621" y="-219.0119" font-family="Times,serif" font-size="12.00" fill="#000000">gemv_2e+04 </text>
</g>
<!-- 5426699538111888402&#45;&gt;8690000187233966956 -->
<g id="edge9" class="edge">
<title>5426699538111888402&#45;&gt;8690000187233966956</title>
<path fill="none" stroke="#ff0000" d="M436.5865,-204.3851C432.8807,-193.2675 428.0702,-178.8363 423.8999,-166.3251"/>
<polygon fill="#ff0000" stroke="#ff0000" points="427.2086,-165.1831 420.7258,-156.8031 420.5678,-167.3967 427.2086,-165.1831"/>
<text text-anchor="middle" x="435.6621" y="-177.0119" font-family="Times,serif" font-size="12.00" fill="#000000">10</text>
</g>
<!-- 863550679853941746&#45;&gt;5426699538111888402 -->
<g id="edge14" class="edge">
<title>863550679853941746&#45;&gt;5426699538111888402</title>
<path fill="none" stroke="#ff0000" d="M442.6621,-288.3851C442.6621,-277.4877 442.6621,-263.4065 442.6621,-251.0706"/>
<polygon fill="#ff0000" stroke="#ff0000" points="446.1622,-250.803 442.6621,-240.8031 439.1622,-250.8031 446.1622,-250.803"/>
<text text-anchor="middle" x="448.6621" y="-261.0119" font-family="Times,serif" font-size="12.00" fill="#000000">10</text>
</g>
<!-- 6890908954461094879&#45;&gt;&#45;8367693661441000382 -->
<g id="edge15" class="edge">
<title>6890908954461094879&#45;&gt;&#45;8367693661441000382</title>
<path fill="none" stroke="#000000" stroke-width="2.28" d="M332.6311,-487.1415C363.0467,-499.8495 400.6621,-522.8041 400.6621,-558.6119 400.6621,-726.6119 400.6621,-726.6119 400.6621,-726.6119 400.6621,-745.0963 400.6621,-765.8686 400.6621,-782.132"/>
<polygon fill="#000000" stroke="#000000" stroke-width="2.28" points="397.1622,-782.5874 400.6621,-792.5874 404.1622,-782.5875 397.1622,-782.5874"/>
<text text-anchor="middle" x="406.6621" y="-639.0119" font-family="Times,serif" font-size="12.00" fill="#000000">50</text>
</g>
<!-- 6890908954461094879&#45;&gt;3557170659392005425 -->
<g id="edge16" class="edge">
<title>6890908954461094879&#45;&gt;3557170659392005425</title>
<path fill="none" stroke="#000000" stroke-width="1.32" d="M308.9831,-456.3851C318.0643,-444.8272 329.9595,-429.688 340.048,-416.848"/>
<polygon fill="#000000" stroke="#000000" stroke-width="1.32" points="342.9429,-418.8287 346.369,-408.8031 337.4387,-414.5039 342.9429,-418.8287"/>
<text text-anchor="middle" x="336.6621" y="-429.0119" font-family="Times,serif" font-size="12.00" fill="#000000">20</text>
</g>
<!-- 3378924298084118006 -->
<g id="node13" class="node">
<title>3378924298084118006</title>
<polygon fill="#f0b4b6" stroke="#000000" points="152.9851,-828.6119 76.3392,-828.6119 76.3392,-792.6119 152.9851,-792.6119 152.9851,-828.6119"/>
<text text-anchor="middle" x="114.6621" y="-807.0119" font-family="Times,serif" font-size="12.00" fill="#000000">transpose_1 </text>
</g>
<!-- 3378924298084118006&#45;&gt;3992111322530778778 -->
<g id="edge17" class="edge">
<title>3378924298084118006&#45;&gt;3992111322530778778</title>
<path fill="none" stroke="#ff0000" stroke-width="1.96" d="M105.3317,-792.3851C99.5843,-781.1575 92.1067,-766.5502 85.6587,-753.9541"/>
<polygon fill="#ff0000" stroke="#ff0000" stroke-width="1.96" points="88.6465,-752.1097 80.9743,-744.8031 82.4155,-755.2994 88.6465,-752.1097"/>
<text text-anchor="middle" x="102.6621" y="-765.0119" font-family="Times,serif" font-size="12.00" fill="#000000">40</text>
</g>
<!-- @@startnode -->
<g id="node14" class="node">
<title>@@startnode</title>
<ellipse fill="none" stroke="#000000" cx="62.6621" cy="-910.5834" rx="33.943" ry="33.943"/>
<text text-anchor="start" x="52.834" y="-903.4049" font-family="Times,serif" font-size="34.00" fill="#000000">●</text>
</g>
<!-- @@startnode&#45;&gt;3992111322530778778 -->
<g id="edge32" class="edge">
<title>@@startnode&#45;&gt;3992111322530778778</title>
<path fill="none" stroke="#000000" d="M57.492,-876.9272C54.6332,-853.2756 52.2787,-820.9294 55.6621,-792.6119 57.1614,-780.0635 60.2102,-766.4526 63.248,-754.8689"/>
<polygon fill="#000000" stroke="#000000" points="66.7155,-755.4593 65.99,-744.8893 59.9656,-753.6046 66.7155,-755.4593"/>
<text text-anchor="middle" x="61.6621" y="-807.0119" font-family="Times,serif" font-size="12.00" fill="#000000">60</text>
</g>
<!-- @@startnode&#45;&gt;3378924298084118006 -->
<g id="edge33" class="edge">
<title>@@startnode&#45;&gt;3378924298084118006</title>
<path fill="none" stroke="#ff0000" d="M78.4049,-880.3173C85.4287,-866.8139 93.6419,-851.0238 100.4735,-837.8899"/>
<polygon fill="#ff0000" stroke="#ff0000" points="103.6575,-839.3532 105.167,-828.8664 97.4473,-836.123 103.6575,-839.3532"/>
<text text-anchor="middle" x="101.6621" y="-849.0119" font-family="Times,serif" font-size="12.00" fill="#000000">40</text>
</g>
</g>
</svg>
