<?xml version="1.0" encoding="UTF-8" standalone="no"?>
<!DOCTYPE svg PUBLIC "-//W3C//DTD SVG 1.1//EN"
 "http://www.w3.org/Graphics/SVG/1.1/DTD/svg11.dtd">
<!-- Generated by graphviz version 2.40.1 (20161225.0304)
 -->
<!-- Title: %3 Pages: 1 -->
<svg width="1467pt" height="440pt"
 viewBox="0.00 0.00 1466.50 439.97" xmlns="http://www.w3.org/2000/svg" xmlns:xlink="http://www.w3.org/1999/xlink">
<g id="graph0" class="graph" transform="scale(1 1) rotate(0) translate(4 435.9715)">
<title>%3</title>
<polygon fill="#ffffff" stroke="transparent" points="-4,4 -4,-435.9715 1462.5041,-435.9715 1462.5041,4 -4,4"/>
<!-- 3120725309898678488 -->
<g id="node1" class="node">
<title>3120725309898678488</title>
<polygon fill="#ffffff" stroke="#000000" points="259.4297,-313.9715 115.7805,-313.9715 115.7805,-277.9715 259.4297,-277.9715 259.4297,-313.9715"/>
<text text-anchor="middle" x="187.6051" y="-292.3715" font-family="Times,serif" font-size="12.00" fill="#000000">LAPACK.potrf_3.33e+05 </text>
</g>
<!-- 41006130293410693 -->
<g id="node2" class="node">
<title>41006130293410693</title>
<polygon fill="#ffffff" stroke="#000000" points="958.8321,-275.9715 877.3235,-275.9715 877.3235,-239.9715 958.8321,-239.9715 958.8321,-275.9715"/>
<text text-anchor="middle" x="918.0778" y="-254.3715" font-family="Times,serif" font-size="12.00" fill="#000000">gemv_2e+05 </text>
</g>
<!-- 3120725309898678488&#45;&gt;41006130293410693 -->
<g id="edge1" class="edge">
<title>3120725309898678488&#45;&gt;41006130293410693</title>
<path fill="none" stroke="#3b823b" stroke-width="1.64" d="M212.7711,-314.0386C230.1555,-325.7723 254.213,-340.5769 277.2672,-349.9715 320.2598,-367.491 332.5042,-373.9715 378.9293,-373.9715 378.9293,-373.9715 378.9293,-373.9715 786.6569,-373.9715 820.6173,-373.9715 832.3829,-370.8067 859.2008,-349.9715 880.9189,-333.0985 896.926,-305.8158 906.7224,-285.3336"/>
<polygon fill="#3b823b" stroke="#3b823b" stroke-width="1.64" points="909.9315,-286.7321 910.9076,-276.1823 903.5656,-283.8207 909.9315,-286.7321"/>
<text text-anchor="middle" x="595.6852" y="-376.3715" font-family="Times,serif" font-size="12.00" fill="#000000">30</text>
</g>
<!-- &#45;5939579354559044928 -->
<g id="node3" class="node">
<title>&#45;5939579354559044928</title>
<polygon fill="#f0b4b6" stroke="#000000" points="417.3583,-237.9715 340.5004,-237.9715 340.5004,-201.9715 417.3583,-201.9715 417.3583,-237.9715"/>
<text text-anchor="middle" x="378.9293" y="-216.3715" font-family="Times,serif" font-size="12.00" fill="#000000">trsm_1e+07 </text>
</g>
<!-- 3120725309898678488&#45;&gt;&#45;5939579354559044928 -->
<g id="edge2" class="edge">
<title>3120725309898678488&#45;&gt;&#45;5939579354559044928</title>
<path fill="none" stroke="#ff0000" d="M232.9463,-277.9606C262.5605,-266.1969 301.169,-250.8604 331.2424,-238.9142"/>
<polygon fill="#ff0000" stroke="#ff0000" points="332.6829,-242.1081 340.6844,-235.1636 330.0987,-235.6026 332.6829,-242.1081"/>
<text text-anchor="middle" x="283.2672" y="-262.3715" font-family="Times,serif" font-size="12.00" fill="#000000">10</text>
</g>
<!-- &#45;6806815221988033936 -->
<g id="node4" class="node">
<title>&#45;6806815221988033936</title>
<polygon fill="#ffffff" stroke="#000000" points="1337.9392,-321.9715 1264.7516,-321.9715 1264.7516,-285.9715 1337.9392,-285.9715 1337.9392,-321.9715"/>
<text text-anchor="middle" x="1301.3454" y="-300.3715" font-family="Times,serif" font-size="12.00" fill="#000000">trsv_1e+04 </text>
</g>
<!-- 3120725309898678488&#45;&gt;&#45;6806815221988033936 -->
<g id="edge3" class="edge">
<title>3120725309898678488&#45;&gt;&#45;6806815221988033936</title>
<path fill="none" stroke="#3b823b" stroke-width="1.32" d="M202.0959,-314.0022C231.4986,-348.3933 301.942,-419.9715 378.9293,-419.9715 378.9293,-419.9715 378.9293,-419.9715 1175.9215,-419.9715 1227.9751,-419.9715 1267.6043,-365.4545 1287.3803,-331.1684"/>
<polygon fill="#3b823b" stroke="#3b823b" stroke-width="1.32" points="1290.624,-332.5371 1292.4255,-322.0965 1284.5064,-329.1348 1290.624,-332.5371"/>
<text text-anchor="middle" x="786.6569" y="-422.3715" font-family="Times,serif" font-size="12.00" fill="#000000">20</text>
</g>
<!-- 5718687879686394531 -->
<g id="node5" class="node">
<title>5718687879686394531</title>
<polygon fill="#ffffff" stroke="#000000" points="571.7321,-172.9715 498.5445,-172.9715 498.5445,-136.9715 571.7321,-136.9715 571.7321,-172.9715"/>
<text text-anchor="middle" x="535.1383" y="-151.3715" font-family="Times,serif" font-size="12.00" fill="#000000">trsv_1e+06 </text>
</g>
<!-- 3120725309898678488&#45;&gt;5718687879686394531 -->
<g id="edge4" class="edge">
<title>3120725309898678488&#45;&gt;5718687879686394531</title>
<path fill="none" stroke="#ff0000" stroke-width="1.64" d="M200.2471,-277.858C219.7962,-251.4631 260.0732,-203.1648 307.2672,-180.9715 365.342,-153.6615 440.6137,-150.4336 488.409,-151.7895"/>
<polygon fill="#ff0000" stroke="#ff0000" stroke-width="1.64" points="488.3482,-155.2895 498.4685,-152.1542 488.6019,-148.2941 488.3482,-155.2895"/>
<text text-anchor="middle" x="378.9293" y="-183.3715" font-family="Times,serif" font-size="12.00" fill="#000000">30</text>
</g>
<!-- 41006130293410693&#45;&gt;3120725309898678488 -->
<g id="edge10" class="edge">
<title>41006130293410693&#45;&gt;3120725309898678488</title>
<path fill="none" stroke="#3b823b" stroke-width="1.32" d="M901.2775,-276.0623C877.9591,-299.1043 833.3534,-335.9715 786.6569,-335.9715 378.9293,-335.9715 378.9293,-335.9715 378.9293,-335.9715 336.5898,-335.9715 290.0741,-326.4699 253.5102,-316.7285"/>
<polygon fill="#3b823b" stroke="#3b823b" stroke-width="1.32" points="254.0422,-313.2455 243.473,-313.9822 252.1948,-319.9973 254.0422,-313.2455"/>
<text text-anchor="middle" x="595.6852" y="-338.3715" font-family="Times,serif" font-size="12.00" fill="#000000">20</text>
</g>
<!-- 41006130293410693&#45;&gt;&#45;6806815221988033936 -->
<g id="edge12" class="edge">
<title>41006130293410693&#45;&gt;&#45;6806815221988033936</title>
<path fill="none" stroke="#000000" stroke-width="2.28" d="M959.0941,-262.8943C1030.8396,-271.5052 1178.6743,-289.2485 1254.3947,-298.3365"/>
<polygon fill="#000000" stroke="#000000" stroke-width="2.28" points="1254.2393,-301.8429 1264.5852,-299.5595 1255.0736,-294.8927 1254.2393,-301.8429"/>
<text text-anchor="middle" x="1111.0446" y="-283.3715" font-family="Times,serif" font-size="12.00" fill="#000000">50</text>
</g>
<!-- 9109637458594215781 -->
<g id="node10" class="node">
<title>9109637458594215781</title>
<polygon fill="#f0b4b6" stroke="#000000" points="1087.0896,-341.9715 1006.9098,-341.9715 1006.9098,-305.9715 1087.0896,-305.9715 1087.0896,-341.9715"/>
<text text-anchor="middle" x="1046.9997" y="-320.3715" font-family="Times,serif" font-size="12.00" fill="#000000">qr_2.67e+06 </text>
</g>
<!-- 41006130293410693&#45;&gt;9109637458594215781 -->
<g id="edge11" class="edge">
<title>41006130293410693&#45;&gt;9109637458594215781</title>
<path fill="none" stroke="#ff0000" d="M948.0274,-276.0019C957.2089,-281.3292 967.408,-287.0485 976.9547,-291.9715 983.4902,-295.3417 990.4505,-298.7408 997.3516,-302.0009"/>
<polygon fill="#ff0000" stroke="#ff0000" points="996.137,-305.2961 1006.6798,-306.3444 999.0918,-298.9503 996.137,-305.2961"/>
<text text-anchor="middle" x="982.9547" y="-299.3715" font-family="Times,serif" font-size="12.00" fill="#000000">10</text>
</g>
<!-- @@endnode -->
<g id="node11" class="node">
<title>@@endnode</title>
<ellipse fill="none" stroke="#000000" cx="1422.1982" cy="-253.9715" rx="32.1342" ry="32.1342"/>
<ellipse fill="none" stroke="#000000" cx="1422.1982" cy="-253.9715" rx="36.1129" ry="36.1129"/>
<text text-anchor="start" x="1413.5263" y="-247.2153" font-family="Times,serif" font-size="32.00" fill="#000000">■</text>
</g>
<!-- 41006130293410693&#45;&gt;@@endnode -->
<g id="edge13" class="edge">
<title>41006130293410693&#45;&gt;@@endnode</title>
<path fill="none" stroke="#ff0000" d="M959.0502,-248.323C984.2646,-243.2086 1017.3282,-237.9715 1046.9997,-237.9715 1046.9997,-237.9715 1046.9997,-237.9715 1301.3454,-237.9715 1326.3062,-237.9715 1353.9181,-241.3673 1376.4407,-245.0301"/>
<polygon fill="#ff0000" stroke="#ff0000" points="1375.9584,-248.4982 1386.403,-246.7205 1377.1295,-241.5969 1375.9584,-248.4982"/>
<text text-anchor="middle" x="1175.9215" y="-240.3715" font-family="Times,serif" font-size="12.00" fill="#000000">20</text>
</g>
<!-- &#45;5939579354559044928&#45;&gt;41006130293410693 -->
<g id="edge18" class="edge">
<title>&#45;5939579354559044928&#45;&gt;41006130293410693</title>
<path fill="none" stroke="#ff0000" stroke-width="1.64" d="M417.2714,-222.6739C512.3783,-229.3772 759.1941,-246.7731 866.7353,-254.3528"/>
<polygon fill="#ff0000" stroke="#ff0000" stroke-width="1.64" points="866.7831,-257.8648 877.0045,-255.0766 867.2753,-250.8821 866.7831,-257.8648"/>
<text text-anchor="middle" x="657.8991" y="-244.3715" font-family="Times,serif" font-size="12.00" fill="#000000">30</text>
</g>
<!-- &#45;5939579354559044928&#45;&gt;&#45;5939579354559044928 -->
<g id="edge19" class="edge">
<title>&#45;5939579354559044928&#45;&gt;&#45;5939579354559044928</title>
<path fill="none" stroke="#ff0000" stroke-width="1.32" d="M361.924,-238.1242C359.3078,-247.5106 364.9762,-255.9715 378.9293,-255.9715 387.432,-255.9715 392.8583,-252.8296 395.2082,-248.2511"/>
<polygon fill="#ff0000" stroke="#ff0000" stroke-width="1.32" points="398.71,-248.3491 395.9347,-238.1242 391.728,-247.8481 398.71,-248.3491"/>
<text text-anchor="middle" x="378.9293" y="-258.3715" font-family="Times,serif" font-size="12.00" fill="#000000">20</text>
</g>
<!-- &#45;5939579354559044928&#45;&gt;5718687879686394531 -->
<g id="edge20" class="edge">
<title>&#45;5939579354559044928&#45;&gt;5718687879686394531</title>
<path fill="none" stroke="#ff0000" d="M417.5428,-203.9041C439.2036,-194.8908 466.3637,-183.5893 489.1232,-174.1188"/>
<polygon fill="#ff0000" stroke="#ff0000" points="490.691,-177.2574 498.579,-170.1842 488.0017,-170.7946 490.691,-177.2574"/>
<text text-anchor="middle" x="474.5915" y="-183.3715" font-family="Times,serif" font-size="12.00" fill="#000000">10</text>
</g>
<!-- &#45;6806815221988033936&#45;&gt;&#45;6806815221988033936 -->
<g id="edge24" class="edge">
<title>&#45;6806815221988033936&#45;&gt;&#45;6806815221988033936</title>
<path fill="none" stroke="#3b823b" stroke-width="2.28" d="M1290.4909,-322.1242C1288.8209,-331.5106 1292.4391,-339.9715 1301.3454,-339.9715 1306.7726,-339.9715 1310.2362,-336.8296 1311.7361,-332.2511"/>
<polygon fill="#3b823b" stroke="#3b823b" stroke-width="2.28" points="1315.2386,-332.2739 1312.1999,-322.1242 1308.246,-331.9536 1315.2386,-332.2739"/>
<text text-anchor="middle" x="1301.3454" y="-342.3715" font-family="Times,serif" font-size="12.00" fill="#000000">50</text>
</g>
<!-- &#45;6806815221988033936&#45;&gt;@@endnode -->
<g id="edge25" class="edge">
<title>&#45;6806815221988033936&#45;&gt;@@endnode</title>
<path fill="none" stroke="#000000" d="M1337.9332,-288.8342C1350.9029,-283.4683 1365.6175,-277.3804 1379.0803,-271.8105"/>
<polygon fill="#000000" stroke="#000000" points="1380.7169,-274.9212 1388.6192,-267.864 1378.0408,-268.4529 1380.7169,-274.9212"/>
<text text-anchor="middle" x="1361.8922" y="-282.3715" font-family="Times,serif" font-size="12.00" fill="#000000">80</text>
</g>
<!-- 5718687879686394531&#45;&gt;41006130293410693 -->
<g id="edge27" class="edge">
<title>5718687879686394531&#45;&gt;41006130293410693</title>
<path fill="none" stroke="#ff0000" d="M550.3566,-136.9179C560.7773,-125.1204 575.2709,-109.771 589.6852,-97.9715 601.8977,-87.9744 604.5274,-83.3677 619.6852,-78.9715 709.9704,-52.7861 752.9779,-52.9519 829.2008,-107.9715 871.4619,-138.4766 897.0808,-195.8059 909.3258,-230.0746"/>
<polygon fill="#ff0000" stroke="#ff0000" points="906.1455,-231.5903 912.7003,-239.9141 912.7669,-229.3195 906.1455,-231.5903"/>
<text text-anchor="middle" x="720.1129" y="-65.3715" font-family="Times,serif" font-size="12.00" fill="#000000">10</text>
</g>
<!-- 5718687879686394531&#45;&gt;&#45;5939579354559044928 -->
<g id="edge29" class="edge">
<title>5718687879686394531&#45;&gt;&#45;5939579354559044928</title>
<path fill="none" stroke="#ff0000" stroke-width="1.64" d="M516.0526,-172.9852C506.1551,-181.4214 493.4636,-190.9221 480.5915,-196.9715 464.0261,-204.7566 444.6803,-209.9804 427.3373,-213.4514"/>
<polygon fill="#ff0000" stroke="#ff0000" stroke-width="1.64" points="426.586,-210.031 417.3936,-215.2987 427.8646,-216.9133 426.586,-210.031"/>
<text text-anchor="middle" x="474.5915" y="-203.3715" font-family="Times,serif" font-size="12.00" fill="#000000">30</text>
</g>
<!-- 5718687879686394531&#45;&gt;5718687879686394531 -->
<g id="edge31" class="edge">
<title>5718687879686394531&#45;&gt;5718687879686394531</title>
<path fill="none" stroke="#ff0000" stroke-width="1.64" d="M524.2838,-173.1242C522.6139,-182.5106 526.2321,-190.9715 535.1383,-190.9715 540.5656,-190.9715 544.0292,-187.8296 545.5291,-183.2511"/>
<polygon fill="#ff0000" stroke="#ff0000" stroke-width="1.64" points="549.0316,-183.2739 545.9928,-173.1242 542.0389,-182.9536 549.0316,-183.2739"/>
<text text-anchor="middle" x="535.1383" y="-193.3715" font-family="Times,serif" font-size="12.00" fill="#000000">30</text>
</g>
<!-- &#45;4953495589108805 -->
<g id="node7" class="node">
<title>&#45;4953495589108805</title>
<polygon fill="#ffffff" stroke="#000000" points="696.328,-123.9715 619.4701,-123.9715 619.4701,-87.9715 696.328,-87.9715 696.328,-123.9715"/>
<text text-anchor="middle" x="657.8991" y="-102.3715" font-family="Times,serif" font-size="12.00" fill="#000000">trsm_1e+08 </text>
</g>
<!-- 5718687879686394531&#45;&gt;&#45;4953495589108805 -->
<g id="edge30" class="edge">
<title>5718687879686394531&#45;&gt;&#45;4953495589108805</title>
<path fill="none" stroke="#000000" stroke-width="1.96" d="M571.9706,-140.2699C583.9018,-135.5076 597.3146,-130.1538 609.9322,-125.1175"/>
<polygon fill="#000000" stroke="#000000" stroke-width="1.96" points="611.3984,-128.3009 619.3884,-121.3431 608.8034,-121.7996 611.3984,-128.3009"/>
<text text-anchor="middle" x="595.6852" y="-133.3715" font-family="Times,serif" font-size="12.00" fill="#000000">40</text>
</g>
<!-- 1088658056944152547 -->
<g id="node8" class="node">
<title>1088658056944152547</title>
<polygon fill="#a6faa5" stroke="#000000" points="829.2448,-227.9715 744.0689,-227.9715 744.0689,-191.9715 829.2448,-191.9715 829.2448,-227.9715"/>
<text text-anchor="middle" x="786.6569" y="-206.3715" font-family="Times,serif" font-size="12.00" fill="#000000">gemm_2e+07 </text>
</g>
<!-- 5718687879686394531&#45;&gt;1088658056944152547 -->
<g id="edge26" class="edge">
<title>5718687879686394531&#45;&gt;1088658056944152547</title>
<path fill="none" stroke="#3b823b" stroke-width="1.32" d="M571.7113,-162.969C614.3228,-172.2869 685.0797,-187.7595 733.6971,-198.3907"/>
<polygon fill="#3b823b" stroke="#3b823b" stroke-width="1.32" points="733.2005,-201.8647 743.7174,-200.5818 734.6959,-195.0263 733.2005,-201.8647"/>
<text text-anchor="middle" x="657.8991" y="-191.3715" font-family="Times,serif" font-size="12.00" fill="#000000">20</text>
</g>
<!-- &#45;1351820558830956094 -->
<g id="node12" class="node">
<title>&#45;1351820558830956094</title>
<polygon fill="#ffffff" stroke="#000000" points="824.417,-152.9715 748.8967,-152.9715 748.8967,-116.9715 824.417,-116.9715 824.417,-152.9715"/>
<text text-anchor="middle" x="786.6569" y="-131.3715" font-family="Times,serif" font-size="12.00" fill="#000000">syrk_1e+07 </text>
</g>
<!-- 5718687879686394531&#45;&gt;&#45;1351820558830956094 -->
<g id="edge28" class="edge">
<title>5718687879686394531&#45;&gt;&#45;1351820558830956094</title>
<path fill="none" stroke="#3b823b" d="M571.7113,-152.0633C615.8492,-148.5536 690.185,-142.6427 738.8341,-138.7742"/>
<polygon fill="#3b823b" stroke="#3b823b" points="739.1142,-142.2631 748.8053,-137.9814 738.5593,-135.2851 739.1142,-142.2631"/>
<text text-anchor="middle" x="657.8991" y="-149.3715" font-family="Times,serif" font-size="12.00" fill="#000000">10</text>
</g>
<!-- 7039607172344913743 -->
<g id="node6" class="node">
<title>7039607172344913743</title>
<polygon fill="#ffffff" stroke="#000000" points="450.7539,-65.9715 307.1048,-65.9715 307.1048,-29.9715 450.7539,-29.9715 450.7539,-65.9715"/>
<text text-anchor="middle" x="378.9293" y="-44.3715" font-family="Times,serif" font-size="12.00" fill="#000000">LAPACK.potrf_3.33e+08 </text>
</g>
<!-- 7039607172344913743&#45;&gt;5718687879686394531 -->
<g id="edge6" class="edge">
<title>7039607172344913743&#45;&gt;5718687879686394531</title>
<path fill="none" stroke="#000000" stroke-width="1.96" d="M405.4281,-66.1226C431.5389,-84.008 471.5775,-111.4336 500.2614,-131.0815"/>
<polygon fill="#000000" stroke="#000000" stroke-width="1.96" points="498.5427,-134.1466 508.7707,-136.9102 502.4985,-128.3715 498.5427,-134.1466"/>
<text text-anchor="middle" x="474.5915" y="-119.3715" font-family="Times,serif" font-size="12.00" fill="#000000">40</text>
</g>
<!-- 7039607172344913743&#45;&gt;&#45;4953495589108805 -->
<g id="edge5" class="edge">
<title>7039607172344913743&#45;&gt;&#45;4953495589108805</title>
<path fill="none" stroke="#000000" stroke-width="2.6" d="M450.612,-45.8361C487.4183,-46.477 532.6172,-49.9823 571.6852,-60.9715 588.9136,-65.8176 606.6559,-74.3657 621.5327,-82.7192"/>
<polygon fill="#000000" stroke="#000000" stroke-width="2.6" points="619.989,-85.8699 630.3952,-87.8604 623.5016,-79.815 619.989,-85.8699"/>
<text text-anchor="middle" x="535.1383" y="-63.3715" font-family="Times,serif" font-size="12.00" fill="#000000">60</text>
</g>
<!-- &#45;4953495589108805&#45;&gt;5718687879686394531 -->
<g id="edge23" class="edge">
<title>&#45;4953495589108805&#45;&gt;5718687879686394531</title>
<path fill="none" stroke="#3b823b" stroke-width="1.64" d="M619.4783,-101.1509C609.5119,-101.1883 598.9744,-102.4119 589.6852,-105.9715 576.929,-110.8597 565.2824,-120.26 556.0566,-129.5306"/>
<polygon fill="#3b823b" stroke="#3b823b" stroke-width="1.64" points="553.4835,-127.1578 549.2018,-136.8489 558.5924,-131.9432 553.4835,-127.1578"/>
<text text-anchor="middle" x="595.6852" y="-108.3715" font-family="Times,serif" font-size="12.00" fill="#000000">30</text>
</g>
<!-- &#45;4953495589108805&#45;&gt;1088658056944152547 -->
<g id="edge21" class="edge">
<title>&#45;4953495589108805&#45;&gt;1088658056944152547</title>
<path fill="none" stroke="#3b823b" d="M680.327,-124.0869C701.3382,-141.0581 732.9088,-166.5582 756.1941,-185.3662"/>
<polygon fill="#3b823b" stroke="#3b823b" points="754.0754,-188.154 764.054,-191.7147 758.4739,-182.7084 754.0754,-188.154"/>
<text text-anchor="middle" x="720.1129" y="-160.3715" font-family="Times,serif" font-size="12.00" fill="#000000">10</text>
</g>
<!-- &#45;4953495589108805&#45;&gt;&#45;1351820558830956094 -->
<g id="edge22" class="edge">
<title>&#45;4953495589108805&#45;&gt;&#45;1351820558830956094</title>
<path fill="none" stroke="#000000" stroke-width="2.6" d="M696.1821,-114.5939C709.5439,-117.6034 724.7111,-121.0195 738.7564,-124.1829"/>
<polygon fill="#000000" stroke="#000000" stroke-width="2.6" points="738.2187,-127.6494 748.7434,-126.4323 739.7569,-120.8205 738.2187,-127.6494"/>
<text text-anchor="middle" x="720.1129" y="-122.3715" font-family="Times,serif" font-size="12.00" fill="#000000">60</text>
</g>
<!-- 1088658056944152547&#45;&gt;3120725309898678488 -->
<g id="edge7" class="edge">
<title>1088658056944152547&#45;&gt;3120725309898678488</title>
<path fill="none" stroke="#3b823b" stroke-width="1.32" d="M763.7489,-227.9999C729.3369,-253.2179 661.3178,-295.9715 595.6852,-295.9715 378.9293,-295.9715 378.9293,-295.9715 378.9293,-295.9715 343.108,-295.9715 303.514,-295.9715 269.683,-295.9715"/>
<polygon fill="#3b823b" stroke="#3b823b" stroke-width="1.32" points="269.3793,-292.4716 259.3793,-295.9715 269.3792,-299.4716 269.3793,-292.4716"/>
<text text-anchor="middle" x="535.1383" y="-298.3715" font-family="Times,serif" font-size="12.00" fill="#000000">20</text>
</g>
<!-- 1088658056944152547&#45;&gt;41006130293410693 -->
<g id="edge8" class="edge">
<title>1088658056944152547&#45;&gt;41006130293410693</title>
<path fill="none" stroke="#3b823b" d="M829.5239,-222.0294C839.3506,-225.0533 849.6994,-228.4477 859.2008,-231.9715 862.6516,-233.2513 866.189,-234.6322 869.7337,-236.0669"/>
<polygon fill="#3b823b" stroke="#3b823b" points="868.502,-239.3453 879.0791,-239.9583 871.1928,-232.8831 868.502,-239.3453"/>
<text text-anchor="middle" x="853.2008" y="-234.3715" font-family="Times,serif" font-size="12.00" fill="#000000">10</text>
</g>
<!-- &#45;5969824071366988918 -->
<g id="node9" class="node">
<title>&#45;5969824071366988918</title>
<polygon fill="#f0b4b6" stroke="#000000" points="1216.6758,-341.9715 1135.1673,-341.9715 1135.1673,-305.9715 1216.6758,-305.9715 1216.6758,-341.9715"/>
<text text-anchor="middle" x="1175.9215" y="-320.3715" font-family="Times,serif" font-size="12.00" fill="#000000">gemv_2e+04 </text>
</g>
<!-- &#45;5969824071366988918&#45;&gt;&#45;6806815221988033936 -->
<g id="edge9" class="edge">
<title>&#45;5969824071366988918&#45;&gt;&#45;6806815221988033936</title>
<path fill="none" stroke="#ff0000" d="M1216.99,-317.4228C1228.9344,-315.5181 1242.0728,-313.4231 1254.3517,-311.4651"/>
<polygon fill="#ff0000" stroke="#ff0000" points="1255.0948,-314.8909 1264.4189,-309.8598 1253.9925,-307.9782 1255.0948,-314.8909"/>
<text text-anchor="middle" x="1240.7985" y="-316.3715" font-family="Times,serif" font-size="12.00" fill="#000000">10</text>
</g>
<!-- 9109637458594215781&#45;&gt;&#45;5969824071366988918 -->
<g id="edge14" class="edge">
<title>9109637458594215781&#45;&gt;&#45;5969824071366988918</title>
<path fill="none" stroke="#ff0000" d="M1087.0846,-323.9715C1098.9806,-323.9715 1112.1755,-323.9715 1124.6773,-323.9715"/>
<polygon fill="#ff0000" stroke="#ff0000" points="1124.9721,-327.4716 1134.9721,-323.9715 1124.9721,-320.4716 1124.9721,-327.4716"/>
<text text-anchor="middle" x="1111.0446" y="-326.3715" font-family="Times,serif" font-size="12.00" fill="#000000">10</text>
</g>
<!-- &#45;1351820558830956094&#45;&gt;3120725309898678488 -->
<g id="edge15" class="edge">
<title>&#45;1351820558830956094&#45;&gt;3120725309898678488</title>
<path fill="none" stroke="#000000" stroke-width="2.28" d="M765.2489,-116.9257C747.8697,-103.5267 722.0699,-86.3499 696.1129,-78.9715 611.7342,-54.9864 381.4613,-100.1708 307.2672,-146.9715 258.6611,-177.6317 221.0476,-235.0157 201.8037,-268.9231"/>
<polygon fill="#000000" stroke="#000000" stroke-width="2.28" points="198.6576,-267.3796 196.8692,-277.8225 204.7795,-270.7741 198.6576,-267.3796"/>
<text text-anchor="middle" x="535.1383" y="-88.3715" font-family="Times,serif" font-size="12.00" fill="#000000">50</text>
</g>
<!-- &#45;1351820558830956094&#45;&gt;41006130293410693 -->
<g id="edge16" class="edge">
<title>&#45;1351820558830956094&#45;&gt;41006130293410693</title>
<path fill="none" stroke="#000000" stroke-width="1.32" d="M806.0485,-153.1206C828.5663,-174.1956 865.8493,-209.0896 891.1641,-232.7824"/>
<polygon fill="#000000" stroke="#000000" stroke-width="1.32" points="888.9138,-235.4701 898.6066,-239.748 893.6971,-230.3593 888.9138,-235.4701"/>
<text text-anchor="middle" x="853.2008" y="-202.3715" font-family="Times,serif" font-size="12.00" fill="#000000">20</text>
</g>
<!-- &#45;8251792586603492013 -->
<g id="node13" class="node">
<title>&#45;8251792586603492013</title>
<polygon fill="#f0b4b6" stroke="#000000" points="225.9281,-83.9715 149.2822,-83.9715 149.2822,-47.9715 225.9281,-47.9715 225.9281,-83.9715"/>
<text text-anchor="middle" x="187.6051" y="-62.3715" font-family="Times,serif" font-size="12.00" fill="#000000">transpose_1 </text>
</g>
<!-- &#45;8251792586603492013&#45;&gt;7039607172344913743 -->
<g id="edge17" class="edge">
<title>&#45;8251792586603492013&#45;&gt;7039607172344913743</title>
<path fill="none" stroke="#ff0000" stroke-width="1.96" d="M225.8626,-62.3722C246.2774,-60.4516 272.2271,-58.0102 296.9348,-55.6856"/>
<polygon fill="#ff0000" stroke="#ff0000" stroke-width="1.96" points="297.4307,-59.1545 307.0589,-54.7332 296.775,-52.1853 297.4307,-59.1545"/>
<text text-anchor="middle" x="283.2672" y="-60.3715" font-family="Times,serif" font-size="12.00" fill="#000000">40</text>
</g>
<!-- @@startnode -->
<g id="node14" class="node">
<title>@@startnode</title>
<ellipse fill="none" stroke="#000000" cx="33.9715" cy="-33.9715" rx="33.943" ry="33.943"/>
<text text-anchor="start" x="24.1434" y="-26.793" font-family="Times,serif" font-size="34.00" fill="#000000">●</text>
</g>
<!-- @@startnode&#45;&gt;7039607172344913743 -->
<g id="edge32" class="edge">
<title>@@startnode&#45;&gt;7039607172344913743</title>
<path fill="none" stroke="#000000" d="M67.8295,-30.4281C82.5887,-29.0523 100.1033,-27.6466 115.943,-26.9715 179.5849,-24.2591 195.8077,-21.4454 259.2672,-26.9715 271.5366,-28.0399 284.4344,-29.7135 297.0355,-31.6605"/>
<polygon fill="#000000" stroke="#000000" points="296.6309,-35.1404 307.0601,-33.2743 297.7435,-28.2294 296.6309,-35.1404"/>
<text text-anchor="middle" x="187.6051" y="-29.3715" font-family="Times,serif" font-size="12.00" fill="#000000">60</text>
</g>
<!-- @@startnode&#45;&gt;&#45;8251792586603492013 -->
<g id="edge33" class="edge">
<title>@@startnode&#45;&gt;&#45;8251792586603492013</title>
<path fill="none" stroke="#ff0000" d="M67.3077,-40.915C88.2947,-45.2864 115.7381,-51.0025 139.1127,-55.8711"/>
<polygon fill="#ff0000" stroke="#ff0000" points="138.6847,-59.357 149.1884,-57.9698 140.1122,-52.5041 138.6847,-59.357"/>
<text text-anchor="middle" x="91.943" y="-50.3715" font-family="Times,serif" font-size="12.00" fill="#000000">40</text>
</g>
</g>
</svg>
