<?xml version="1.0" encoding="UTF-8" standalone="no"?>
<!DOCTYPE svg PUBLIC "-//W3C//DTD SVG 1.1//EN"
 "http://www.w3.org/Graphics/SVG/1.1/DTD/svg11.dtd">
<!-- Generated by graphviz version 2.40.1 (20161225.0304)
 -->
<!-- Title: %3 Pages: 1 -->
<svg width="605pt" height="225pt"
 viewBox="0.00 0.00 604.55 225.23" xmlns="http://www.w3.org/2000/svg" xmlns:xlink="http://www.w3.org/1999/xlink">
<g id="graph0" class="graph" transform="scale(1 1) rotate(0) translate(4 221.2345)">
<title>%3</title>
<polygon fill="#ffffff" stroke="transparent" points="-4,4 -4,-221.2345 600.5549,-221.2345 600.5549,4 -4,4"/>
<!-- 430920824881313077 -->
<g id="node1" class="node">
<title>430920824881313077</title>
<polygon fill="#f0b4b6" stroke="#000000" points="54,-170.2345 0,-170.2345 0,-134.2345 54,-134.2345 54,-170.2345"/>
<text text-anchor="middle" x="27" y="-148.6345" font-family="Times,serif" font-size="12.00" fill="#000000">gemm </text>
</g>
<!-- &#45;694049790915432649 -->
<g id="node2" class="node">
<title>&#45;694049790915432649</title>
<polygon fill="#ffffff" stroke="#000000" points="162.9715,-65.2345 108.9715,-65.2345 108.9715,-29.2345 162.9715,-29.2345 162.9715,-65.2345"/>
<text text-anchor="middle" x="135.9715" y="-43.6345" font-family="Times,serif" font-size="12.00" fill="#000000">gemv </text>
</g>
<!-- 430920824881313077&#45;&gt;&#45;694049790915432649 -->
<g id="edge1" class="edge">
<title>430920824881313077&#45;&gt;&#45;694049790915432649</title>
<path fill="none" stroke="#ff0000" d="M43.0404,-134.2269C57.8077,-117.9767 80.6021,-93.7052 102,-74.2345 102.808,-73.4993 103.6334,-72.7607 104.4717,-72.0216"/>
<polygon fill="#ff0000" stroke="#ff0000" points="106.882,-74.5666 112.2411,-65.4271 102.3522,-69.2298 106.882,-74.5666"/>
<text text-anchor="middle" x="78" y="-106.6345" font-family="Times,serif" font-size="12.00" fill="#000000">10</text>
</g>
<!-- &#45;7384411905427741697 -->
<g id="node3" class="node">
<title>&#45;7384411905427741697</title>
<polygon fill="#ffffff" stroke="#000000" points="271.943,-149.2345 217.943,-149.2345 217.943,-113.2345 271.943,-113.2345 271.943,-149.2345"/>
<text text-anchor="middle" x="244.943" y="-127.6345" font-family="Times,serif" font-size="12.00" fill="#000000">potrf </text>
</g>
<!-- 430920824881313077&#45;&gt;&#45;7384411905427741697 -->
<g id="edge2" class="edge">
<title>430920824881313077&#45;&gt;&#45;7384411905427741697</title>
<path fill="none" stroke="#ff0000" d="M54.1194,-157.5771C83.0558,-162.3908 130.1163,-167.6662 169.943,-160.2345 182.9374,-157.8097 196.5797,-153.2113 208.6129,-148.3788"/>
<polygon fill="#ff0000" stroke="#ff0000" points="210.0097,-151.5884 217.8752,-144.4902 207.2999,-145.1342 210.0097,-151.5884"/>
<text text-anchor="middle" x="135.9715" y="-165.6345" font-family="Times,serif" font-size="12.00" fill="#000000">10</text>
</g>
<!-- &#45;694049790915432649&#45;&gt;&#45;7384411905427741697 -->
<g id="edge3" class="edge">
<title>&#45;694049790915432649&#45;&gt;&#45;7384411905427741697</title>
<path fill="none" stroke="#000000" stroke-width="1.5333" d="M163.0706,-59.0181C174.9671,-64.8342 188.7437,-72.4842 199.943,-81.2345 208.8695,-88.209 217.4921,-97.0766 224.7594,-105.4014"/>
<polygon fill="#000000" stroke="#000000" stroke-width="1.5333" points="222.1574,-107.7451 231.2775,-113.1371 227.5104,-103.2346 222.1574,-107.7451"/>
<text text-anchor="middle" x="193.943" y="-83.6345" font-family="Times,serif" font-size="12.00" fill="#000000">20</text>
</g>
<!-- 6605152604588450776 -->
<g id="node4" class="node">
<title>6605152604588450776</title>
<polygon fill="#ffffff" stroke="#000000" points="475.943,-149.2345 421.943,-149.2345 421.943,-113.2345 475.943,-113.2345 475.943,-149.2345"/>
<text text-anchor="middle" x="448.943" y="-127.6345" font-family="Times,serif" font-size="12.00" fill="#000000">trsv </text>
</g>
<!-- &#45;694049790915432649&#45;&gt;6605152604588450776 -->
<g id="edge4" class="edge">
<title>&#45;694049790915432649&#45;&gt;6605152604588450776</title>
<path fill="none" stroke="#000000" stroke-width="1.5333" d="M163.1178,-49.7394C212.5513,-54.9833 319.9052,-69.5413 403.943,-103.2345 407.3913,-104.617 410.8712,-106.2598 414.2869,-108.0466"/>
<polygon fill="#000000" stroke="#000000" stroke-width="1.5333" points="412.6849,-111.1614 423.1132,-113.0322 416.1277,-105.0665 412.6849,-111.1614"/>
<text text-anchor="middle" x="295.943" y="-75.6345" font-family="Times,serif" font-size="12.00" fill="#000000">20</text>
</g>
<!-- &#45;7384411905427741697&#45;&gt;&#45;694049790915432649 -->
<g id="edge5" class="edge">
<title>&#45;7384411905427741697&#45;&gt;&#45;694049790915432649</title>
<path fill="none" stroke="#000000" stroke-width="1.5333" d="M217.6616,-114.8247C207.9388,-108.5225 197.1289,-100.9749 187.943,-93.2345 179.0478,-85.7389 178.5175,-82.095 169.943,-74.2345 169.1378,-73.4963 168.3148,-72.7551 167.4786,-72.0136"/>
<polygon fill="#000000" stroke="#000000" stroke-width="1.5333" points="169.6036,-69.226 159.7215,-65.4056 165.0643,-74.5547 169.6036,-69.226"/>
<text text-anchor="middle" x="193.943" y="-105.6345" font-family="Times,serif" font-size="12.00" fill="#000000">20</text>
</g>
<!-- &#45;7384411905427741697&#45;&gt;6605152604588450776 -->
<g id="edge7" class="edge">
<title>&#45;7384411905427741697&#45;&gt;6605152604588450776</title>
<path fill="none" stroke="#000000" stroke-width="2.6" d="M272.0326,-131.2345C307.8498,-131.2345 371.1319,-131.2345 411.5032,-131.2345"/>
<polygon fill="#000000" stroke="#000000" stroke-width="2.6" points="411.7414,-134.7346 421.7414,-131.2345 411.7413,-127.7346 411.7414,-134.7346"/>
<text text-anchor="middle" x="346.943" y="-133.6345" font-family="Times,serif" font-size="12.00" fill="#000000">40</text>
</g>
<!-- 7657941749333557338 -->
<g id="node5" class="node">
<title>7657941749333557338</title>
<polygon fill="#ffffff" stroke="#000000" points="373.943,-217.2345 319.943,-217.2345 319.943,-181.2345 373.943,-181.2345 373.943,-217.2345"/>
<text text-anchor="middle" x="346.943" y="-195.6345" font-family="Times,serif" font-size="12.00" fill="#000000">trsm </text>
</g>
<!-- &#45;7384411905427741697&#45;&gt;7657941749333557338 -->
<g id="edge6" class="edge">
<title>&#45;7384411905427741697&#45;&gt;7657941749333557338</title>
<path fill="none" stroke="#000000" stroke-width="1.5333" d="M272.0094,-149.2787C283.9977,-157.2709 298.2679,-166.7844 311.1225,-175.3541"/>
<polygon fill="#000000" stroke="#000000" stroke-width="1.5333" points="309.4882,-178.4711 319.7502,-181.1059 313.3711,-172.6467 309.4882,-178.4711"/>
<text text-anchor="middle" x="295.943" y="-169.6345" font-family="Times,serif" font-size="12.00" fill="#000000">20</text>
</g>
<!-- 6605152604588450776&#45;&gt;430920824881313077 -->
<g id="edge13" class="edge">
<title>6605152604588450776&#45;&gt;430920824881313077</title>
<path fill="none" stroke="#ff0000" d="M427.7049,-113.0216C371.3941,-67.0567 214.8701,45.4517 102,-20.2345 63.7268,-42.508 43.3867,-92.3991 33.9258,-124.0647"/>
<polygon fill="#ff0000" stroke="#ff0000" points="30.459,-123.4647 31.1243,-134.0386 37.1982,-125.3577 30.459,-123.4647"/>
<text text-anchor="middle" x="244.943" y="-21.6345" font-family="Times,serif" font-size="12.00" fill="#000000">10</text>
</g>
<!-- 6605152604588450776&#45;&gt;6605152604588450776 -->
<g id="edge16" class="edge">
<title>6605152604588450776&#45;&gt;6605152604588450776</title>
<path fill="none" stroke="#000000" stroke-width="2.6" d="M439.8976,-149.3872C438.506,-158.7735 441.5211,-167.2345 448.943,-167.2345 453.4657,-167.2345 456.352,-164.0926 457.602,-159.514"/>
<polygon fill="#000000" stroke="#000000" stroke-width="2.6" points="461.1044,-159.5134 457.9884,-149.3872 454.1095,-159.2464 461.1044,-159.5134"/>
<text text-anchor="middle" x="448.943" y="-169.6345" font-family="Times,serif" font-size="12.00" fill="#000000">40</text>
</g>
<!-- 6605152604588450776&#45;&gt;7657941749333557338 -->
<g id="edge15" class="edge">
<title>6605152604588450776&#45;&gt;7657941749333557338</title>
<path fill="none" stroke="#000000" stroke-width="1.5333" d="M421.9345,-144.572C412.2393,-149.7082 401.377,-155.875 391.943,-162.2345 386.4393,-165.9445 380.8001,-170.1839 375.4567,-174.4374"/>
<polygon fill="#000000" stroke="#000000" stroke-width="1.5333" points="372.8876,-172.0172 367.3652,-181.059 377.3208,-177.4345 372.8876,-172.0172"/>
<text text-anchor="middle" x="397.943" y="-164.6345" font-family="Times,serif" font-size="12.00" fill="#000000">20</text>
</g>
<!-- 9118602903628074245 -->
<g id="node6" class="node">
<title>9118602903628074245</title>
<polygon fill="#a6faa5" stroke="#000000" points="587.249,-103.2345 533.249,-103.2345 533.249,-67.2345 587.249,-67.2345 587.249,-103.2345"/>
<text text-anchor="middle" x="560.249" y="-81.6345" font-family="Times,serif" font-size="12.00" fill="#000000">syrk </text>
</g>
<!-- 6605152604588450776&#45;&gt;9118602903628074245 -->
<g id="edge14" class="edge">
<title>6605152604588450776&#45;&gt;9118602903628074245</title>
<path fill="none" stroke="#3b823b" d="M476.1715,-119.9816C490.4553,-114.0785 508.1538,-106.7641 523.6227,-100.3712"/>
<polygon fill="#3b823b" stroke="#3b823b" points="525.0108,-103.5847 532.9158,-96.5306 522.3371,-97.1154 525.0108,-103.5847"/>
<text text-anchor="middle" x="499.943" y="-115.6345" font-family="Times,serif" font-size="12.00" fill="#000000">10</text>
</g>
<!-- @@endnode -->
<g id="node7" class="node">
<title>@@endnode</title>
<ellipse fill="none" stroke="#000000" cx="560.249" cy="-157.2345" rx="32.1342" ry="32.1342"/>
<ellipse fill="none" stroke="#000000" cx="560.249" cy="-157.2345" rx="36.1129" ry="36.1129"/>
<text text-anchor="start" x="551.5771" y="-150.4782" font-family="Times,serif" font-size="32.00" fill="#000000">■</text>
</g>
<!-- 6605152604588450776&#45;&gt;@@endnode -->
<g id="edge17" class="edge">
<title>6605152604588450776&#45;&gt;@@endnode</title>
<path fill="none" stroke="#000000" d="M476.1715,-137.5948C487.8648,-140.3262 501.8466,-143.5922 515.0202,-146.6695"/>
<polygon fill="#000000" stroke="#000000" points="514.3513,-150.1074 524.8853,-148.9739 515.9436,-143.2909 514.3513,-150.1074"/>
<text text-anchor="middle" x="499.943" y="-146.6345" font-family="Times,serif" font-size="12.00" fill="#000000">40</text>
</g>
<!-- 7657941749333557338&#45;&gt;430920824881313077 -->
<g id="edge10" class="edge">
<title>7657941749333557338&#45;&gt;430920824881313077</title>
<path fill="none" stroke="#ff0000" d="M319.6822,-197.7556C274.3739,-195.1304 180.7568,-188.9955 102,-179.2345 88.5854,-177.5719 84.8732,-178.3572 72,-174.2345 69.1117,-173.3095 66.1752,-172.2282 63.2573,-171.0504"/>
<polygon fill="#ff0000" stroke="#ff0000" points="64.6464,-167.8379 54.0822,-167.0331 61.8387,-174.2502 64.6464,-167.8379"/>
<text text-anchor="middle" x="193.943" y="-190.6345" font-family="Times,serif" font-size="12.00" fill="#000000">10</text>
</g>
<!-- 7657941749333557338&#45;&gt;6605152604588450776 -->
<g id="edge12" class="edge">
<title>7657941749333557338&#45;&gt;6605152604588450776</title>
<path fill="none" stroke="#000000" stroke-width="1.5333" d="M374.1974,-191.3893C384.0227,-187.8865 394.907,-183.1852 403.943,-177.2345 412.4395,-171.639 420.5853,-164.2039 427.5548,-156.9458"/>
<polygon fill="#000000" stroke="#000000" stroke-width="1.5333" points="430.4439,-158.9735 434.6168,-149.235 425.2817,-154.2457 430.4439,-158.9735"/>
<text text-anchor="middle" x="397.943" y="-185.6345" font-family="Times,serif" font-size="12.00" fill="#000000">20</text>
</g>
<!-- 7657941749333557338&#45;&gt;9118602903628074245 -->
<g id="edge11" class="edge">
<title>7657941749333557338&#45;&gt;9118602903628074245</title>
<path fill="none" stroke="#3b823b" d="M374.1062,-202.3706C401.2799,-204.2942 443.5798,-203.9183 475.943,-188.2345 492.3557,-180.2806 495.8062,-175.3965 505.943,-160.2345 518.6063,-141.2937 510.2442,-130.4403 523.943,-112.2345 524.6042,-111.3557 525.3017,-110.4924 526.0295,-109.6453"/>
<polygon fill="#3b823b" stroke="#3b823b" points="528.6078,-112.0174 533.2376,-102.4877 523.6755,-107.0503 528.6078,-112.0174"/>
<text text-anchor="middle" x="448.943" y="-203.6345" font-family="Times,serif" font-size="12.00" fill="#000000">10</text>
</g>
<!-- 9118602903628074245&#45;&gt;&#45;694049790915432649 -->
<g id="edge8" class="edge">
<title>9118602903628074245&#45;&gt;&#45;694049790915432649</title>
<path fill="none" stroke="#3b823b" d="M533.1465,-81.3125C496.927,-76.1699 430.7105,-67.1134 373.943,-61.2345 328.7124,-56.5503 317.3139,-56.2736 271.943,-53.2345 239.9653,-51.0924 231.9622,-50.6242 199.943,-49.2345 191.246,-48.857 181.8808,-48.5232 173.071,-48.2418"/>
<polygon fill="#3b823b" stroke="#3b823b" points="173.1597,-44.743 163.0574,-47.936 172.9459,-51.7397 173.1597,-44.743"/>
<text text-anchor="middle" x="346.943" y="-63.6345" font-family="Times,serif" font-size="12.00" fill="#000000">10</text>
</g>
<!-- 9118602903628074245&#45;&gt;&#45;7384411905427741697 -->
<g id="edge9" class="edge">
<title>9118602903628074245&#45;&gt;&#45;7384411905427741697</title>
<path fill="none" stroke="#3b823b" d="M533.2005,-88.8294C505.3079,-92.565 460.5609,-98.6367 421.943,-104.2345 373.6443,-111.2354 318.0139,-119.8045 282.211,-125.385"/>
<polygon fill="#3b823b" stroke="#3b823b" points="281.5544,-121.945 272.2141,-126.9459 282.6344,-128.8613 281.5544,-121.945"/>
<text text-anchor="middle" x="397.943" y="-111.6345" font-family="Times,serif" font-size="12.00" fill="#000000">10</text>
</g>
<!-- @@startnode -->
<g id="node8" class="node">
<title>@@startnode</title>
<ellipse fill="none" stroke="#000000" cx="135.9715" cy="-117.2345" rx="33.943" ry="33.943"/>
<text text-anchor="start" x="126.1434" y="-110.0559" font-family="Times,serif" font-size="34.00" fill="#000000">●</text>
</g>
<!-- @@startnode&#45;&gt;&#45;7384411905427741697 -->
<g id="edge18" class="edge">
<title>@@startnode&#45;&gt;&#45;7384411905427741697</title>
<path fill="none" stroke="#000000" d="M169.1087,-125.0528C175.3368,-126.293 181.8164,-127.4299 187.943,-128.2345 194.3263,-129.0728 201.1408,-129.6788 207.7565,-130.1164"/>
<polygon fill="#000000" stroke="#000000" points="207.7212,-133.6197 217.8985,-130.6748 208.106,-126.6303 207.7212,-133.6197"/>
<text text-anchor="middle" x="193.943" y="-131.6345" font-family="Times,serif" font-size="12.00" fill="#000000">40</text>
</g>
</g>
</svg>
