<?xml version="1.0" encoding="UTF-8" standalone="no"?>
<!DOCTYPE svg PUBLIC "-//W3C//DTD SVG 1.1//EN"
 "http://www.w3.org/Graphics/SVG/1.1/DTD/svg11.dtd">
<!-- Generated by graphviz version 2.40.1 (20161225.0304)
 -->
<!-- Title: %3 Pages: 1 -->
<svg width="926pt" height="404pt"
 viewBox="0.00 0.00 926.00 404.00" xmlns="http://www.w3.org/2000/svg" xmlns:xlink="http://www.w3.org/1999/xlink">
<g id="graph0" class="graph" transform="scale(1 1) rotate(0) translate(4 400)">
<title>%3</title>
<polygon fill="#ffffff" stroke="transparent" points="-4,4 -4,-400 922,-400 922,4 -4,4"/>
<!-- 48 -->
<g id="node1" class="node">
<title>48</title>
<ellipse fill="#f0efed" stroke="#f0efed" cx="531" cy="-18" rx="27" ry="18"/>
<text text-anchor="middle" x="531" y="-13.8" font-family="Times,serif" font-size="14.00" fill="#000000">48</text>
</g>
<!-- 77 -->
<g id="node2" class="node">
<title>77</title>
<ellipse fill="#f0efed" stroke="#f0efed" cx="891" cy="-234" rx="27" ry="18"/>
<text text-anchor="middle" x="891" y="-229.8" font-family="Times,serif" font-size="14.00" fill="#000000">77</text>
</g>
<!-- 106 -->
<g id="node3" class="node">
<title>106</title>
<ellipse fill="#f0efed" stroke="#f0efed" cx="675" cy="-162" rx="27" ry="18"/>
<text text-anchor="middle" x="675" y="-157.8" font-family="Times,serif" font-size="14.00" fill="#000000">106</text>
</g>
<!-- 117 -->
<g id="node4" class="node">
<title>117</title>
<ellipse fill="#f0efed" stroke="#f0efed" cx="603" cy="-18" rx="27" ry="18"/>
<text text-anchor="middle" x="603" y="-13.8" font-family="Times,serif" font-size="14.00" fill="#000000">117</text>
</g>
<!-- 126 -->
<g id="node5" class="node">
<title>126</title>
<ellipse fill="#f0efed" stroke="#f0efed" cx="747" cy="-234" rx="27" ry="18"/>
<text text-anchor="middle" x="747" y="-229.8" font-family="Times,serif" font-size="14.00" fill="#000000">126</text>
</g>
<!-- 126&#45;&gt;106 -->
<g id="edge1" class="edge">
<title>126&#45;&gt;106</title>
<path fill="none" stroke="#000000" d="M731.7307,-218.7307C721.803,-208.803 708.6847,-195.6847 697.5637,-184.5637"/>
<polygon fill="#000000" stroke="#000000" points="699.7933,-181.8436 690.2473,-177.2473 694.8436,-186.7933 699.7933,-181.8436"/>
</g>
<!-- 308 -->
<g id="node14" class="node">
<title>308</title>
<ellipse fill="#f0efed" stroke="#f0efed" cx="747" cy="-162" rx="27" ry="18"/>
<text text-anchor="middle" x="747" y="-157.8" font-family="Times,serif" font-size="14.00" fill="#000000">308</text>
</g>
<!-- 126&#45;&gt;308 -->
<g id="edge2" class="edge">
<title>126&#45;&gt;308</title>
<path fill="none" stroke="#000000" d="M747,-215.8314C747,-208.131 747,-198.9743 747,-190.4166"/>
<polygon fill="#000000" stroke="#000000" points="750.5001,-190.4132 747,-180.4133 743.5001,-190.4133 750.5001,-190.4132"/>
</g>
<!-- 132 -->
<g id="node6" class="node">
<title>132</title>
<ellipse fill="#f0efed" stroke="#f0efed" cx="819" cy="-234" rx="27" ry="18"/>
<text text-anchor="middle" x="819" y="-229.8" font-family="Times,serif" font-size="14.00" fill="#000000">132</text>
</g>
<!-- 132&#45;&gt;106 -->
<g id="edge3" class="edge">
<title>132&#45;&gt;106</title>
<path fill="none" stroke="#000000" d="M797.1295,-223.0647C772.7778,-210.8889 733.238,-191.119 705.7715,-177.3858"/>
<polygon fill="#000000" stroke="#000000" points="707.114,-174.1439 696.6045,-172.8022 703.9835,-180.4049 707.114,-174.1439"/>
</g>
<!-- 132&#45;&gt;308 -->
<g id="edge4" class="edge">
<title>132&#45;&gt;308</title>
<path fill="none" stroke="#000000" d="M803.7307,-218.7307C793.803,-208.803 780.6847,-195.6847 769.5637,-184.5637"/>
<polygon fill="#000000" stroke="#000000" points="771.7933,-181.8436 762.2473,-177.2473 766.8436,-186.7933 771.7933,-181.8436"/>
</g>
<!-- 142 -->
<g id="node7" class="node">
<title>142</title>
<ellipse fill="#f0efed" stroke="#f0efed" cx="675" cy="-234" rx="27" ry="18"/>
<text text-anchor="middle" x="675" y="-229.8" font-family="Times,serif" font-size="14.00" fill="#000000">142</text>
</g>
<!-- 142&#45;&gt;106 -->
<g id="edge5" class="edge">
<title>142&#45;&gt;106</title>
<path fill="none" stroke="#000000" d="M675,-215.8314C675,-208.131 675,-198.9743 675,-190.4166"/>
<polygon fill="#000000" stroke="#000000" points="678.5001,-190.4132 675,-180.4133 671.5001,-190.4133 678.5001,-190.4132"/>
</g>
<!-- 142&#45;&gt;308 -->
<g id="edge6" class="edge">
<title>142&#45;&gt;308</title>
<path fill="none" stroke="#000000" d="M690.2693,-218.7307C700.197,-208.803 713.3153,-195.6847 724.4363,-184.5637"/>
<polygon fill="#000000" stroke="#000000" points="727.1564,-186.7933 731.7527,-177.2473 722.2067,-181.8436 727.1564,-186.7933"/>
</g>
<!-- 143 -->
<g id="node8" class="node">
<title>143</title>
<ellipse fill="#f0efed" stroke="#f0efed" cx="459" cy="-18" rx="27" ry="18"/>
<text text-anchor="middle" x="459" y="-13.8" font-family="Times,serif" font-size="14.00" fill="#000000">143</text>
</g>
<!-- 198 -->
<g id="node9" class="node">
<title>198</title>
<ellipse fill="#f0efed" stroke="#f0efed" cx="459" cy="-90" rx="27" ry="18"/>
<text text-anchor="middle" x="459" y="-85.8" font-family="Times,serif" font-size="14.00" fill="#000000">198</text>
</g>
<!-- 198&#45;&gt;48 -->
<g id="edge9" class="edge">
<title>198&#45;&gt;48</title>
<path fill="none" stroke="#000000" d="M474.2693,-74.7307C484.197,-64.803 497.3153,-51.6847 508.4363,-40.5637"/>
<polygon fill="#000000" stroke="#000000" points="511.1564,-42.7933 515.7527,-33.2473 506.2067,-37.8436 511.1564,-42.7933"/>
</g>
<!-- 198&#45;&gt;117 -->
<g id="edge8" class="edge">
<title>198&#45;&gt;117</title>
<path fill="none" stroke="#000000" d="M480.8705,-79.0647C505.2222,-66.8889 544.762,-47.119 572.2285,-33.3858"/>
<polygon fill="#000000" stroke="#000000" points="574.0165,-36.4049 581.3955,-28.8022 570.886,-30.1439 574.0165,-36.4049"/>
</g>
<!-- 198&#45;&gt;143 -->
<g id="edge7" class="edge">
<title>198&#45;&gt;143</title>
<path fill="none" stroke="#000000" d="M459,-71.8314C459,-64.131 459,-54.9743 459,-46.4166"/>
<polygon fill="#000000" stroke="#000000" points="462.5001,-46.4132 459,-36.4133 455.5001,-46.4133 462.5001,-46.4132"/>
</g>
<!-- 456 -->
<g id="node24" class="node">
<title>456</title>
<ellipse fill="#f0efed" stroke="#f0efed" cx="675" cy="-18" rx="27" ry="18"/>
<text text-anchor="middle" x="675" y="-13.8" font-family="Times,serif" font-size="14.00" fill="#000000">456</text>
</g>
<!-- 198&#45;&gt;456 -->
<g id="edge10" class="edge">
<title>198&#45;&gt;456</title>
<path fill="none" stroke="#000000" d="M479.978,-78.5501C484.8229,-76.1775 490.0192,-73.8425 495,-72 556.872,-49.1121 577.128,-58.8879 639,-36 640.8678,-35.3091 642.7659,-34.5489 644.6644,-33.7434"/>
<polygon fill="#000000" stroke="#000000" points="646.3926,-36.8014 654.022,-29.4499 643.4734,-30.4391 646.3926,-36.8014"/>
</g>
<!-- 466 -->
<g id="node25" class="node">
<title>466</title>
<ellipse fill="#f0efed" stroke="#f0efed" cx="387" cy="-18" rx="27" ry="18"/>
<text text-anchor="middle" x="387" y="-13.8" font-family="Times,serif" font-size="14.00" fill="#000000">466</text>
</g>
<!-- 198&#45;&gt;466 -->
<g id="edge11" class="edge">
<title>198&#45;&gt;466</title>
<path fill="none" stroke="#000000" d="M443.7307,-74.7307C433.803,-64.803 420.6847,-51.6847 409.5637,-40.5637"/>
<polygon fill="#000000" stroke="#000000" points="411.7933,-37.8436 402.2473,-33.2473 406.8436,-42.7933 411.7933,-37.8436"/>
</g>
<!-- 214 -->
<g id="node10" class="node">
<title>214</title>
<ellipse fill="#f0efed" stroke="#f0efed" cx="27" cy="-234" rx="27" ry="18"/>
<text text-anchor="middle" x="27" y="-229.8" font-family="Times,serif" font-size="14.00" fill="#000000">214</text>
</g>
<!-- 267 -->
<g id="node11" class="node">
<title>267</title>
<ellipse fill="#f0efed" stroke="#f0efed" cx="531" cy="-90" rx="27" ry="18"/>
<text text-anchor="middle" x="531" y="-85.8" font-family="Times,serif" font-size="14.00" fill="#000000">267</text>
</g>
<!-- 267&#45;&gt;48 -->
<g id="edge14" class="edge">
<title>267&#45;&gt;48</title>
<path fill="none" stroke="#000000" d="M531,-71.8314C531,-64.131 531,-54.9743 531,-46.4166"/>
<polygon fill="#000000" stroke="#000000" points="534.5001,-46.4132 531,-36.4133 527.5001,-46.4133 534.5001,-46.4132"/>
</g>
<!-- 267&#45;&gt;117 -->
<g id="edge13" class="edge">
<title>267&#45;&gt;117</title>
<path fill="none" stroke="#000000" d="M546.2693,-74.7307C556.197,-64.803 569.3153,-51.6847 580.4363,-40.5637"/>
<polygon fill="#000000" stroke="#000000" points="583.1564,-42.7933 587.7527,-33.2473 578.2067,-37.8436 583.1564,-42.7933"/>
</g>
<!-- 267&#45;&gt;143 -->
<g id="edge12" class="edge">
<title>267&#45;&gt;143</title>
<path fill="none" stroke="#000000" d="M515.7307,-74.7307C505.803,-64.803 492.6847,-51.6847 481.5637,-40.5637"/>
<polygon fill="#000000" stroke="#000000" points="483.7933,-37.8436 474.2473,-33.2473 478.8436,-42.7933 483.7933,-37.8436"/>
</g>
<!-- 267&#45;&gt;456 -->
<g id="edge15" class="edge">
<title>267&#45;&gt;456</title>
<path fill="none" stroke="#000000" d="M552.8705,-79.0647C577.2222,-66.8889 616.762,-47.119 644.2285,-33.3858"/>
<polygon fill="#000000" stroke="#000000" points="646.0165,-36.4049 653.3955,-28.8022 642.886,-30.1439 646.0165,-36.4049"/>
</g>
<!-- 267&#45;&gt;466 -->
<g id="edge16" class="edge">
<title>267&#45;&gt;466</title>
<path fill="none" stroke="#000000" d="M509.1295,-79.0647C484.7778,-66.8889 445.238,-47.119 417.7715,-33.3858"/>
<polygon fill="#000000" stroke="#000000" points="419.114,-30.1439 408.6045,-28.8022 415.9835,-36.4049 419.114,-30.1439"/>
</g>
<!-- 281 -->
<g id="node12" class="node">
<title>281</title>
<ellipse fill="#f0efed" stroke="#f0efed" cx="99" cy="-234" rx="27" ry="18"/>
<text text-anchor="middle" x="99" y="-229.8" font-family="Times,serif" font-size="14.00" fill="#000000">281</text>
</g>
<!-- 297 -->
<g id="node13" class="node">
<title>297</title>
<ellipse fill="#f0efed" stroke="#f0efed" cx="423" cy="-306" rx="27" ry="18"/>
<text text-anchor="middle" x="423" y="-301.8" font-family="Times,serif" font-size="14.00" fill="#000000">297</text>
</g>
<!-- 297&#45;&gt;77 -->
<g id="edge27" class="edge">
<title>297&#45;&gt;77</title>
<path fill="none" stroke="#000000" d="M443.4069,-294.1578C448.3677,-291.7449 453.7576,-289.4913 459,-288 628.9816,-239.6444 685.0184,-300.3556 855,-252 857.1297,-251.3941 859.2838,-250.6625 861.4235,-249.8455"/>
<polygon fill="#000000" stroke="#000000" points="862.8288,-253.051 870.5931,-245.8422 860.028,-246.6358 862.8288,-253.051"/>
</g>
<!-- 297&#45;&gt;126 -->
<g id="edge24" class="edge">
<title>297&#45;&gt;126</title>
<path fill="none" stroke="#000000" d="M443.8471,-294.1659C448.6987,-291.8132 453.9309,-289.5835 459,-288 566.9909,-254.2662 603.0091,-285.7338 711,-252 712.9009,-251.4062 714.8248,-250.7215 716.7429,-249.9736"/>
<polygon fill="#000000" stroke="#000000" points="718.4087,-253.0645 726.1529,-245.8341 715.5901,-246.657 718.4087,-253.0645"/>
</g>
<!-- 297&#45;&gt;132 -->
<g id="edge22" class="edge">
<title>297&#45;&gt;132</title>
<path fill="none" stroke="#000000" d="M443.8113,-294.0481C448.6648,-291.7016 453.9068,-289.5041 459,-288 597.9537,-246.965 644.0463,-293.035 783,-252 784.91,-251.436 786.8408,-250.7744 788.7643,-250.0441"/>
<polygon fill="#000000" stroke="#000000" points="790.4101,-253.1452 798.1887,-245.9519 787.6221,-246.7244 790.4101,-253.1452"/>
</g>
<!-- 297&#45;&gt;142 -->
<g id="edge21" class="edge">
<title>297&#45;&gt;142</title>
<path fill="none" stroke="#000000" d="M443.9151,-294.3736C448.7633,-292.0101 453.9768,-289.7235 459,-288 536.1684,-261.5229 561.8316,-278.4771 639,-252 640.8837,-251.3537 642.7942,-250.6282 644.7021,-249.8491"/>
<polygon fill="#000000" stroke="#000000" points="646.4022,-252.9222 654.0849,-245.6264 643.5294,-246.5388 646.4022,-252.9222"/>
</g>
<!-- 297&#45;&gt;214 -->
<g id="edge19" class="edge">
<title>297&#45;&gt;214</title>
<path fill="none" stroke="#000000" d="M395.7006,-304.8251C334.693,-301.5741 183.2152,-290.0143 63,-252 61.1012,-251.3996 59.179,-250.7097 57.2621,-249.9578"/>
<polygon fill="#000000" stroke="#000000" points="58.4173,-246.642 47.8553,-245.8079 55.5918,-253.0465 58.4173,-246.642"/>
</g>
<!-- 297&#45;&gt;281 -->
<g id="edge17" class="edge">
<title>297&#45;&gt;281</title>
<path fill="none" stroke="#000000" d="M396.1663,-303.486C344.4937,-298.0994 228.0576,-283.3035 135,-252 133.1124,-251.365 131.199,-250.6484 129.2888,-249.8761"/>
<polygon fill="#000000" stroke="#000000" points="130.457,-246.5643 119.8999,-245.6714 127.5959,-252.953 130.457,-246.5643"/>
</g>
<!-- 330 -->
<g id="node15" class="node">
<title>330</title>
<ellipse fill="#f0efed" stroke="#f0efed" cx="171" cy="-234" rx="27" ry="18"/>
<text text-anchor="middle" x="171" y="-229.8" font-family="Times,serif" font-size="14.00" fill="#000000">330</text>
</g>
<!-- 297&#45;&gt;330 -->
<g id="edge18" class="edge">
<title>297&#45;&gt;330</title>
<path fill="none" stroke="#000000" d="M396.8468,-301.3813C355.6602,-293.6838 273.5245,-276.609 207,-252 205.1322,-251.3091 203.2341,-250.5489 201.3356,-249.7434"/>
<polygon fill="#000000" stroke="#000000" points="202.5266,-246.4391 191.978,-245.4499 199.6074,-252.8014 202.5266,-246.4391"/>
</g>
<!-- 397 -->
<g id="node18" class="node">
<title>397</title>
<ellipse fill="#f0efed" stroke="#f0efed" cx="243" cy="-234" rx="27" ry="18"/>
<text text-anchor="middle" x="243" y="-229.8" font-family="Times,serif" font-size="14.00" fill="#000000">397</text>
</g>
<!-- 297&#45;&gt;397 -->
<g id="edge20" class="edge">
<title>297&#45;&gt;397</title>
<path fill="none" stroke="#000000" d="M398.7416,-297.7783C369.869,-287.7927 320.3615,-270.0365 279,-252 277.2226,-251.2249 275.4074,-250.4064 273.5837,-249.5629"/>
<polygon fill="#000000" stroke="#000000" points="275.0584,-246.3885 264.5278,-245.2234 272.0334,-252.7011 275.0584,-246.3885"/>
</g>
<!-- 425 -->
<g id="node20" class="node">
<title>425</title>
<ellipse fill="#f0efed" stroke="#f0efed" cx="603" cy="-234" rx="27" ry="18"/>
<text text-anchor="middle" x="603" y="-229.8" font-family="Times,serif" font-size="14.00" fill="#000000">425</text>
</g>
<!-- 297&#45;&gt;425 -->
<g id="edge23" class="edge">
<title>297&#45;&gt;425</title>
<path fill="none" stroke="#000000" d="M444.4711,-294.643C449.1992,-292.3177 454.2227,-289.9788 459,-288 505.745,-268.6376 520.255,-271.3624 567,-252 568.7915,-251.2579 570.6176,-250.4653 572.4498,-249.6416"/>
<polygon fill="#000000" stroke="#000000" points="573.9792,-252.7901 581.5289,-245.357 570.9916,-246.4596 573.9792,-252.7901"/>
</g>
<!-- 452 -->
<g id="node22" class="node">
<title>452</title>
<ellipse fill="#f0efed" stroke="#f0efed" cx="315" cy="-234" rx="27" ry="18"/>
<text text-anchor="middle" x="315" y="-229.8" font-family="Times,serif" font-size="14.00" fill="#000000">452</text>
</g>
<!-- 297&#45;&gt;452 -->
<g id="edge25" class="edge">
<title>297&#45;&gt;452</title>
<path fill="none" stroke="#000000" d="M403.6918,-293.1278C386.6445,-281.763 361.5981,-265.0654 342.4656,-252.3104"/>
<polygon fill="#000000" stroke="#000000" points="344.4031,-249.3956 334.1411,-246.7607 340.5201,-255.2199 344.4031,-249.3956"/>
</g>
<!-- 455 -->
<g id="node23" class="node">
<title>455</title>
<ellipse fill="#f0efed" stroke="#f0efed" cx="387" cy="-234" rx="27" ry="18"/>
<text text-anchor="middle" x="387" y="-229.8" font-family="Times,serif" font-size="14.00" fill="#000000">455</text>
</g>
<!-- 297&#45;&gt;455 -->
<g id="edge26" class="edge">
<title>297&#45;&gt;455</title>
<path fill="none" stroke="#000000" d="M414.2854,-288.5708C410.0403,-280.0807 404.8464,-269.6929 400.1337,-260.2674"/>
<polygon fill="#000000" stroke="#000000" points="403.237,-258.6477 395.6343,-251.2687 396.976,-261.7782 403.237,-258.6477"/>
</g>
<!-- 503 -->
<g id="node27" class="node">
<title>503</title>
<ellipse fill="#f0efed" stroke="#f0efed" cx="459" cy="-234" rx="27" ry="18"/>
<text text-anchor="middle" x="459" y="-229.8" font-family="Times,serif" font-size="14.00" fill="#000000">503</text>
</g>
<!-- 297&#45;&gt;503 -->
<g id="edge28" class="edge">
<title>297&#45;&gt;503</title>
<path fill="none" stroke="#000000" d="M431.7146,-288.5708C435.9597,-280.0807 441.1536,-269.6929 445.8663,-260.2674"/>
<polygon fill="#000000" stroke="#000000" points="449.024,-261.7782 450.3657,-251.2687 442.763,-258.6477 449.024,-261.7782"/>
</g>
<!-- 548 -->
<g id="node30" class="node">
<title>548</title>
<ellipse fill="#f0efed" stroke="#f0efed" cx="531" cy="-234" rx="27" ry="18"/>
<text text-anchor="middle" x="531" y="-229.8" font-family="Times,serif" font-size="14.00" fill="#000000">548</text>
</g>
<!-- 297&#45;&gt;548 -->
<g id="edge29" class="edge">
<title>297&#45;&gt;548</title>
<path fill="none" stroke="#000000" d="M442.3082,-293.1278C459.3555,-281.763 484.4019,-265.0654 503.5344,-252.3104"/>
<polygon fill="#000000" stroke="#000000" points="505.4799,-255.2199 511.8589,-246.7607 501.5969,-249.3956 505.4799,-255.2199"/>
</g>
<!-- 489 -->
<g id="node26" class="node">
<title>489</title>
<ellipse fill="#f0efed" stroke="#f0efed" cx="675" cy="-90" rx="27" ry="18"/>
<text text-anchor="middle" x="675" y="-85.8" font-family="Times,serif" font-size="14.00" fill="#000000">489</text>
</g>
<!-- 308&#45;&gt;489 -->
<g id="edge30" class="edge">
<title>308&#45;&gt;489</title>
<path fill="none" stroke="#000000" d="M731.7307,-146.7307C721.803,-136.803 708.6847,-123.6847 697.5637,-112.5637"/>
<polygon fill="#000000" stroke="#000000" points="699.7933,-109.8436 690.2473,-105.2473 694.8436,-114.7933 699.7933,-109.8436"/>
</g>
<!-- 341 -->
<g id="node16" class="node">
<title>341</title>
<ellipse fill="#f0efed" stroke="#f0efed" cx="531" cy="-162" rx="27" ry="18"/>
<text text-anchor="middle" x="531" y="-157.8" font-family="Times,serif" font-size="14.00" fill="#000000">341</text>
</g>
<!-- 341&#45;&gt;198 -->
<g id="edge33" class="edge">
<title>341&#45;&gt;198</title>
<path fill="none" stroke="#000000" d="M515.7307,-146.7307C505.803,-136.803 492.6847,-123.6847 481.5637,-112.5637"/>
<polygon fill="#000000" stroke="#000000" points="483.7933,-109.8436 474.2473,-105.2473 478.8436,-114.7933 483.7933,-109.8436"/>
</g>
<!-- 341&#45;&gt;267 -->
<g id="edge32" class="edge">
<title>341&#45;&gt;267</title>
<path fill="none" stroke="#000000" d="M531,-143.8314C531,-136.131 531,-126.9743 531,-118.4166"/>
<polygon fill="#000000" stroke="#000000" points="534.5001,-118.4132 531,-108.4133 527.5001,-118.4133 534.5001,-118.4132"/>
</g>
<!-- 363 -->
<g id="node17" class="node">
<title>363</title>
<ellipse fill="#f0efed" stroke="#f0efed" cx="603" cy="-90" rx="27" ry="18"/>
<text text-anchor="middle" x="603" y="-85.8" font-family="Times,serif" font-size="14.00" fill="#000000">363</text>
</g>
<!-- 341&#45;&gt;363 -->
<g id="edge31" class="edge">
<title>341&#45;&gt;363</title>
<path fill="none" stroke="#000000" d="M546.2693,-146.7307C556.197,-136.803 569.3153,-123.6847 580.4363,-112.5637"/>
<polygon fill="#000000" stroke="#000000" points="583.1564,-114.7933 587.7527,-105.2473 578.2067,-109.8436 583.1564,-114.7933"/>
</g>
<!-- 341&#45;&gt;489 -->
<g id="edge34" class="edge">
<title>341&#45;&gt;489</title>
<path fill="none" stroke="#000000" d="M552.8705,-151.0647C577.2222,-138.8889 616.762,-119.119 644.2285,-105.3858"/>
<polygon fill="#000000" stroke="#000000" points="646.0165,-108.4049 653.3955,-100.8022 642.886,-102.1439 646.0165,-108.4049"/>
</g>
<!-- 363&#45;&gt;48 -->
<g id="edge39" class="edge">
<title>363&#45;&gt;48</title>
<path fill="none" stroke="#000000" d="M587.7307,-74.7307C577.803,-64.803 564.6847,-51.6847 553.5637,-40.5637"/>
<polygon fill="#000000" stroke="#000000" points="555.7933,-37.8436 546.2473,-33.2473 550.8436,-42.7933 555.7933,-37.8436"/>
</g>
<!-- 363&#45;&gt;117 -->
<g id="edge38" class="edge">
<title>363&#45;&gt;117</title>
<path fill="none" stroke="#000000" d="M603,-71.8314C603,-64.131 603,-54.9743 603,-46.4166"/>
<polygon fill="#000000" stroke="#000000" points="606.5001,-46.4132 603,-36.4133 599.5001,-46.4133 606.5001,-46.4132"/>
</g>
<!-- 363&#45;&gt;143 -->
<g id="edge37" class="edge">
<title>363&#45;&gt;143</title>
<path fill="none" stroke="#000000" d="M581.1295,-79.0647C556.7778,-66.8889 517.238,-47.119 489.7715,-33.3858"/>
<polygon fill="#000000" stroke="#000000" points="491.114,-30.1439 480.6045,-28.8022 487.9835,-36.4049 491.114,-30.1439"/>
</g>
<!-- 363&#45;&gt;456 -->
<g id="edge35" class="edge">
<title>363&#45;&gt;456</title>
<path fill="none" stroke="#000000" d="M618.2693,-74.7307C628.197,-64.803 641.3153,-51.6847 652.4363,-40.5637"/>
<polygon fill="#000000" stroke="#000000" points="655.1564,-42.7933 659.7527,-33.2473 650.2067,-37.8436 655.1564,-42.7933"/>
</g>
<!-- 363&#45;&gt;466 -->
<g id="edge36" class="edge">
<title>363&#45;&gt;466</title>
<path fill="none" stroke="#000000" d="M582.022,-78.5501C577.1771,-76.1775 571.9808,-73.8425 567,-72 505.128,-49.1121 484.872,-58.8879 423,-36 421.1322,-35.3091 419.2341,-34.5489 417.3356,-33.7434"/>
<polygon fill="#000000" stroke="#000000" points="418.5266,-30.4391 407.978,-29.4499 415.6074,-36.8014 418.5266,-30.4391"/>
</g>
<!-- 406 -->
<g id="node19" class="node">
<title>406</title>
<ellipse fill="#f0efed" stroke="#f0efed" cx="495" cy="-306" rx="27" ry="18"/>
<text text-anchor="middle" x="495" y="-301.8" font-family="Times,serif" font-size="14.00" fill="#000000">406</text>
</g>
<!-- 406&#45;&gt;77 -->
<g id="edge52" class="edge">
<title>406&#45;&gt;77</title>
<path fill="none" stroke="#000000" d="M522.2994,-304.8251C583.307,-301.5741 734.7848,-290.0143 855,-252 856.8988,-251.3996 858.821,-250.7097 860.7379,-249.9578"/>
<polygon fill="#000000" stroke="#000000" points="862.4082,-253.0465 870.1447,-245.8079 859.5827,-246.642 862.4082,-253.0465"/>
</g>
<!-- 406&#45;&gt;126 -->
<g id="edge51" class="edge">
<title>406&#45;&gt;126</title>
<path fill="none" stroke="#000000" d="M521.1532,-301.3813C562.3398,-293.6838 644.4755,-276.609 711,-252 712.8678,-251.3091 714.7659,-250.5489 716.6644,-249.7434"/>
<polygon fill="#000000" stroke="#000000" points="718.3926,-252.8014 726.022,-245.4499 715.4734,-246.4391 718.3926,-252.8014"/>
</g>
<!-- 406&#45;&gt;132 -->
<g id="edge50" class="edge">
<title>406&#45;&gt;132</title>
<path fill="none" stroke="#000000" d="M521.8337,-303.486C573.5063,-298.0994 689.9424,-283.3035 783,-252 784.8876,-251.365 786.801,-250.6484 788.7112,-249.8761"/>
<polygon fill="#000000" stroke="#000000" points="790.4041,-252.953 798.1001,-245.6714 787.543,-246.5643 790.4041,-252.953"/>
</g>
<!-- 406&#45;&gt;142 -->
<g id="edge49" class="edge">
<title>406&#45;&gt;142</title>
<path fill="none" stroke="#000000" d="M519.2584,-297.7783C548.131,-287.7927 597.6385,-270.0365 639,-252 640.7774,-251.2249 642.5926,-250.4064 644.4163,-249.5629"/>
<polygon fill="#000000" stroke="#000000" points="645.9666,-252.7011 653.4722,-245.2234 642.9416,-246.3885 645.9666,-252.7011"/>
</g>
<!-- 406&#45;&gt;214 -->
<g id="edge47" class="edge">
<title>406&#45;&gt;214</title>
<path fill="none" stroke="#000000" d="M474.5931,-294.1578C469.6323,-291.7449 464.2424,-289.4913 459,-288 289.0184,-239.6444 232.9816,-300.3556 63,-252 60.8703,-251.3941 58.7162,-250.6625 56.5765,-249.8455"/>
<polygon fill="#000000" stroke="#000000" points="57.972,-246.6358 47.4069,-245.8422 55.1712,-253.051 57.972,-246.6358"/>
</g>
<!-- 406&#45;&gt;281 -->
<g id="edge45" class="edge">
<title>406&#45;&gt;281</title>
<path fill="none" stroke="#000000" d="M474.1887,-294.0481C469.3352,-291.7016 464.0932,-289.5041 459,-288 320.0463,-246.965 273.9537,-293.035 135,-252 133.09,-251.436 131.1592,-250.7744 129.2357,-250.0441"/>
<polygon fill="#000000" stroke="#000000" points="130.3779,-246.7244 119.8113,-245.9519 127.5899,-253.1452 130.3779,-246.7244"/>
</g>
<!-- 406&#45;&gt;330 -->
<g id="edge43" class="edge">
<title>406&#45;&gt;330</title>
<path fill="none" stroke="#000000" d="M474.1529,-294.1659C469.3013,-291.8132 464.0691,-289.5835 459,-288 351.0091,-254.2662 314.9909,-285.7338 207,-252 205.0991,-251.4062 203.1752,-250.7215 201.2571,-249.9736"/>
<polygon fill="#000000" stroke="#000000" points="202.4099,-246.657 191.8471,-245.8341 199.5913,-253.0645 202.4099,-246.657"/>
</g>
<!-- 406&#45;&gt;397 -->
<g id="edge40" class="edge">
<title>406&#45;&gt;397</title>
<path fill="none" stroke="#000000" d="M474.0849,-294.3736C469.2367,-292.0101 464.0232,-289.7235 459,-288 381.8316,-261.5229 356.1684,-278.4771 279,-252 277.1163,-251.3537 275.2058,-250.6282 273.2979,-249.8491"/>
<polygon fill="#000000" stroke="#000000" points="274.4706,-246.5388 263.9151,-245.6264 271.5978,-252.9222 274.4706,-246.5388"/>
</g>
<!-- 406&#45;&gt;425 -->
<g id="edge41" class="edge">
<title>406&#45;&gt;425</title>
<path fill="none" stroke="#000000" d="M514.3082,-293.1278C531.3555,-281.763 556.4019,-265.0654 575.5344,-252.3104"/>
<polygon fill="#000000" stroke="#000000" points="577.4799,-255.2199 583.8589,-246.7607 573.5969,-249.3956 577.4799,-255.2199"/>
</g>
<!-- 406&#45;&gt;452 -->
<g id="edge42" class="edge">
<title>406&#45;&gt;452</title>
<path fill="none" stroke="#000000" d="M473.5289,-294.643C468.8008,-292.3177 463.7773,-289.9788 459,-288 412.255,-268.6376 397.745,-271.3624 351,-252 349.2085,-251.2579 347.3824,-250.4653 345.5502,-249.6416"/>
<polygon fill="#000000" stroke="#000000" points="347.0084,-246.4596 336.4711,-245.357 344.0208,-252.7901 347.0084,-246.4596"/>
</g>
<!-- 406&#45;&gt;455 -->
<g id="edge44" class="edge">
<title>406&#45;&gt;455</title>
<path fill="none" stroke="#000000" d="M475.6918,-293.1278C458.6445,-281.763 433.5981,-265.0654 414.4656,-252.3104"/>
<polygon fill="#000000" stroke="#000000" points="416.4031,-249.3956 406.1411,-246.7607 412.5201,-255.2199 416.4031,-249.3956"/>
</g>
<!-- 406&#45;&gt;503 -->
<g id="edge46" class="edge">
<title>406&#45;&gt;503</title>
<path fill="none" stroke="#000000" d="M486.2854,-288.5708C482.0403,-280.0807 476.8464,-269.6929 472.1337,-260.2674"/>
<polygon fill="#000000" stroke="#000000" points="475.237,-258.6477 467.6343,-251.2687 468.976,-261.7782 475.237,-258.6477"/>
</g>
<!-- 406&#45;&gt;548 -->
<g id="edge48" class="edge">
<title>406&#45;&gt;548</title>
<path fill="none" stroke="#000000" d="M503.7146,-288.5708C507.9597,-280.0807 513.1536,-269.6929 517.8663,-260.2674"/>
<polygon fill="#000000" stroke="#000000" points="521.024,-261.7782 522.3657,-251.2687 514.763,-258.6477 521.024,-261.7782"/>
</g>
<!-- 425&#45;&gt;106 -->
<g id="edge55" class="edge">
<title>425&#45;&gt;106</title>
<path fill="none" stroke="#000000" d="M618.2693,-218.7307C628.197,-208.803 641.3153,-195.6847 652.4363,-184.5637"/>
<polygon fill="#000000" stroke="#000000" points="655.1564,-186.7933 659.7527,-177.2473 650.2067,-181.8436 655.1564,-186.7933"/>
</g>
<!-- 425&#45;&gt;308 -->
<g id="edge54" class="edge">
<title>425&#45;&gt;308</title>
<path fill="none" stroke="#000000" d="M624.8705,-223.0647C649.2222,-210.8889 688.762,-191.119 716.2285,-177.3858"/>
<polygon fill="#000000" stroke="#000000" points="718.0165,-180.4049 725.3955,-172.8022 714.886,-174.1439 718.0165,-180.4049"/>
</g>
<!-- 435 -->
<g id="node21" class="node">
<title>435</title>
<ellipse fill="#f0efed" stroke="#f0efed" cx="603" cy="-162" rx="27" ry="18"/>
<text text-anchor="middle" x="603" y="-157.8" font-family="Times,serif" font-size="14.00" fill="#000000">435</text>
</g>
<!-- 425&#45;&gt;435 -->
<g id="edge53" class="edge">
<title>425&#45;&gt;435</title>
<path fill="none" stroke="#000000" d="M603,-215.8314C603,-208.131 603,-198.9743 603,-190.4166"/>
<polygon fill="#000000" stroke="#000000" points="606.5001,-190.4132 603,-180.4133 599.5001,-190.4133 606.5001,-190.4132"/>
</g>
<!-- 435&#45;&gt;198 -->
<g id="edge59" class="edge">
<title>435&#45;&gt;198</title>
<path fill="none" stroke="#000000" d="M581.1295,-151.0647C556.7778,-138.8889 517.238,-119.119 489.7715,-105.3858"/>
<polygon fill="#000000" stroke="#000000" points="491.114,-102.1439 480.6045,-100.8022 487.9835,-108.4049 491.114,-102.1439"/>
</g>
<!-- 435&#45;&gt;267 -->
<g id="edge58" class="edge">
<title>435&#45;&gt;267</title>
<path fill="none" stroke="#000000" d="M587.7307,-146.7307C577.803,-136.803 564.6847,-123.6847 553.5637,-112.5637"/>
<polygon fill="#000000" stroke="#000000" points="555.7933,-109.8436 546.2473,-105.2473 550.8436,-114.7933 555.7933,-109.8436"/>
</g>
<!-- 435&#45;&gt;363 -->
<g id="edge56" class="edge">
<title>435&#45;&gt;363</title>
<path fill="none" stroke="#000000" d="M603,-143.8314C603,-136.131 603,-126.9743 603,-118.4166"/>
<polygon fill="#000000" stroke="#000000" points="606.5001,-118.4132 603,-108.4133 599.5001,-118.4133 606.5001,-118.4132"/>
</g>
<!-- 435&#45;&gt;489 -->
<g id="edge57" class="edge">
<title>435&#45;&gt;489</title>
<path fill="none" stroke="#000000" d="M618.2693,-146.7307C628.197,-136.803 641.3153,-123.6847 652.4363,-112.5637"/>
<polygon fill="#000000" stroke="#000000" points="655.1564,-114.7933 659.7527,-105.2473 650.2067,-109.8436 655.1564,-114.7933"/>
</g>
<!-- 489&#45;&gt;48 -->
<g id="edge62" class="edge">
<title>489&#45;&gt;48</title>
<path fill="none" stroke="#000000" d="M653.1295,-79.0647C628.7778,-66.8889 589.238,-47.119 561.7715,-33.3858"/>
<polygon fill="#000000" stroke="#000000" points="563.114,-30.1439 552.6045,-28.8022 559.9835,-36.4049 563.114,-30.1439"/>
</g>
<!-- 489&#45;&gt;117 -->
<g id="edge61" class="edge">
<title>489&#45;&gt;117</title>
<path fill="none" stroke="#000000" d="M659.7307,-74.7307C649.803,-64.803 636.6847,-51.6847 625.5637,-40.5637"/>
<polygon fill="#000000" stroke="#000000" points="627.7933,-37.8436 618.2473,-33.2473 622.8436,-42.7933 627.7933,-37.8436"/>
</g>
<!-- 489&#45;&gt;456 -->
<g id="edge60" class="edge">
<title>489&#45;&gt;456</title>
<path fill="none" stroke="#000000" d="M675,-71.8314C675,-64.131 675,-54.9743 675,-46.4166"/>
<polygon fill="#000000" stroke="#000000" points="678.5001,-46.4132 675,-36.4133 671.5001,-46.4133 678.5001,-46.4132"/>
</g>
<!-- 524 -->
<g id="node28" class="node">
<title>524</title>
<ellipse fill="#f0efed" stroke="#f0efed" cx="459" cy="-162" rx="27" ry="18"/>
<text text-anchor="middle" x="459" y="-157.8" font-family="Times,serif" font-size="14.00" fill="#000000">524</text>
</g>
<!-- 524&#45;&gt;198 -->
<g id="edge66" class="edge">
<title>524&#45;&gt;198</title>
<path fill="none" stroke="#000000" d="M459,-143.8314C459,-136.131 459,-126.9743 459,-118.4166"/>
<polygon fill="#000000" stroke="#000000" points="462.5001,-118.4132 459,-108.4133 455.5001,-118.4133 462.5001,-118.4132"/>
</g>
<!-- 524&#45;&gt;267 -->
<g id="edge65" class="edge">
<title>524&#45;&gt;267</title>
<path fill="none" stroke="#000000" d="M474.2693,-146.7307C484.197,-136.803 497.3153,-123.6847 508.4363,-112.5637"/>
<polygon fill="#000000" stroke="#000000" points="511.1564,-114.7933 515.7527,-105.2473 506.2067,-109.8436 511.1564,-114.7933"/>
</g>
<!-- 524&#45;&gt;363 -->
<g id="edge64" class="edge">
<title>524&#45;&gt;363</title>
<path fill="none" stroke="#000000" d="M480.8705,-151.0647C505.2222,-138.8889 544.762,-119.119 572.2285,-105.3858"/>
<polygon fill="#000000" stroke="#000000" points="574.0165,-108.4049 581.3955,-100.8022 570.886,-102.1439 574.0165,-108.4049"/>
</g>
<!-- 524&#45;&gt;489 -->
<g id="edge63" class="edge">
<title>524&#45;&gt;489</title>
<path fill="none" stroke="#000000" d="M479.978,-150.5501C484.8229,-148.1775 490.0192,-145.8425 495,-144 556.872,-121.1121 577.128,-130.8879 639,-108 640.8678,-107.3091 642.7659,-106.5489 644.6644,-105.7434"/>
<polygon fill="#000000" stroke="#000000" points="646.3926,-108.8014 654.022,-101.4499 643.4734,-102.4391 646.3926,-108.8014"/>
</g>
<!-- 535 -->
<g id="node29" class="node">
<title>535</title>
<ellipse fill="#f0efed" stroke="#f0efed" cx="459" cy="-378" rx="27" ry="18"/>
<text text-anchor="middle" x="459" y="-373.8" font-family="Times,serif" font-size="14.00" fill="#000000">535</text>
</g>
<!-- 535&#45;&gt;297 -->
<g id="edge68" class="edge">
<title>535&#45;&gt;297</title>
<path fill="none" stroke="#000000" d="M450.2854,-360.5708C446.0403,-352.0807 440.8464,-341.6929 436.1337,-332.2674"/>
<polygon fill="#000000" stroke="#000000" points="439.237,-330.6477 431.6343,-323.2687 432.976,-333.7782 439.237,-330.6477"/>
</g>
<!-- 535&#45;&gt;406 -->
<g id="edge67" class="edge">
<title>535&#45;&gt;406</title>
<path fill="none" stroke="#000000" d="M467.7146,-360.5708C471.9597,-352.0807 477.1536,-341.6929 481.8663,-332.2674"/>
<polygon fill="#000000" stroke="#000000" points="485.024,-333.7782 486.3657,-323.2687 478.763,-330.6477 485.024,-333.7782"/>
</g>
<!-- 548&#45;&gt;106 -->
<g id="edge73" class="edge">
<title>548&#45;&gt;106</title>
<path fill="none" stroke="#000000" d="M552.8705,-223.0647C577.2222,-210.8889 616.762,-191.119 644.2285,-177.3858"/>
<polygon fill="#000000" stroke="#000000" points="646.0165,-180.4049 653.3955,-172.8022 642.886,-174.1439 646.0165,-180.4049"/>
</g>
<!-- 548&#45;&gt;308 -->
<g id="edge72" class="edge">
<title>548&#45;&gt;308</title>
<path fill="none" stroke="#000000" d="M551.978,-222.5501C556.8229,-220.1775 562.0192,-217.8425 567,-216 628.872,-193.1121 649.128,-202.8879 711,-180 712.8678,-179.3091 714.7659,-178.5489 716.6644,-177.7434"/>
<polygon fill="#000000" stroke="#000000" points="718.3926,-180.8014 726.022,-173.4499 715.4734,-174.4391 718.3926,-180.8014"/>
</g>
<!-- 548&#45;&gt;341 -->
<g id="edge71" class="edge">
<title>548&#45;&gt;341</title>
<path fill="none" stroke="#000000" d="M531,-215.8314C531,-208.131 531,-198.9743 531,-190.4166"/>
<polygon fill="#000000" stroke="#000000" points="534.5001,-190.4132 531,-180.4133 527.5001,-190.4133 534.5001,-190.4132"/>
</g>
<!-- 548&#45;&gt;435 -->
<g id="edge70" class="edge">
<title>548&#45;&gt;435</title>
<path fill="none" stroke="#000000" d="M546.2693,-218.7307C556.197,-208.803 569.3153,-195.6847 580.4363,-184.5637"/>
<polygon fill="#000000" stroke="#000000" points="583.1564,-186.7933 587.7527,-177.2473 578.2067,-181.8436 583.1564,-186.7933"/>
</g>
<!-- 548&#45;&gt;524 -->
<g id="edge69" class="edge">
<title>548&#45;&gt;524</title>
<path fill="none" stroke="#000000" d="M515.7307,-218.7307C505.803,-208.803 492.6847,-195.6847 481.5637,-184.5637"/>
<polygon fill="#000000" stroke="#000000" points="483.7933,-181.8436 474.2473,-177.2473 478.8436,-186.7933 483.7933,-181.8436"/>
</g>
</g>
</svg>
